<?xml version="1.0" standalone="no"?>
<!DOCTYPE svg PUBLIC "-//W3C//DTD SVG 1.1//EN" "http://www.w3.org/Graphics/SVG/1.1/DTD/svg11.dtd" >
<svg xmlns="http://www.w3.org/2000/svg" xmlns:xlink="http://www.w3.org/1999/xlink" version="1.1">
<metadata>
Created by FontForge 20170731 at Sun Aug 23 09:13:57 2020
 By Aleksey,,,
Copyright (C) 2001, 2008 Hoefler &#38; Frere-Jones. http://www.typography.com
</metadata>
<defs>
<font id="iCielGotham-Light" horiz-adv-x="819" >
  <font-face 
    font-family="iCiel Gotham Light"
    font-weight="300"
    font-stretch="normal"
    units-per-em="2048"
    panose-1="0 0 0 0 0 0 0 0 0 0"
    ascent="1638"
    descent="-410"
    x-height="1044"
    cap-height="1434"
    bbox="-760 -461 2345 2120"
    underline-thickness="102"
    underline-position="-307"
    unicode-range="U+000D-FB04"
  />
<missing-glyph horiz-adv-x="1024" 
d="M0 -410v2048h1024v-2048h-1024zM145 1536l367 -799l367 799h-734zM102 -156l353 770l-353 770v-1540zM922 1384l-353 -770l353 -770v1540zM512 492l-367 -799h734z" />
    <glyph glyph-name="ff" unicode="ff" horiz-adv-x="1482" 
d="M993 0v952h-151v92h151v103q0 180 92 272q82 82 220 82q85 0 155 -24v-95q-86 27 -155 27q-211 0 -211 -264v-101h364v-92h-364v-952h-101zM252 0v952h-152v92h152v103q0 180 92 272q82 82 219 82q85 0 156 -24v-95q-85 27 -156 27q-211 0 -211 -264v-101h365v-92h-365
v-952h-100z" />
    <glyph glyph-name="fi" unicode="fi" horiz-adv-x="1251" 
d="M252 0v952h-152v92h152v103q0 180 92 272q82 82 219 82q85 0 156 -24v-95q-85 27 -156 27q-211 0 -211 -264v-101h365v-92h-365v-952h-100zM946 0v1044h101v-1044h-101zM934 1317v137h125v-137h-125z" />
    <glyph glyph-name="fl" unicode="fl" horiz-adv-x="1251" 
d="M252 0v952h-152v92h152v103q0 180 92 272q82 82 219 82q85 0 156 -24v-95q-85 27 -156 27q-211 0 -211 -264v-101h365v-92h-365v-952h-100zM946 0v1495h101v-1495h-101z" />
    <glyph glyph-name="ffi" unicode="ffi" horiz-adv-x="1992" 
d="M993 0v952h-151v92h151v103q0 180 92 272q82 82 220 82q85 0 155 -24v-95q-86 27 -155 27q-211 0 -211 -264v-101h364v-92h-364v-952h-101zM252 0v952h-152v92h152v103q0 180 92 272q82 82 219 82q85 0 156 -24v-95q-85 27 -156 27q-211 0 -211 -264v-101h365v-92h-365
v-952h-100zM1688 0v1044h100v-1044h-100zM1675 1317v137h125v-137h-125z" />
    <glyph glyph-name="ffl" unicode="ffl" horiz-adv-x="1992" 
d="M993 0v952h-151v92h151v103q0 180 92 272q82 82 220 82q85 0 155 -24v-95q-86 27 -155 27q-211 0 -211 -264v-101h364v-92h-364v-952h-101zM252 0v952h-152v92h152v103q0 180 92 272q82 82 219 82q85 0 156 -24v-95q-85 27 -156 27q-211 0 -211 -264v-101h365v-92h-365
v-952h-100zM1688 0v1495h100v-1495h-100z" />
    <glyph glyph-name=".notdef" horiz-adv-x="1024" 
d="M0 -410v2048h1024v-2048h-1024zM145 1536l367 -799l367 799h-734zM102 -156l353 770l-353 770v-1540zM922 1384l-353 -770l353 -770v1540zM512 492l-367 -799h734z" />
    <glyph glyph-name=".null" horiz-adv-x="0" 
 />
    <glyph glyph-name="nonmarkingreturn" horiz-adv-x="682" 
 />
    <glyph glyph-name="NULL" horiz-adv-x="0" 
 />
    <glyph glyph-name="NULL" horiz-adv-x="0" 
 />
    <glyph glyph-name="CR" unicode="&#xd;" horiz-adv-x="512" 
 />
    <glyph glyph-name="space" unicode=" " horiz-adv-x="614" 
 />
    <glyph glyph-name="exclam" unicode="!" horiz-adv-x="516" 
d="M229 375l-30 915v144h118v-144l-30 -915h-58zM190 0v174h136v-174h-136z" />
    <glyph glyph-name="quotedbl" unicode="&#x22;" horiz-adv-x="839" 
d="M508 913l72 521h133v-11l-146 -510h-59zM139 913l72 521h133v-11l-145 -510h-60z" />
    <glyph glyph-name="numbersign" unicode="#" horiz-adv-x="1433" 
d="M1249 479v-96h-280l-66 -383h-98l65 383h-424l-65 -383h-98l65 383h-248v96h265l81 484h-264v96h281l65 375h99l-64 -375h424l64 375h98l-66 -375h248v-96h-264l-82 -484h264zM545 963l-82 -484h424l82 484h-424z" />
    <glyph glyph-name="dollar" unicode="$" horiz-adv-x="1294" 
d="M1102 1262l-68 -80q-155 134 -332 155v-575q443 -92 443 -383q0 -160 -123 -268q-123 -105 -315 -111v-201h-99v203q-263 21 -485 219l67 80q195 -186 422 -207v584q-228 52 -331 141t-103 244q0 154 121 260q123 108 309 111v118h99v-122q207 -18 395 -168zM973 543
q-72 66 -271 114v-565q152 3 246 82q92 77 92 197q0 111 -67 172zM346 899q74 -71 266 -117v559q-149 -3 -239 -81t-90 -189q0 -112 63 -172z" />
    <glyph glyph-name="percent" unicode="%" horiz-adv-x="1687" 
d="M199 827q-86 106 -86 252v4q0 149 88 256q89 111 229 111q138 0 227 -111q86 -106 86 -252v-4q0 -149 -88 -256q-88 -110 -229 -110q-139 0 -227 110zM276 1280q-57 -75 -57 -193v-4q0 -118 64 -200q60 -78 147 -78q91 0 150 80q57 75 57 194v4q0 119 -62 199t-149 80
q-92 0 -150 -82zM262 0l1053 1434h110l-1052 -1434h-111zM1030 94q-86 106 -86 252v4q0 149 88 256q88 111 230 111q138 0 227 -111q86 -106 86 -252v-4q0 -149 -88 -256q-88 -110 -230 -110q-139 0 -227 110zM1411 152q57 75 57 194v4q0 120 -61 199q-62 80 -150 80
q-91 0 -149 -82q-57 -75 -57 -193v-4q0 -119 63 -200q60 -78 148 -78q90 0 149 80z" />
    <glyph glyph-name="ampersand" unicode="&#x26;" horiz-adv-x="1425" 
d="M1274 -29l-248 256q-210 -247 -485 -247q-191 0 -316 110q-125 113 -125 287v4q0 282 371 420q-160 180 -160 327v5q0 140 101 231q101 94 258 94q139 0 235 -90q94 -91 94 -221v-4q0 -252 -352 -371l377 -387q97 135 186 348l97 -39q-105 -237 -213 -381l264 -272z
M893 1139v4q0 94 -66 160q-65 65 -161 65q-108 0 -179 -68q-69 -63 -69 -163v-4q0 -120 166 -295q309 99 309 301zM958 297l-423 438q-328 -114 -328 -350v-4q0 -131 94 -219q96 -90 242 -90q221 0 415 225z" />
    <glyph glyph-name="quotesingle" unicode="'" horiz-adv-x="471" 
d="M139 913l72 521h133v-11l-145 -510h-60z" />
    <glyph glyph-name="parenleft" unicode="(" horiz-adv-x="880" 
d="M756 -221l-43 -68q-568 322 -568 877q0 554 568 876l43 -67q-504 -311 -504 -809q0 -499 504 -809z" />
    <glyph glyph-name="parenright" unicode=")" horiz-adv-x="880" 
d="M168 -289l-43 68q504 310 504 809q0 498 -504 809l43 67q567 -322 567 -876q0 -555 -567 -877z" />
    <glyph glyph-name="asterisk" unicode="*" horiz-adv-x="880" 
d="M397 831l19 261l-217 -148l-45 76l241 115l-241 114l45 76l217 -147l-19 260h86l-18 -260l217 147l45 -76l-242 -114l242 -115l-45 -76l-217 148l18 -261h-86z" />
    <glyph glyph-name="plus" unicode="+" horiz-adv-x="1269" 
d="M584 231v441h-445v98h445v440h102v-440h444v-98h-444v-441h-102z" />
    <glyph glyph-name="comma" unicode="," horiz-adv-x="471" 
d="M133 -219l-24 51q123 64 114 168h-55v174h135v-151q0 -177 -170 -242z" />
    <glyph glyph-name="hyphen" unicode="-" horiz-adv-x="835" 
d="M143 551v115h549v-115h-549z" />
    <glyph glyph-name="period" unicode="." horiz-adv-x="471" 
d="M168 0v174h135v-174h-135z" />
    <glyph glyph-name="slash" unicode="/" horiz-adv-x="1024" 
d="M-37 -262l967 1896h100l-967 -1896h-100z" />
    <glyph glyph-name="zero" unicode="0" horiz-adv-x="1454" 
d="M293 197q-160 210 -160 516v4q0 308 162 518q168 223 434 223q265 0 432 -221q160 -210 160 -516v-4q0 -308 -162 -518q-169 -224 -434 -224q-264 0 -432 222zM1081 268q129 184 129 445v4q0 262 -131 448q-138 197 -354 197q-213 0 -352 -195q-129 -185 -129 -446v-4
q0 -261 131 -447q137 -198 354 -198q214 0 352 196z" />
    <glyph glyph-name="one" unicode="1" horiz-adv-x="686" 
d="M367 0v1333l-277 -94l-29 84l328 121h82v-1444h-104z" />
    <glyph glyph-name="two" unicode="2" horiz-adv-x="1208" 
d="M98 0v80l535 483q317 293 317 490q0 133 -96 223q-96 84 -227 84q-236 0 -420 -266l-80 53q199 307 510 307q183 0 305 -113q121 -115 121 -280v-4q0 -138 -84 -266q-75 -110 -274 -291l-439 -398h811v-102h-979z" />
    <glyph glyph-name="three" unicode="3" horiz-adv-x="1249" 
d="M111 233l82 68q180 -229 446 -229q149 0 250 88q104 88 104 229v4q0 149 -127 232q-121 80 -319 80h-78l-27 59l494 569h-752v101h897v-76l-485 -555q221 -12 356 -111q152 -109 152 -295v-4q0 -183 -141 -303q-136 -115 -326 -115q-327 0 -526 258z" />
    <glyph glyph-name="four" unicode="4" horiz-adv-x="1359" 
d="M911 0v350h-776l-37 80l820 1014h96v-1002h233v-92h-233v-350h-103zM227 442h684v848z" />
    <glyph glyph-name="five" unicode="5" horiz-adv-x="1239" 
d="M117 207l76 76q211 -211 430 -211q168 0 278 104q107 101 107 256v4q0 150 -111 244q-110 96 -283 96q-154 0 -323 -90l-82 53l41 695h805v-103h-711l-35 -536q160 77 318 77q212 0 350 -120q141 -120 141 -312v-4q0 -203 -141 -332t-359 -129q-272 0 -501 232z" />
    <glyph glyph-name="six" unicode="6" horiz-adv-x="1314" 
d="M313 119q-182 182 -182 559v4q0 331 158 551q163 225 426 225q211 0 413 -166l-67 -82q-172 152 -354 152q-212 0 -342 -201q-127 -195 -127 -502v-41q156 267 448 267q199 0 344 -121q150 -126 150 -313v-5q0 -201 -146 -335q-145 -136 -356 -136q-221 0 -365 144z
M965 180q104 107 104 262v4q0 147 -108 246q-111 99 -281 99q-169 0 -289 -111q-110 -107 -110 -244v-4q0 -155 116 -256q113 -104 289 -104q171 0 279 108z" />
    <glyph glyph-name="seven" unicode="7" horiz-adv-x="1202" 
d="M319 0l652 1331h-832v103h951v-78l-654 -1356h-117z" />
    <glyph glyph-name="eight" unicode="8" horiz-adv-x="1290" 
d="M266 92q-153 114 -153 291v4q0 249 317 354q-268 108 -268 334v4q0 164 149 271q140 104 334 104t334 -104q149 -107 149 -271v-4q0 -226 -268 -334q318 -105 318 -354v-4q0 -176 -154 -291q-147 -112 -379 -112t-379 112zM907 862q111 82 111 213v4q0 121 -109 201
q-110 78 -264 78t-264 -78q-109 -80 -109 -201v-4q0 -131 111 -213q107 -82 262 -82t262 82zM954 166q113 85 113 213v4q0 133 -123 221q-124 86 -299 86t-299 -86q-123 -88 -123 -221v-4q0 -128 113 -213q119 -90 309 -90t309 90z" />
    <glyph glyph-name="nine" unicode="9" horiz-adv-x="1314" 
d="M948 270q129 194 129 484v55q-157 -274 -446 -274q-215 0 -357 127q-139 127 -139 311v4q0 201 139 340q144 141 365 141q220 0 365 -145q180 -180 180 -559v-4q0 -338 -166 -555q-168 -220 -418 -220q-220 0 -432 179l68 82q182 -164 366 -164q212 0 346 198zM926 743
q108 108 108 250v4q0 153 -114 258q-116 107 -293 107q-171 0 -279 -117q-102 -108 -102 -264v-4q0 -151 108 -250q110 -98 281 -98q174 0 291 114z" />
    <glyph glyph-name="colon" unicode=":" horiz-adv-x="491" 
d="M178 870v174h135v-174h-135zM178 0v174h135v-174h-135z" />
    <glyph glyph-name="semicolon" unicode=";" horiz-adv-x="491" 
d="M178 870v174h135v-174h-135zM143 -219l-24 51q123 64 114 168h-55v174h135v-151q0 -177 -170 -242z" />
    <glyph glyph-name="less" unicode="&#x3c;" horiz-adv-x="1269" 
d="M1079 186l-950 494v82l950 493v-110l-825 -422l825 -426v-111z" />
    <glyph glyph-name="equal" unicode="=" horiz-adv-x="1269" 
d="M170 899v105h930v-105h-930zM170 438v105h930v-105h-930z" />
    <glyph glyph-name="greater" unicode="&#x3e;" horiz-adv-x="1269" 
d="M190 186v111l826 422l-826 426v110l951 -493v-82z" />
    <glyph glyph-name="question" unicode="?" horiz-adv-x="1093" 
d="M469 375l-27 332l11 10q200 3 315 92q111 89 111 235v5q0 127 -93 217q-95 92 -247 92q-224 0 -396 -211l-73 61q197 244 473 244q197 0 323 -117q121 -115 121 -282v-4q0 -178 -127 -293q-120 -104 -307 -125l-18 -256h-66zM434 0v174h135v-174h-135z" />
    <glyph glyph-name="at" unicode="@" horiz-adv-x="2007" 
d="M369 -70q-260 260 -260 631q0 370 260 633q261 264 637 264q372 0 634 -244q258 -240 258 -567q0 -243 -120 -381q-104 -116 -252 -116q-221 0 -279 190q-153 -190 -350 -190q-153 0 -256 100q-106 103 -106 264q0 212 153 365q145 145 324 145q210 0 305 -182l29 153
l98 -12l-76 -432q-18 -108 -18 -148q0 -180 184 -180q119 0 201 101q94 116 94 323q0 290 -236 514q-244 232 -587 232q-351 0 -592 -244q-236 -242 -236 -588q0 -348 238 -586q238 -241 606 -241q273 0 512 139l31 -51q-254 -154 -543 -154q-388 0 -653 262zM1157 354
q125 125 125 287q0 121 -76 203t-194 82q-139 0 -250 -111q-121 -121 -121 -293q0 -130 76 -203q73 -73 196 -73q136 0 244 108z" />
    <glyph glyph-name="A" unicode="A" horiz-adv-x="1617" 
d="M90 0l668 1444h102l668 -1444h-117l-182 401h-846l-182 -401h-111zM428 498h756l-377 829z" />
    <glyph glyph-name="B" unicode="B" horiz-adv-x="1478" 
d="M213 0v1434h592q246 0 373 -127q92 -92 92 -226v-4q0 -241 -244 -340q324 -83 324 -342v-4q0 -176 -142 -285q-135 -106 -372 -106h-623zM1161 1067v4q0 120 -92 191q-94 73 -266 73h-484v-563h474q166 0 264 76q104 79 104 219zM1241 391v4q0 135 -113 205
q-115 74 -323 74h-486v-576h521q184 0 293 80q108 76 108 213z" />
    <glyph glyph-name="C" unicode="C" horiz-adv-x="1511" 
d="M352 190q-202 211 -202 523v4q0 308 202 522q207 219 514 219q310 0 557 -229l-75 -78q-217 211 -484 211q-258 0 -430 -184q-174 -186 -174 -457v-4q0 -273 174 -459t432 -186q268 0 494 223l72 -70q-256 -250 -570 -250q-304 0 -510 215z" />
    <glyph glyph-name="D" unicode="D" horiz-adv-x="1601" 
d="M213 0v1434h477q334 0 551 -205q211 -202 211 -508v-4q0 -308 -211 -510q-219 -207 -551 -207h-477zM690 1335h-371v-1237h371q294 0 475 178q176 176 176 437v4q0 260 -176 436q-182 182 -475 182z" />
    <glyph glyph-name="E" unicode="E" horiz-adv-x="1372" 
d="M213 0v1434h1020v-99h-914v-563h822v-98h-822v-576h924v-98h-1030z" />
    <glyph glyph-name="F" unicode="F" horiz-adv-x="1343" 
d="M213 0v1434h1010v-99h-904v-587h811v-99h-811v-649h-106z" />
    <glyph glyph-name="G" unicode="G" horiz-adv-x="1605" 
d="M340 193q-190 205 -190 520v4q0 301 194 516q202 225 514 225q295 0 524 -188l-69 -80q-196 172 -461 172q-256 0 -426 -191q-166 -187 -166 -450v-4q0 -284 164 -463q169 -184 450 -184q264 0 457 163v412h-479v98h582v-553q-244 -215 -564 -215q-330 0 -530 218z" />
    <glyph glyph-name="H" unicode="H" horiz-adv-x="1556" 
d="M213 0v1434h106v-664h918v664h106v-1434h-106v672h-918v-672h-106z" />
    <glyph glyph-name="I" unicode="I" horiz-adv-x="561" 
d="M227 0v1434h107v-1434h-107z" />
    <glyph glyph-name="J" unicode="J" horiz-adv-x="1124" 
d="M76 248l88 55q131 -227 352 -227q139 0 221 98q90 104 90 285v975h107v-967q0 -242 -131 -373q-114 -114 -293 -114q-283 0 -434 268z" />
    <glyph glyph-name="K" unicode="K" horiz-adv-x="1464" 
d="M213 0v1434h106v-942l914 942h145l-626 -633l653 -801h-139l-590 725l-357 -360v-365h-106z" />
    <glyph glyph-name="L" unicode="L" horiz-adv-x="1267" 
d="M213 0v1434h106v-1336h842v-98h-948z" />
    <glyph glyph-name="M" unicode="M" horiz-adv-x="1777" 
d="M213 0v1434h100l576 -848l575 848h101v-1434h-107v1245l-567 -825h-8l-568 825v-1245h-102z" />
    <glyph glyph-name="N" unicode="N" horiz-adv-x="1617" 
d="M213 0v1434h100l990 -1248v1248h102v-1434h-80l-1010 1274v-1274h-102z" />
    <glyph glyph-name="O" unicode="O" horiz-adv-x="1740" 
d="M346 197q-196 211 -196 516v4q0 305 198 518q204 223 524 223q317 0 523 -221q196 -211 196 -516v-4q0 -305 -198 -518q-205 -224 -525 -224q-315 0 -522 222zM1309 260q172 184 172 453v4q0 268 -174 454q-176 191 -439 191q-260 0 -436 -188q-172 -184 -172 -453v-4
q0 -269 174 -455q175 -190 438 -190q261 0 437 188z" />
    <glyph glyph-name="P" unicode="P" horiz-adv-x="1368" 
d="M213 0v1434h520q240 0 385 -115q148 -121 148 -324v-4q0 -217 -168 -342q-153 -114 -391 -114h-388v-535h-106zM319 633h394q198 0 323 96q123 95 123 256v4q0 166 -121 258q-113 88 -313 88h-406v-702z" />
    <glyph glyph-name="Q" unicode="Q" horiz-adv-x="1740" 
d="M1608 39l-76 -82l-203 182q-194 -164 -461 -164q-315 0 -522 222q-196 211 -196 516v4q0 305 198 518q204 223 524 223q317 0 523 -221q196 -211 196 -516v-4q0 -294 -188 -506zM1253 207l-278 237l76 84l274 -249q156 178 156 434v4q0 268 -174 454q-176 191 -439 191
q-260 0 -436 -188q-172 -184 -172 -453v-4q0 -269 174 -455q175 -190 438 -190q218 0 381 135z" />
    <glyph glyph-name="R" unicode="R" horiz-adv-x="1480" 
d="M213 0v1434h602q262 0 404 -142q108 -108 108 -266v-4q0 -176 -119 -283q-109 -100 -301 -127l473 -612h-135l-457 594h-469v-594h-106zM319 690h484q184 0 299 86q119 88 119 242v4q0 146 -109 229q-110 84 -303 84h-490v-645z" />
    <glyph glyph-name="S" unicode="S" horiz-adv-x="1310" 
d="M121 209l69 80q233 -213 515 -213q161 0 262 82q100 78 100 202v5q0 119 -80 184q-90 75 -325 121q-257 52 -371 147q-113 91 -113 256v4q0 162 131 269q132 108 330 108q275 0 491 -174l-67 -84q-186 162 -428 162q-154 0 -254 -80q-96 -78 -96 -191v-4q0 -122 82 -186
q93 -78 335 -127q250 -53 361 -145q111 -91 111 -250v-4q0 -170 -134 -283q-132 -108 -342 -108q-324 0 -577 229z" />
    <glyph glyph-name="T" unicode="T" horiz-adv-x="1327" 
d="M610 0v1335h-499v99h1106v-99h-500v-1335h-107z" />
    <glyph glyph-name="U" unicode="U" horiz-adv-x="1556" 
d="M356 137q-166 163 -166 459v838h107v-828q0 -252 129 -393q130 -139 356 -139q223 0 348 131q130 139 130 391v838h106v-826q0 -299 -164 -469q-155 -162 -424 -162q-265 0 -422 160z" />
    <glyph glyph-name="V" unicode="V" horiz-adv-x="1536" 
d="M721 -10l-631 1444h119l561 -1319l563 1319h113l-631 -1444h-94z" />
    <glyph glyph-name="W" unicode="W" horiz-adv-x="2256" 
d="M623 -10l-521 1444h119l451 -1276l420 1280h82l419 -1280l451 1276h110l-520 -1444h-86l-420 1245l-419 -1245h-86z" />
    <glyph glyph-name="X" unicode="X" horiz-adv-x="1478" 
d="M1229 1434h125l-551 -703l571 -731h-127l-510 662l-508 -662h-125l570 731l-549 703h127l489 -633z" />
    <glyph glyph-name="Y" unicode="Y" horiz-adv-x="1466" 
d="M680 0v567l-614 867h133l536 -770l539 770h127l-615 -865v-569h-106z" />
    <glyph glyph-name="Z" unicode="Z" horiz-adv-x="1409" 
d="M139 0v59l981 1278h-946v97h1098v-60l-981 -1278h981v-96h-1133z" />
    <glyph glyph-name="bracketleft" unicode="[" horiz-adv-x="880" 
d="M201 -266v1700h559v-78h-465v-1544h465v-78h-559z" />
    <glyph glyph-name="backslash" unicode="\" horiz-adv-x="1024" 
d="M961 -262l-967 1896h100l967 -1896h-100z" />
    <glyph glyph-name="bracketright" unicode="]" horiz-adv-x="880" 
d="M121 -266v78h465v1544h-465v78h559v-1700h-559z" />
    <glyph glyph-name="asciicircum" unicode="^" horiz-adv-x="1024" 
d="M143 1010l324 430h90l324 -430h-109l-262 342l-262 -342h-105z" />
    <glyph glyph-name="underscore" unicode="_" horiz-adv-x="1228" 
d="M-4 -328v90h1237v-90h-1237z" />
    <glyph glyph-name="grave" unicode="`" horiz-adv-x="1024" 
d="M541 1219l-219 211l124 61l181 -272h-86z" />
    <glyph glyph-name="A001" unicode="a" horiz-adv-x="1175" 
d="M233 57q-129 91 -129 246v4q0 160 127 252q122 88 330 88q182 0 346 -45v45q0 320 -344 320q-161 0 -327 -84l-37 88q197 90 370 90q215 0 330 -115q107 -107 107 -295v-651h-99v174q-141 -199 -399 -199q-162 0 -275 82zM793 160q116 91 116 231v119q-186 47 -354 47
q-165 0 -254 -68q-90 -66 -90 -176v-4q0 -108 92 -176q84 -63 211 -63q163 0 279 90z" />
    <glyph glyph-name="B002" unicode="b" horiz-adv-x="1351" 
d="M291 225v-225h-101v1495h101v-684q169 258 430 258q202 0 348 -143q160 -157 160 -400v-4q0 -244 -160 -401q-149 -146 -348 -146q-266 0 -430 250zM1001 190q119 122 119 328v4q0 202 -123 328q-117 123 -286 123q-170 0 -295 -125q-131 -131 -131 -324v-4
q0 -194 131 -325q126 -123 295 -123q178 0 290 118z" />
    <glyph glyph-name="C003" unicode="c" horiz-adv-x="1169" 
d="M272 137q-153 159 -153 381v4q0 220 153 383q156 164 379 164q235 0 418 -192l-72 -74q-169 172 -348 172q-180 0 -299 -131q-123 -129 -123 -318v-4q0 -190 125 -321t305 -131q196 0 351 174l69 -62q-183 -207 -426 -207q-224 0 -379 162z" />
    <glyph glyph-name="D004" unicode="d" horiz-adv-x="1351" 
d="M283 119q-160 157 -160 399v4q0 245 160 402q148 145 348 145q266 0 430 -250v676h100v-1495h-100v233q-169 -258 -430 -258q-201 0 -348 144zM936 197q131 131 131 323v4q0 195 -131 326q-126 123 -295 123q-178 0 -291 -119q-119 -122 -119 -328v-4q0 -201 123 -327
q117 -123 287 -123t295 125z" />
    <glyph glyph-name="E005" unicode="e" horiz-adv-x="1196" 
d="M272 125q-153 156 -153 395v4q0 231 141 387q146 158 354 158q214 0 351 -158q129 -153 129 -389q0 -31 -2 -41h-867q15 -189 135 -303q114 -108 275 -108q205 0 358 163l70 -61q-182 -197 -432 -197q-212 0 -359 150zM225 571h760q-12 170 -102 283q-102 123 -273 123
q-154 0 -262 -117q-108 -114 -123 -289z" />
    <glyph glyph-name="F006" unicode="f" horiz-adv-x="741" 
d="M252 0v952h-152v92h152v103q0 180 92 272q82 82 219 82q85 0 156 -24v-95q-85 27 -156 27q-211 0 -211 -264v-101h365v-92h-365v-952h-100z" />
    <glyph glyph-name="G007" unicode="g" horiz-adv-x="1351" 
d="M170 -172l59 82q192 -148 422 -148q186 0 295 103q115 109 115 303v151q-168 -241 -436 -241q-198 0 -346 133q-156 144 -156 358v4q0 217 156 361q147 135 346 135q273 0 436 -233v208h100v-882q0 -222 -133 -355q-139 -139 -379 -139q-263 0 -479 160zM932 285
q135 114 135 286v4q0 175 -135 289q-127 109 -297 109q-172 0 -285 -107q-119 -110 -119 -288v-5q0 -170 121 -288q117 -111 283 -111q171 0 297 111z" />
    <glyph glyph-name="H008" unicode="h" horiz-adv-x="1255" 
d="M190 0v1495h101v-645q127 219 377 219q192 0 307 -121q110 -119 110 -309v-639h-100v621q0 163 -86 258q-88 98 -246 98q-156 0 -258 -105q-104 -107 -104 -268v-604h-101z" />
    <glyph glyph-name="I009" unicode="i" horiz-adv-x="509" 
d="M193 1317v137h124v-137h-124zM205 0v1044h100v-1044h-100z" />
    <glyph glyph-name="J010" unicode="j" horiz-adv-x="509" 
d="M193 1317v137h124v-137h-124zM-2 -326v88q38 -6 82 -6q125 0 125 146v1142h100v-1136q0 -242 -223 -242q-48 0 -84 8z" />
    <glyph glyph-name="K011" unicode="k" horiz-adv-x="1146" 
d="M190 0v1495h101v-1120l647 669h133l-457 -462l471 -582h-127l-413 510l-254 -256v-254h-101z" />
    <glyph glyph-name="L012" unicode="l" horiz-adv-x="509" 
d="M205 0v1495h100v-1495h-100z" />
    <glyph glyph-name="M013" unicode="m" horiz-adv-x="1947" 
d="M190 0v1044h101v-186q132 211 348 211q244 0 352 -225q132 225 377 225q186 0 293 -119q108 -120 108 -317v-633h-100v621q0 168 -82 262t-227 94q-136 0 -232 -96q-98 -104 -98 -273v-608h-100v627q0 162 -82 256t-223 94q-138 0 -238 -109q-96 -110 -96 -266v-602h-101
z" />
    <glyph glyph-name="N014" unicode="n" horiz-adv-x="1255" 
d="M190 0v1044h101v-194q127 219 377 219q192 0 307 -121q110 -119 110 -309v-639h-100v621q0 163 -86 258q-88 98 -246 98q-156 0 -258 -105q-104 -107 -104 -268v-604h-101z" />
    <glyph glyph-name="O015" unicode="o" horiz-adv-x="1310" 
d="M270 137q-151 157 -151 381v4q0 224 153 383q156 164 385 164q231 0 383 -162q152 -158 152 -381v-4q0 -222 -152 -383q-156 -164 -387 -164t-383 162zM963 203q120 129 120 315v4q0 191 -125 322t-305 131q-186 0 -305 -131q-121 -133 -121 -318v-4q0 -190 125 -321
t305 -131q185 0 306 133z" />
    <glyph glyph-name="P016" unicode="p" horiz-adv-x="1351" 
d="M190 -328v1372h101v-233q169 258 430 258q202 0 348 -143q160 -157 160 -400v-4q0 -244 -160 -401q-149 -146 -348 -146q-266 0 -430 250v-553h-101zM1001 190q119 122 119 328v4q0 202 -123 328q-117 123 -286 123q-170 0 -295 -125q-131 -131 -131 -324v-4
q0 -194 131 -325q126 -123 295 -123q178 0 290 118z" />
    <glyph glyph-name="Q017" unicode="q" horiz-adv-x="1351" 
d="M1061 -328v561q-169 -258 -430 -258q-201 0 -348 144q-160 157 -160 399v4q0 245 160 402q148 145 348 145q266 0 430 -250v225h100v-1372h-100zM936 197q131 131 131 323v4q0 195 -131 326q-126 123 -295 123q-178 0 -291 -119q-119 -122 -119 -328v-4q0 -201 123 -327
q117 -123 287 -123t295 125z" />
    <glyph glyph-name="R018" unicode="r" 
d="M190 0v1044h101v-296q64 144 184 229q128 90 279 84v-111h-11q-190 0 -317 -133q-135 -144 -135 -389v-428h-101z" />
    <glyph glyph-name="S019" unicode="s" horiz-adv-x="1017" 
d="M100 131l60 80q177 -137 375 -137q107 0 178 53q73 58 73 145v4q0 83 -84 136q-53 31 -192 73q-177 53 -244 93q-114 70 -114 194v4q0 126 96 207q94 82 248 82q196 0 370 -115l-53 -84q-156 105 -321 105q-110 0 -173 -51q-65 -53 -65 -132v-4q0 -76 90 -129
q48 -30 201 -73q163 -46 235 -95q109 -77 109 -198v-4q0 -139 -105 -224q-100 -81 -256 -81q-239 0 -428 151z" />
    <glyph glyph-name="T020" unicode="t" 
d="M332 51q-86 77 -86 217v684h-152v92h152v334h100v-334h367v-92h-367v-673q0 -203 209 -203q73 0 154 37v-95q-76 -36 -170 -36q-132 0 -207 69z" />
    <glyph glyph-name="U021" unicode="u" horiz-adv-x="1255" 
d="M281 96q-111 120 -111 310v638h100v-620q0 -163 86 -258q88 -98 246 -98q157 0 258 104q105 108 105 268v604h100v-1044h-100v195q-127 -220 -377 -220q-192 0 -307 121z" />
    <glyph glyph-name="V022" unicode="v" horiz-adv-x="1191" 
d="M553 -8l-469 1052h117l395 -931l399 931h113l-469 -1052h-86z" />
    <glyph glyph-name="W023" unicode="w" horiz-adv-x="1763" 
d="M483 -8l-383 1052h113l315 -917l316 922h80l315 -922l315 917h109l-383 -1052h-86l-311 895l-314 -895h-86z" />
    <glyph glyph-name="X024" unicode="x" horiz-adv-x="1167" 
d="M233 1044l351 -442l354 442h121l-412 -509l428 -535h-125l-368 465l-369 -465h-121l426 532l-409 512h124z" />
    <glyph glyph-name="Y025" unicode="y" horiz-adv-x="1204" 
d="M631 111l377 933h110l-452 -1081q-125 -297 -349 -297q-107 0 -206 45l34 88q77 -39 179 -39q153 0 258 246l-502 1038h117z" />
    <glyph glyph-name="Z026" unicode="z" horiz-adv-x="1134" 
d="M119 0v57l753 897h-725v90h875v-57l-754 -897h754v-90h-903z" />
    <glyph glyph-name="braceleft" unicode="{" horiz-adv-x="983" 
d="M866 -223l-14 -66q-260 50 -354 154q-78 90 -78 262v162q0 130 -51 190q-58 70 -195 70h-53v78h53q138 0 195 69q51 60 51 191v162q0 172 78 262q93 103 354 153l14 -65q-229 -60 -291 -133q-55 -64 -55 -230v-153q0 -230 -213 -295q112 -38 158 -96q55 -70 55 -199v-154
q0 -165 55 -229q62 -73 291 -133z" />
    <glyph glyph-name="bar" unicode="|" horiz-adv-x="585" 
d="M248 -262v1896h90v-1896h-90z" />
    <glyph glyph-name="braceright" unicode="}" horiz-adv-x="983" 
d="M131 -289l-14 66q229 60 291 133q55 64 55 229v154q0 230 213 295q-112 38 -158 96q-55 70 -55 199v153q0 166 -55 230q-62 73 -291 133l14 65q261 -50 354 -153q78 -90 78 -262v-162q0 -131 51 -191q57 -69 195 -69h53v-78h-53q-137 0 -195 -70q-51 -60 -51 -190v-162
q0 -172 -78 -262q-94 -104 -354 -154z" />
    <glyph glyph-name="asciitilde" unicode="~" horiz-adv-x="942" 
d="M469 555q-93 43 -129 43q-62 0 -102 -102l-70 18q53 191 172 191q40 0 133 -41q93 -43 129 -43q62 0 103 102l69 -18q-53 -191 -172 -191q-40 0 -133 41z" />
    <glyph glyph-name="nbspace" unicode="&#xa0;" horiz-adv-x="614" 
 />
    <glyph glyph-name="exclamdown" unicode="&#xa1;" horiz-adv-x="516" 
d="M190 1260v174h136v-174h-136zM199 0v143l30 916h58l30 -916v-143h-118z" />
    <glyph glyph-name="cent" unicode="&#xa2;" horiz-adv-x="1189" 
d="M825 1446l-37 -186q157 -41 289 -179l-71 -73q-127 130 -240 157l-174 -884q40 -7 74 -7q194 0 350 175l69 -62q-183 -207 -426 -207q-41 0 -79 6l-39 -198h-103l43 223q-159 57 -254 195q-100 141 -100 317v4q0 218 154 383q156 164 378 164h29l35 172h102zM236 731v-4
q0 -146 75 -258q68 -111 193 -162l172 873h-19q-180 0 -299 -131q-122 -128 -122 -318z" />
    <glyph glyph-name="sterling" unicode="&#xa3;" horiz-adv-x="1318" 
d="M143 0v51l176 41v533h-176v98h176v242q0 236 134 370q119 119 307 119q264 0 430 -217l-82 -63q-147 184 -350 184q-144 0 -232 -88q-102 -102 -102 -303v-244h610v-98h-610v-529h766v-96h-1047z" />
    <glyph glyph-name="yen" unicode="&#xa5;" horiz-adv-x="1404" 
d="M215 549v92h399l-548 793h129l510 -764l512 764h122l-551 -793h402v-92h-436v-201h436v-92h-436v-256h-103v256h-436v92h436v201h-436z" />
    <glyph glyph-name="section" unicode="&#xa7;" horiz-adv-x="1294" 
d="M1034 240v-4q0 -117 -98 -187q-100 -69 -262 -69q-274 0 -465 194l78 74q162 -168 397 -168q238 0 238 158v4q0 128 -375 217q-225 55 -322 121q-92 65 -92 163v5q0 89 82 153q85 63 221 78q-176 77 -176 215v4q0 116 98 186q101 70 263 70q273 0 464 -194l-77 -74
q-162 168 -398 168q-237 0 -237 -158v-4q0 -128 375 -217q223 -54 321 -121q92 -65 92 -164v-4q0 -90 -82 -151q-83 -65 -221 -80q176 -77 176 -215zM983 567q72 47 72 111v4q0 122 -322 201q-122 32 -229 32q-117 0 -193 -49q-71 -47 -71 -110v-4q0 -122 321 -201
q123 -33 230 -33q116 0 192 49z" />
    <glyph glyph-name="dieresis" unicode="&#xa8;" horiz-adv-x="1024" 
d="M608 1219v163h142v-163h-142zM274 1219v163h142v-163h-142z" />
    <glyph glyph-name="copyright" unicode="&#xa9;" horiz-adv-x="1699" 
d="M322 193q-213 216 -213 520v4q0 304 215 522q219 219 528 219t526 -217q213 -216 213 -520v-4q0 -304 -215 -522q-220 -220 -528 -220t-526 218zM1335 233q195 201 195 484v4q0 280 -195 481q-193 199 -483 199q-286 0 -487 -201q-195 -201 -195 -483v-4q0 -281 195 -482
q192 -198 483 -198q287 0 487 200zM592 453q-107 113 -107 272v4q0 157 109 272t266 115q158 0 289 -125l-62 -63q-109 106 -229 106q-119 0 -203 -90q-80 -89 -80 -213v-4q0 -125 84 -215t201 -90q124 0 236 106l57 -57q-134 -131 -295 -131q-159 0 -266 113z" />
    <glyph glyph-name="ordfeminine" unicode="&#xaa;" horiz-adv-x="798" 
d="M205 889q-72 54 -72 137v4q0 87 72 141q68 50 182 50q76 0 170 -23v10q0 158 -170 158q-76 0 -180 -49l-27 69q117 54 211 54q118 0 184 -66q58 -58 58 -164v-356h-76v84q-75 -96 -201 -96q-86 0 -151 47zM498 958q59 47 59 115v55q-81 23 -174 23q-79 0 -123 -33
q-45 -33 -45 -84v-4q0 -54 43 -84q42 -31 102 -31q80 0 138 43zM127 600v82h516v-82h-516z" />
    <glyph glyph-name="guillemotleft" unicode="&#xab;" horiz-adv-x="1054" 
d="M850 86l-328 428v16l328 428l76 -49l-281 -385l281 -389zM432 86l-328 428v16l328 428l76 -49l-281 -385l281 -389z" />
    <glyph glyph-name="registered" unicode="&#xae;" horiz-adv-x="851" 
d="M172 842q-102 105 -102 252v2q0 148 104 252q103 106 252 106q150 0 254 -104q102 -105 102 -252v-2q0 -148 -104 -252q-104 -107 -252 -107q-149 0 -254 105zM651 870q90 96 90 226v2q0 130 -90 223q-91 94 -225 94t-225 -94q-90 -96 -90 -225v-2q0 -131 90 -224
q91 -94 225 -94t225 94zM293 924v358h160q133 0 133 -111q0 -81 -88 -108l100 -139h-72l-90 131h-86v-131h-57zM350 1102h96q80 0 80 65q0 64 -80 64h-96v-129z" />
    <glyph glyph-name="macron" unicode="&#xaf;" horiz-adv-x="1024" 
d="M211 1272v96h602v-96h-602z" />
    <glyph glyph-name="degree" unicode="&#xb0;" horiz-adv-x="921" 
d="M246 934q-94 88 -94 209v4q0 121 94 209q93 90 215 90t215 -90q94 -88 94 -209v-4q0 -121 -94 -209q-93 -90 -215 -90t-215 90zM608 997q60 63 60 146v4q0 82 -60 145q-58 64 -147 64q-90 0 -148 -64q-59 -62 -59 -145v-4q0 -84 59 -146q57 -63 148 -63q90 0 147 63z" />
    <glyph glyph-name="plusminus" unicode="&#xb1;" horiz-adv-x="1269" 
d="M1110 733h-424v-416h-102v416h-424v98h424v416h102v-416h424v-98zM1110 0h-950v98h950v-98z" />
    <glyph glyph-name="twosuperior" unicode="&#xb2;" 
d="M125 872v68l305 270q164 144 164 248q0 64 -47 111q-49 43 -121 43q-130 0 -225 -148l-62 37q114 182 293 182q105 0 174 -63q70 -64 70 -158q0 -130 -191 -297l-249 -217h448v-76h-559z" />
    <glyph glyph-name="threesuperior" unicode="&#xb3;" 
d="M113 1004l59 49q94 -129 236 -129q76 0 129 47t53 119t-66 120q-64 43 -164 43h-57l-16 50l272 284h-405v76h508v-66l-263 -274q273 -21 273 -233q0 -101 -80 -172q-78 -66 -186 -66q-181 0 -293 152z" />
    <glyph glyph-name="acute" unicode="&#xb4;" horiz-adv-x="1024" 
d="M397 1219l181 272l124 -61l-219 -211h-86z" />
    <glyph glyph-name="paragraph" unicode="&#xb6;" horiz-adv-x="983" 
d="M682 0v567h-12q-245 0 -400 113q-161 118 -161 319v5q0 199 149 315q145 115 381 115h152v-1434h-109z" />
    <glyph glyph-name="periodcentered" unicode="&#xb7;" horiz-adv-x="471" 
d="M168 522v174h135v-174h-135z" />
    <glyph glyph-name="cedilla" unicode="&#xb8;" horiz-adv-x="1024" 
d="M444 -303l-112 53l184 270h88z" />
    <glyph glyph-name="onesuperior" unicode="&#xb9;" horiz-adv-x="665" 
d="M418 872h-80v721l-184 -69l-19 71l215 82h68v-805z" />
    <glyph glyph-name="ordmasculine" unicode="&#xba;" horiz-adv-x="798" 
d="M186 930q-82 85 -82 209v4q0 121 84 211q87 90 213 90t211 -88q82 -85 82 -209v-4q0 -121 -84 -211q-87 -90 -213 -90t-211 88zM104 600v82h590v-82h-590zM549 985q57 63 57 154v4q0 92 -59 157q-61 64 -150 64t-147 -64q-57 -63 -57 -153v-4q0 -91 59 -156
q62 -65 149 -65q91 0 148 63z" />
    <glyph glyph-name="guillemotright" unicode="&#xbb;" horiz-adv-x="1054" 
d="M623 86l-76 49l280 385l-280 389l76 49l327 -428v-16zM205 86l-76 49l281 385l-281 389l76 49l327 -428v-16z" />
    <glyph glyph-name="onequarter" unicode="&#xbc;" horiz-adv-x="1689" 
d="M1475 182v-186h-76v186h-389l-25 66l397 555h93v-551h112v-70h-112zM287 0l504 729l473 705h88l-504 -729l-473 -705h-88zM408 643h-80v721l-185 -70l-18 72l215 82h68v-805zM1399 252v448l-324 -448h324z" />
    <glyph glyph-name="onehalf" unicode="&#xbd;" horiz-adv-x="1689" 
d="M1016 0v68l305 270q164 144 164 248q0 63 -47 110q-49 43 -121 43q-131 0 -225 -147l-62 37q114 182 293 182q105 0 174 -63q70 -64 70 -158q0 -130 -191 -297l-250 -217h449v-76h-559zM266 0l504 729l473 705h88l-504 -729l-473 -705h-88zM408 643h-80v721l-185 -70
l-18 72l215 82h68v-805z" />
    <glyph glyph-name="threequarters" unicode="&#xbe;" horiz-adv-x="1843" 
d="M1628 182v-186h-76v186h-389l-24 66l397 555h92v-551h113v-70h-113zM113 774l59 49q94 -129 236 -129q76 0 129 47t53 119q0 73 -66 121q-64 43 -164 43h-57l-16 49l272 285h-405v76h508v-66l-263 -274q273 -21 273 -234q0 -101 -80 -172q-77 -65 -186 -65
q-181 0 -293 151zM430 0l504 729l473 705h88l-504 -729l-473 -705h-88zM1552 252v448l-323 -448h323z" />
    <glyph glyph-name="questiondown" unicode="&#xbf;" horiz-adv-x="1093" 
d="M524 1260v174h135v-174h-135zM227 98q-121 115 -121 283v4q0 178 130 293q116 104 305 125l18 256h66l26 -332l-10 -10q-198 -3 -313 -92q-113 -88 -113 -236v-4q0 -128 92 -217q95 -92 248 -92q223 0 395 211l74 -62q-196 -243 -473 -243q-199 0 -324 116z" />
    <glyph glyph-name="Agrave" unicode="&#xc0;" horiz-adv-x="1617" 
d="M90 0l668 1444h102l668 -1444h-117l-182 401h-846l-182 -401h-111zM428 498h756l-377 829zM852 1587h-92l-219 185l121 57z" />
    <glyph glyph-name="Aacute" unicode="&#xc1;" horiz-adv-x="1617" 
d="M90 0l668 1444h102l668 -1444h-117l-182 401h-846l-182 -401h-111zM428 498h756l-377 829zM766 1587l190 242l121 -57l-219 -185h-92z" />
    <glyph glyph-name="Acircumflex" unicode="&#xc2;" horiz-adv-x="1617" 
d="M90 0l668 1444h102l668 -1444h-117l-182 401h-846l-182 -401h-111zM428 498h756l-377 829zM551 1587l211 219h94l211 -219h-111l-149 125l-150 -125h-106z" />
    <glyph glyph-name="Atilde" unicode="&#xc3;" horiz-adv-x="1617" 
d="M90 0l668 1444h102l668 -1444h-117l-182 401h-846l-182 -401h-111zM428 498h756l-377 829zM805 1630q-84 35 -115 35q-61 0 -102 -96l-76 20q52 180 168 180q42 0 143 -43q81 -34 115 -34q62 0 102 94l76 -21q-52 -178 -168 -178q-42 0 -143 43z" />
    <glyph glyph-name="Adieresis" unicode="&#xc4;" horiz-adv-x="1617" 
d="M90 0l668 1444h102l668 -1444h-117l-182 401h-846l-182 -401h-111zM428 498h756l-377 829zM915 1587v156h150v-156h-150zM555 1587v156h152v-156h-152z" />
    <glyph glyph-name="Aring" unicode="&#xc5;" horiz-adv-x="1617" 
d="M90 0l629 1364q-127 47 -127 178q0 82 63 139q65 56 154 56t154 -56q63 -57 63 -139q0 -128 -129 -178l631 -1364h-117l-182 401h-846l-182 -401h-111zM428 498h756l-377 829zM907 1450q41 38 41 92t-41 92q-40 37 -98 37t-98 -37q-41 -38 -41 -92t41 -92q40 -37 98 -37
t98 37z" />
    <glyph glyph-name="AE" unicode="&#xc6;" horiz-adv-x="2140" 
d="M41 0l868 1434h1092v-99h-883v-563h791v-98h-791v-576h893v-98h-999v401h-615l-241 -401h-115zM455 498h557v839h-54z" />
    <glyph glyph-name="Ccedilla" unicode="&#xc7;" horiz-adv-x="1511" 
d="M752 -303l-113 53l156 230q-281 24 -463 233q-182 206 -182 500v4q0 308 202 522q207 219 514 219q310 0 557 -229l-75 -78q-217 211 -484 211q-258 0 -430 -184q-174 -186 -174 -457v-4q0 -273 174 -459t432 -186q268 0 494 223l72 -70q-244 -241 -543 -250z" />
    <glyph glyph-name="Egrave" unicode="&#xc8;" horiz-adv-x="1372" 
d="M213 0v1434h1020v-99h-914v-563h822v-98h-822v-576h924v-98h-1030zM770 1567h-92l-219 184l121 57z" />
    <glyph glyph-name="Eacute" unicode="&#xc9;" horiz-adv-x="1372" 
d="M213 0v1434h1020v-99h-914v-563h822v-98h-822v-576h924v-98h-1030zM684 1567l190 241l121 -57l-219 -184h-92z" />
    <glyph glyph-name="Ecircumflex" unicode="&#xca;" horiz-adv-x="1372" 
d="M213 0v1434h1020v-99h-914v-563h822v-98h-822v-576h924v-98h-1030zM469 1567l211 219h94l211 -219h-111l-149 125l-150 -125h-106z" />
    <glyph glyph-name="Edieresis" unicode="&#xcb;" horiz-adv-x="1372" 
d="M213 0v1434h1020v-99h-914v-563h822v-98h-822v-576h924v-98h-1030zM834 1567v155h149v-155h-149zM473 1567v155h152v-155h-152z" />
    <glyph glyph-name="Igrave" unicode="&#xcc;" horiz-adv-x="561" 
d="M227 0v1434h107v-1434h-107zM324 1567h-93l-219 184l121 57z" />
    <glyph glyph-name="Iacute" unicode="&#xcd;" horiz-adv-x="561" 
d="M227 0v1434h107v-1434h-107zM238 1567l190 241l121 -57l-219 -184h-92z" />
    <glyph glyph-name="Icircumflex" unicode="&#xce;" horiz-adv-x="561" 
d="M227 0v1434h107v-1434h-107zM23 1567l210 219h95l211 -219h-111l-149 125l-150 -125h-106z" />
    <glyph glyph-name="Idieresis" unicode="&#xcf;" horiz-adv-x="561" 
d="M227 0v1434h107v-1434h-107zM387 1567v155h150v-155h-150zM27 1567v155h151v-155h-151z" />
    <glyph glyph-name="Eth" unicode="&#xd0;" horiz-adv-x="1662" 
d="M274 0v672h-153v98h153v664h478q334 0 551 -205q210 -201 210 -508v-4q0 -309 -210 -510q-219 -207 -551 -207h-478zM856 672h-475v-574h371q294 0 475 178q176 176 176 437v4q0 260 -176 436q-182 182 -475 182h-371v-565h475v-98z" />
    <glyph glyph-name="Ntilde" unicode="&#xd1;" horiz-adv-x="1617" 
d="M213 0v1434h100l990 -1248v1248h102v-1434h-80l-1010 1274v-1274h-102zM805 1599q-84 35 -115 35q-61 0 -102 -96l-76 21q52 180 168 180q42 0 143 -43q84 -35 115 -35q62 0 102 94l76 -20q-53 -179 -168 -179q-42 0 -143 43z" />
    <glyph glyph-name="Ograve" unicode="&#xd2;" horiz-adv-x="1740" 
d="M346 197q-196 211 -196 516v4q0 305 198 518q204 223 524 223q317 0 523 -221q196 -211 196 -516v-4q0 -305 -198 -518q-205 -224 -525 -224q-315 0 -522 222zM1309 260q172 184 172 453v4q0 268 -174 454q-176 191 -439 191q-260 0 -436 -188q-172 -184 -172 -453v-4
q0 -269 174 -455q175 -190 438 -190q261 0 437 188zM913 1587h-92l-219 185l121 57z" />
    <glyph glyph-name="Oacute" unicode="&#xd3;" horiz-adv-x="1740" 
d="M346 197q-196 211 -196 516v4q0 305 198 518q204 223 524 223q317 0 523 -221q196 -211 196 -516v-4q0 -305 -198 -518q-205 -224 -525 -224q-315 0 -522 222zM1309 260q172 184 172 453v4q0 268 -174 454q-176 191 -439 191q-260 0 -436 -188q-172 -184 -172 -453v-4
q0 -269 174 -455q175 -190 438 -190q261 0 437 188zM827 1587l191 242l121 -57l-219 -185h-93z" />
    <glyph glyph-name="Ocircumflex" unicode="&#xd4;" horiz-adv-x="1740" 
d="M346 197q-196 211 -196 516v4q0 305 198 518q204 223 524 223q317 0 523 -221q196 -211 196 -516v-4q0 -305 -198 -518q-205 -224 -525 -224q-315 0 -522 222zM1309 260q172 184 172 453v4q0 268 -174 454q-176 191 -439 191q-260 0 -436 -188q-172 -184 -172 -453v-4
q0 -269 174 -455q175 -190 438 -190q261 0 437 188zM612 1587l211 219h95l210 -219h-110l-150 125l-149 -125h-107z" />
    <glyph glyph-name="Otilde" unicode="&#xd5;" horiz-adv-x="1740" 
d="M346 197q-196 211 -196 516v4q0 305 198 518q204 223 524 223q317 0 523 -221q196 -211 196 -516v-4q0 -305 -198 -518q-205 -224 -525 -224q-315 0 -522 222zM1309 260q172 184 172 453v4q0 268 -174 454q-176 191 -439 191q-260 0 -436 -188q-172 -184 -172 -453v-4
q0 -269 174 -455q175 -190 438 -190q261 0 437 188zM866 1630q-84 35 -114 35q-62 0 -103 -96l-76 20q52 180 168 180q43 0 144 -43q81 -34 114 -34q63 0 103 94l76 -21q-52 -178 -168 -178q-43 0 -144 43z" />
    <glyph glyph-name="Odieresis" unicode="&#xd6;" horiz-adv-x="1740" 
d="M346 197q-196 211 -196 516v4q0 305 198 518q204 223 524 223q317 0 523 -221q196 -211 196 -516v-4q0 -305 -198 -518q-205 -224 -525 -224q-315 0 -522 222zM1309 260q172 184 172 453v4q0 268 -174 454q-176 191 -439 191q-260 0 -436 -188q-172 -184 -172 -453v-4
q0 -269 174 -455q175 -190 438 -190q261 0 437 188zM977 1587v156h149v-156h-149zM616 1587v156h152v-156h-152z" />
    <glyph glyph-name="multiply" unicode="&#xd7;" horiz-adv-x="1269" 
d="M1004 279l-371 374l-371 -374l-69 69l374 371l-374 371l73 73l371 -375l371 375l69 -69l-375 -371l375 -371z" />
    <glyph glyph-name="Oslash" unicode="&#xd8;" horiz-adv-x="1740" 
d="M1485 1444h123l-205 -219q188 -206 188 -504v-4q0 -305 -198 -518q-205 -224 -525 -224q-275 0 -467 168l-145 -153h-123l203 217q-186 210 -186 506v4q0 305 198 518q204 223 524 223q270 0 467 -170zM1311 258q172 184 172 455q0 247 -154 436l-860 -926
q167 -153 403 -153q263 0 439 188zM410 285l862 925q-171 154 -404 154q-262 0 -438 -188q-172 -184 -172 -455q0 -252 152 -436z" />
    <glyph glyph-name="Ugrave" unicode="&#xd9;" horiz-adv-x="1556" 
d="M356 137q-166 163 -166 459v838h107v-828q0 -252 129 -393q130 -139 356 -139q223 0 348 131q130 139 130 391v838h106v-826q0 -299 -164 -469q-155 -162 -424 -162q-265 0 -422 160zM821 1556h-92l-219 185l121 57z" />
    <glyph glyph-name="Uacute" unicode="&#xda;" horiz-adv-x="1556" 
d="M356 137q-166 163 -166 459v838h107v-828q0 -252 129 -393q130 -139 356 -139q223 0 348 131q130 139 130 391v838h106v-826q0 -299 -164 -469q-155 -162 -424 -162q-265 0 -422 160zM735 1556l191 242l121 -57l-220 -185h-92z" />
    <glyph glyph-name="Ucircumflex" unicode="&#xdb;" horiz-adv-x="1556" 
d="M356 137q-166 163 -166 459v838h107v-828q0 -252 129 -393q130 -139 356 -139q223 0 348 131q130 139 130 391v838h106v-826q0 -299 -164 -469q-155 -162 -424 -162q-265 0 -422 160zM520 1556l211 220h94l211 -220h-110l-150 125l-149 -125h-107z" />
    <glyph glyph-name="Udieresis" unicode="&#xdc;" horiz-adv-x="1556" 
d="M356 137q-166 163 -166 459v838h107v-828q0 -252 129 -393q130 -139 356 -139q223 0 348 131q130 139 130 391v838h106v-826q0 -299 -164 -469q-155 -162 -424 -162q-265 0 -422 160zM885 1556v156h149v-156h-149zM524 1556v156h152v-156h-152z" />
    <glyph glyph-name="Yacute" unicode="&#xdd;" horiz-adv-x="1466" 
d="M680 0v567l-614 867h133l536 -770l539 770h127l-615 -865v-569h-106zM690 1556l191 242l120 -57l-219 -185h-92z" />
    <glyph glyph-name="Thorn" unicode="&#xde;" horiz-adv-x="1378" 
d="M213 0v1434h106v-260h414q240 0 385 -115q148 -121 148 -324v-4q0 -217 -168 -342q-153 -117 -391 -117h-388v-272h-106zM319 371h394q201 0 323 98q123 95 123 256v4q0 166 -121 258q-113 88 -313 88h-406v-704z" />
    <glyph glyph-name="germandbls" unicode="&#xdf;" horiz-adv-x="1269" 
d="M592 -4v88q440 9 440 299v4q0 266 -440 313v84q348 108 348 359v4q0 114 -84 192q-85 76 -221 76q-153 0 -246 -106q-98 -107 -98 -285v-1024h-101v1024q0 214 121 350q126 135 330 135q184 0 297 -104q111 -102 111 -254v-4q0 -141 -101 -248q-85 -91 -221 -141
q414 -71 414 -367v-4q0 -184 -148 -287q-146 -104 -401 -104z" />
    <glyph glyph-name="Agrave033" unicode="&#xe0;" horiz-adv-x="1175" 
d="M233 57q-129 91 -129 246v4q0 160 127 252q122 88 330 88q182 0 346 -45v45q0 320 -344 320q-161 0 -327 -84l-37 88q197 90 370 90q215 0 330 -115q107 -107 107 -295v-651h-99v174q-141 -199 -399 -199q-162 0 -275 82zM793 160q116 91 116 231v119q-186 47 -354 47
q-165 0 -254 -68q-90 -66 -90 -176v-4q0 -108 92 -176q84 -63 211 -63q163 0 279 90zM545 1219l-219 211l125 61l180 -272h-86z" />
    <glyph glyph-name="Aacute027" unicode="&#xe1;" horiz-adv-x="1175" 
d="M233 57q-129 91 -129 246v4q0 160 127 252q122 88 330 88q182 0 346 -45v45q0 320 -344 320q-161 0 -327 -84l-37 88q197 90 370 90q215 0 330 -115q107 -107 107 -295v-651h-99v174q-141 -199 -399 -199q-162 0 -275 82zM793 160q116 91 116 231v119q-186 47 -354 47
q-165 0 -254 -68q-90 -66 -90 -176v-4q0 -108 92 -176q84 -63 211 -63q163 0 279 90zM545 1219l180 272l125 -61l-219 -211h-86z" />
    <glyph glyph-name="Acircumflex029" unicode="&#xe2;" horiz-adv-x="1175" 
d="M233 57q-129 91 -129 246v4q0 160 127 252q122 88 330 88q182 0 346 -45v45q0 320 -344 320q-161 0 -327 -84l-37 88q197 90 370 90q215 0 330 -115q107 -107 107 -295v-651h-99v174q-141 -199 -399 -199q-162 0 -275 82zM793 160q116 91 116 231v119q-186 47 -354 47
q-165 0 -254 -68q-90 -66 -90 -176v-4q0 -108 92 -176q84 -63 211 -63q163 0 279 90zM342 1219l205 249h82l205 -249h-97l-151 139l-152 -139h-92z" />
    <glyph glyph-name="Atilde038" unicode="&#xe3;" horiz-adv-x="1175" 
d="M233 57q-129 91 -129 246v4q0 160 127 252q122 88 330 88q182 0 346 -45v45q0 320 -344 320q-161 0 -327 -84l-37 88q197 90 370 90q215 0 330 -115q107 -107 107 -295v-651h-99v174q-141 -199 -399 -199q-162 0 -275 82zM793 160q116 91 116 231v119q-186 47 -354 47
q-165 0 -254 -68q-90 -66 -90 -176v-4q0 -108 92 -176q84 -63 211 -63q163 0 279 90zM592 1260q-93 43 -129 43q-62 0 -103 -103l-69 19q52 190 172 190q40 0 133 -41q93 -43 129 -43q61 0 102 102l70 -18q-52 -190 -172 -190q-40 0 -133 41z" />
    <glyph glyph-name="Adieresis030" unicode="&#xe4;" horiz-adv-x="1175" 
d="M233 57q-129 91 -129 246v4q0 160 127 252q122 88 330 88q182 0 346 -45v45q0 320 -344 320q-161 0 -327 -84l-37 88q197 90 370 90q215 0 330 -115q107 -107 107 -295v-651h-99v174q-141 -199 -399 -199q-162 0 -275 82zM793 160q116 91 116 231v119q-186 47 -354 47
q-165 0 -254 -68q-90 -66 -90 -176v-4q0 -108 92 -176q84 -63 211 -63q163 0 279 90zM684 1219v163h141v-163h-141zM350 1219v163h142v-163h-142z" />
    <glyph glyph-name="Aring036" unicode="&#xe5;" horiz-adv-x="1175" 
d="M233 57q-129 91 -129 246v4q0 160 127 252q122 88 330 88q182 0 346 -45v45q0 320 -344 320q-161 0 -327 -84l-37 88q197 90 370 90q215 0 330 -115q107 -107 107 -295v-651h-99v174q-141 -199 -399 -199q-162 0 -275 82zM793 160q116 91 116 231v119q-186 47 -354 47
q-165 0 -254 -68q-90 -66 -90 -176v-4q0 -108 92 -176q84 -63 211 -63q163 0 279 90zM438 1274q-63 60 -63 145q0 86 63 146q62 59 150 59q87 0 149 -59q64 -61 64 -146q0 -84 -64 -145q-63 -60 -149 -60q-87 0 -150 60zM688 1319q43 43 43 100q0 61 -43 101q-40 43 -100 43
q-58 0 -101 -43q-43 -40 -43 -101q0 -57 43 -100t101 -43q60 0 100 43z" />
    <glyph glyph-name="AE031" unicode="&#xe6;" horiz-adv-x="1953" 
d="M229 57q-125 91 -125 246v4q0 161 125 252q119 88 322 88q164 0 328 -45v45q0 320 -330 320q-147 0 -313 -84l-37 88q194 90 356 90q324 0 395 -262q138 270 422 270q213 0 350 -158q129 -153 129 -389q0 -31 -2 -41h-866q15 -189 135 -303q114 -108 275 -108
q205 0 358 163l70 -61q-182 -197 -432 -197q-276 0 -422 230q-199 -230 -469 -230q-159 0 -269 82zM983 571h760q-12 169 -103 283q-102 123 -272 123q-154 0 -262 -117q-108 -114 -123 -289zM922 289q-42 104 -45 223q-187 45 -332 45q-159 0 -248 -68q-86 -65 -86 -176v-4
q0 -111 86 -176q81 -63 207 -63q241 0 418 219z" />
    <glyph glyph-name="Ccedilla041" unicode="&#xe7;" horiz-adv-x="1169" 
d="M539 -303l-113 53l156 230q-200 27 -332 180q-131 155 -131 358v4q0 220 153 383q156 164 379 164q235 0 418 -192l-72 -74q-169 172 -348 172q-180 0 -299 -131q-123 -129 -123 -318v-4q0 -190 125 -321t305 -131q196 0 351 174l69 -62q-174 -198 -401 -207z" />
    <glyph glyph-name="Egrave051" unicode="&#xe8;" horiz-adv-x="1196" 
d="M272 125q-153 156 -153 395v4q0 231 141 387q146 158 354 158q214 0 351 -158q129 -153 129 -389q0 -31 -2 -41h-867q15 -189 135 -303q114 -108 275 -108q205 0 358 163l70 -61q-182 -197 -432 -197q-212 0 -359 150zM225 571h760q-12 170 -102 283q-102 123 -273 123
q-154 0 -262 -117q-108 -114 -123 -289zM571 1219l-219 211l125 61l180 -272h-86z" />
    <glyph glyph-name="Eacute045" unicode="&#xe9;" horiz-adv-x="1196" 
d="M272 125q-153 156 -153 395v4q0 231 141 387q146 158 354 158q214 0 351 -158q129 -153 129 -389q0 -31 -2 -41h-867q15 -189 135 -303q114 -108 275 -108q205 0 358 163l70 -61q-182 -197 -432 -197q-212 0 -359 150zM225 571h760q-12 170 -102 283q-102 123 -273 123
q-154 0 -262 -117q-108 -114 -123 -289zM571 1219l181 272l125 -61l-220 -211h-86z" />
    <glyph glyph-name="Ecircumflex048" unicode="&#xea;" horiz-adv-x="1196" 
d="M272 125q-153 156 -153 395v4q0 231 141 387q146 158 354 158q214 0 351 -158q129 -153 129 -389q0 -31 -2 -41h-867q15 -189 135 -303q114 -108 275 -108q205 0 358 163l70 -61q-182 -197 -432 -197q-212 0 -359 150zM225 571h760q-12 170 -102 283q-102 123 -273 123
q-154 0 -262 -117q-108 -114 -123 -289zM369 1219l204 249h82l205 -249h-96l-152 139l-151 -139h-92z" />
    <glyph glyph-name="Edieresis049" unicode="&#xeb;" horiz-adv-x="1196" 
d="M272 125q-153 156 -153 395v4q0 231 141 387q146 158 354 158q214 0 351 -158q129 -153 129 -389q0 -31 -2 -41h-867q15 -189 135 -303q114 -108 275 -108q205 0 358 163l70 -61q-182 -197 -432 -197q-212 0 -359 150zM225 571h760q-12 170 -102 283q-102 123 -273 123
q-154 0 -262 -117q-108 -114 -123 -289zM711 1219v163h141v-163h-141zM377 1219v163h141v-163h-141z" />
    <glyph glyph-name="Igrave063" unicode="&#xec;" horiz-adv-x="509" 
d="M205 0v1044h100v-1044h-100zM211 1219l-219 211l125 61l180 -272h-86z" />
    <glyph glyph-name="Iacute059" unicode="&#xed;" horiz-adv-x="509" 
d="M205 0v1044h100v-1044h-100zM211 1219l180 272l125 -61l-219 -211h-86z" />
    <glyph glyph-name="Icircumflex061" unicode="&#xee;" horiz-adv-x="509" 
d="M205 0v1044h100v-1044h-100zM8 1219l205 249h82l205 -249h-97l-151 139l-152 -139h-92z" />
    <glyph glyph-name="Idieresis062" unicode="&#xef;" horiz-adv-x="509" 
d="M205 0v1044h100v-1044h-100zM350 1219v163h142v-163h-142zM16 1219v163h142v-163h-142z" />
    <glyph glyph-name="Eth054" unicode="&#xf0;" horiz-adv-x="1308" 
d="M975 1427l-180 -90q393 -384 393 -762v-4q0 -263 -152 -432q-150 -164 -391 -164q-221 0 -373 162q-153 159 -153 385v4q0 228 155 377q144 141 349 141q233 0 409 -176q-84 197 -330 422l-225 -112l-45 73l203 101q-58 53 -176 143h157l111 -96l203 102zM961 199
q118 127 118 321v4q0 187 -123 307q-126 123 -321 123q-182 0 -295 -125q-113 -119 -113 -309v-4q0 -183 123 -315q125 -131 305 -131q186 0 306 129z" />
    <glyph glyph-name="Ntilde075" unicode="&#xf1;" horiz-adv-x="1255" 
d="M190 0v1044h101v-194q127 219 377 219q192 0 307 -121q110 -119 110 -309v-639h-100v621q0 163 -86 258q-88 98 -246 98q-156 0 -258 -105q-104 -107 -104 -268v-604h-101zM641 1260q-93 43 -129 43q-61 0 -102 -103l-70 19q52 190 172 190q40 0 133 -41q93 -43 129 -43
q62 0 103 102l69 -18q-52 -190 -172 -190q-40 0 -133 41z" />
    <glyph glyph-name="Ograve081" unicode="&#xf2;" horiz-adv-x="1310" 
d="M270 137q-151 157 -151 381v4q0 224 153 383q156 164 385 164q231 0 383 -162q152 -158 152 -381v-4q0 -222 -152 -383q-156 -164 -387 -164t-383 162zM963 203q120 129 120 315v4q0 191 -125 322t-305 131q-186 0 -305 -131q-121 -133 -121 -318v-4q0 -190 125 -321
t305 -131q185 0 306 133zM612 1219l-219 211l125 61l180 -272h-86z" />
    <glyph glyph-name="Oacute076" unicode="&#xf3;" horiz-adv-x="1310" 
d="M270 137q-151 157 -151 381v4q0 224 153 383q156 164 385 164q231 0 383 -162q152 -158 152 -381v-4q0 -222 -152 -383q-156 -164 -387 -164t-383 162zM963 203q120 129 120 315v4q0 191 -125 322t-305 131q-186 0 -305 -131q-121 -133 -121 -318v-4q0 -190 125 -321
t305 -131q185 0 306 133zM612 1219l181 272l125 -61l-220 -211h-86z" />
    <glyph glyph-name="Ocircumflex078" unicode="&#xf4;" horiz-adv-x="1310" 
d="M270 137q-151 157 -151 381v4q0 224 153 383q156 164 385 164q231 0 383 -162q152 -158 152 -381v-4q0 -222 -152 -383q-156 -164 -387 -164t-383 162zM963 203q120 129 120 315v4q0 191 -125 322t-305 131q-186 0 -305 -131q-121 -133 -121 -318v-4q0 -190 125 -321
t305 -131q185 0 306 133zM410 1219l204 249h82l205 -249h-96l-152 139l-151 -139h-92z" />
    <glyph glyph-name="Otilde086" unicode="&#xf5;" horiz-adv-x="1310" 
d="M270 137q-151 157 -151 381v4q0 224 153 383q156 164 385 164q231 0 383 -162q152 -158 152 -381v-4q0 -222 -152 -383q-156 -164 -387 -164t-383 162zM963 203q120 129 120 315v4q0 191 -125 322t-305 131q-186 0 -305 -131q-121 -133 -121 -318v-4q0 -190 125 -321
t305 -131q185 0 306 133zM659 1260q-93 43 -129 43q-61 0 -102 -103l-70 19q52 190 172 190q41 0 134 -41q93 -43 129 -43q61 0 102 102l70 -18q-52 -190 -172 -190q-41 0 -134 41z" />
    <glyph glyph-name="Odieresis079" unicode="&#xf6;" horiz-adv-x="1310" 
d="M270 137q-151 157 -151 381v4q0 224 153 383q156 164 385 164q231 0 383 -162q152 -158 152 -381v-4q0 -222 -152 -383q-156 -164 -387 -164t-383 162zM963 203q120 129 120 315v4q0 191 -125 322t-305 131q-186 0 -305 -131q-121 -133 -121 -318v-4q0 -190 125 -321
t305 -131q185 0 306 133zM752 1219v163h141v-163h-141zM418 1219v163h141v-163h-141z" />
    <glyph glyph-name="divide" unicode="&#xf7;" horiz-adv-x="1269" 
d="M553 1024v182h164v-182h-164zM1130 672h-991v98h991v-98zM553 236v182h164v-182h-164z" />
    <glyph glyph-name="Oslash084" unicode="&#xf8;" horiz-adv-x="1310" 
d="M1106 1059h117l-164 -172q133 -154 133 -361v-4q0 -222 -152 -383q-156 -164 -387 -164q-198 0 -342 123l-106 -108h-117l162 168q-131 155 -131 360v4q0 224 153 383q156 164 385 164q199 0 342 -125zM965 201q120 129 120 317q0 174 -100 295l-608 -639
q115 -106 280 -106q184 0 308 133zM322 231l612 637q-121 109 -281 109q-183 0 -307 -133q-121 -130 -121 -318q0 -166 97 -295z" />
    <glyph glyph-name="Ugrave101" unicode="&#xf9;" horiz-adv-x="1255" 
d="M281 96q-111 120 -111 310v638h100v-620q0 -163 86 -258q88 -98 246 -98q157 0 258 104q105 108 105 268v604h100v-1044h-100v195q-127 -220 -377 -220q-192 0 -307 121zM573 1219l-219 211l125 61l180 -272h-86z" />
    <glyph glyph-name="Uacute097" unicode="&#xfa;" horiz-adv-x="1255" 
d="M281 96q-111 120 -111 310v638h100v-620q0 -163 86 -258q88 -98 246 -98q157 0 258 104q105 108 105 268v604h100v-1044h-100v195q-127 -220 -377 -220q-192 0 -307 121zM573 1219l181 272l125 -61l-220 -211h-86z" />
    <glyph glyph-name="Ucircumflex099" unicode="&#xfb;" horiz-adv-x="1255" 
d="M281 96q-111 120 -111 310v638h100v-620q0 -163 86 -258q88 -98 246 -98q157 0 258 104q105 108 105 268v604h100v-1044h-100v195q-127 -220 -377 -220q-192 0 -307 121zM371 1219l204 249h82l205 -249h-96l-152 139l-151 -139h-92z" />
    <glyph glyph-name="Udieresis100" unicode="&#xfc;" horiz-adv-x="1255" 
d="M281 96q-111 120 -111 310v638h100v-620q0 -163 86 -258q88 -98 246 -98q157 0 258 104q105 108 105 268v604h100v-1044h-100v195q-127 -220 -377 -220q-192 0 -307 121zM713 1219v163h141v-163h-141zM379 1219v163h141v-163h-141z" />
    <glyph glyph-name="Yacute110" unicode="&#xfd;" horiz-adv-x="1204" 
d="M631 111l377 933h110l-452 -1081q-125 -297 -349 -297q-107 0 -206 45l34 88q77 -39 179 -39q153 0 258 246l-502 1038h117zM567 1219l181 272l124 -61l-219 -211h-86z" />
    <glyph glyph-name="Thorn096" unicode="&#xfe;" horiz-adv-x="1351" 
d="M190 -328v1823h101v-684q169 258 430 258q202 0 348 -143q160 -157 160 -400v-4q0 -244 -160 -401q-149 -146 -348 -146q-266 0 -430 250v-553h-101zM1001 190q119 122 119 328v4q0 202 -123 328q-117 123 -286 123q-170 0 -295 -125q-131 -131 -131 -324v-4
q0 -194 131 -325q126 -123 295 -123q178 0 290 118z" />
    <glyph glyph-name="Ydieresis112" unicode="&#xff;" horiz-adv-x="1204" 
d="M631 111l377 933h110l-452 -1081q-125 -297 -349 -297q-107 0 -206 45l34 88q77 -39 179 -39q153 0 258 246l-502 1038h117zM707 1219v163h141v-163h-141zM373 1219v163h141v-163h-141z" />
    <glyph glyph-name="Amacron" unicode="&#x100;" horiz-adv-x="1617" 
d="M90 0l668 1444h102l668 -1444h-117l-182 401h-846l-182 -401h-111zM428 498h756l-377 829zM492 1640v101h634v-101h-634z" />
    <glyph glyph-name="Amacron034" unicode="&#x101;" horiz-adv-x="1175" 
d="M233 57q-129 91 -129 246v4q0 160 127 252q122 88 330 88q182 0 346 -45v45q0 320 -344 320q-161 0 -327 -84l-37 88q197 90 370 90q215 0 330 -115q107 -107 107 -295v-651h-99v174q-141 -199 -399 -199q-162 0 -275 82zM793 160q116 91 116 231v119q-186 47 -354 47
q-165 0 -254 -68q-90 -66 -90 -176v-4q0 -108 92 -176q84 -63 211 -63q163 0 279 90zM287 1272v96h602v-96h-602z" />
    <glyph glyph-name="Abreve" unicode="&#x102;" horiz-adv-x="1617" 
d="M90 0l668 1444h102l668 -1444h-117l-182 401h-846l-182 -401h-111zM428 498h756l-377 829zM621 1636q-75 54 -84 152h90q37 -107 182 -107t182 107h90q-9 -98 -84 -152q-74 -53 -188 -53t-188 53z" />
    <glyph glyph-name="Abreve028" unicode="&#x103;" horiz-adv-x="1175" 
d="M233 57q-129 91 -129 246v4q0 160 127 252q122 88 330 88q182 0 346 -45v45q0 320 -344 320q-161 0 -327 -84l-37 88q197 90 370 90q215 0 330 -115q107 -107 107 -295v-651h-99v174q-141 -199 -399 -199q-162 0 -275 82zM793 160q116 91 116 231v119q-186 47 -354 47
q-165 0 -254 -68q-90 -66 -90 -176v-4q0 -108 92 -176q84 -63 211 -63q163 0 279 90zM399 1276q-75 60 -84 168h80q43 -131 193 -131q149 0 192 131h80q-9 -108 -84 -168q-74 -62 -188 -62q-115 0 -189 62z" />
    <glyph glyph-name="Aogonek" unicode="&#x104;" horiz-adv-x="1617" 
d="M1546 -262v-74q-258 9 -258 162q0 90 117 184l-176 391h-846l-182 -401h-111l668 1444h102l668 -1444h-23q-114 -92 -114 -162q0 -85 155 -100zM428 498h756l-377 829z" />
    <glyph glyph-name="Aogonek035" unicode="&#x105;" horiz-adv-x="1175" 
d="M1038 -262v-74q-258 9 -258 162q0 92 127 192v156q-141 -199 -399 -199q-162 0 -275 82q-129 91 -129 246v4q0 160 127 252q122 88 330 88q182 0 346 -45v45q0 320 -344 320q-161 0 -327 -84l-37 88q197 90 370 90q215 0 330 -115q107 -107 107 -295v-651h-9
q-114 -92 -114 -162q0 -85 155 -100zM793 160q116 91 116 231v119q-186 47 -354 47q-165 0 -254 -68q-90 -66 -90 -176v-4q0 -108 92 -176q84 -63 211 -63q163 0 279 90z" />
    <glyph glyph-name="Cacute" unicode="&#x106;" horiz-adv-x="1511" 
d="M352 190q-202 211 -202 523v4q0 308 202 522q207 219 514 219q310 0 557 -229l-75 -78q-217 211 -484 211q-258 0 -430 -184q-174 -186 -174 -457v-4q0 -273 174 -459t432 -186q268 0 494 223l72 -70q-256 -250 -570 -250q-304 0 -510 215zM813 1587l191 242l120 -57
l-219 -185h-92z" />
    <glyph glyph-name="Cacute039" unicode="&#x107;" horiz-adv-x="1169" 
d="M272 137q-153 159 -153 381v4q0 220 153 383q156 164 379 164q235 0 418 -192l-72 -74q-169 172 -348 172q-180 0 -299 -131q-123 -129 -123 -318v-4q0 -190 125 -321t305 -131q196 0 351 174l69 -62q-183 -207 -426 -207q-224 0 -379 162zM598 1219l180 272l125 -61
l-219 -211h-86z" />
    <glyph glyph-name="Cdotaccent" unicode="&#x10a;" horiz-adv-x="1511" 
d="M352 190q-202 211 -202 523v4q0 308 202 522q207 219 514 219q310 0 557 -229l-75 -78q-217 211 -484 211q-258 0 -430 -184q-174 -186 -174 -457v-4q0 -273 174 -459t432 -186q268 0 494 223l72 -70q-256 -250 -570 -250q-304 0 -510 215zM778 1587v156h156v-156h-156z
" />
    <glyph glyph-name="Cdotaccent042" unicode="&#x10b;" horiz-adv-x="1169" 
d="M272 137q-153 159 -153 381v4q0 220 153 383q156 164 379 164q235 0 418 -192l-72 -74q-169 172 -348 172q-180 0 -299 -131q-123 -129 -123 -318v-4q0 -190 125 -321t305 -131q196 0 351 174l69 -62q-183 -207 -426 -207q-224 0 -379 162zM567 1219v165h148v-165h-148z
" />
    <glyph glyph-name="Ccaron" unicode="&#x10c;" horiz-adv-x="1511" 
d="M352 190q-202 211 -202 523v4q0 308 202 522q207 219 514 219q310 0 557 -229l-75 -78q-217 211 -484 211q-258 0 -430 -184q-174 -186 -174 -457v-4q0 -273 174 -459t432 -186q268 0 494 223l72 -70q-256 -250 -570 -250q-304 0 -510 215zM1114 1806l-211 -219h-94
l-211 219h111l149 -125l150 125h106z" />
    <glyph glyph-name="Ccaron040" unicode="&#x10d;" horiz-adv-x="1169" 
d="M272 137q-153 159 -153 381v4q0 220 153 383q156 164 379 164q235 0 418 -192l-72 -74q-169 172 -348 172q-180 0 -299 -131q-123 -129 -123 -318v-4q0 -190 125 -321t305 -131q196 0 351 174l69 -62q-183 -207 -426 -207q-224 0 -379 162zM887 1468l-205 -249h-82
l-205 249h97l151 -139l152 139h92z" />
    <glyph glyph-name="Dcaron" unicode="&#x10e;" horiz-adv-x="1601" 
d="M213 0v1434h477q334 0 551 -205q211 -202 211 -508v-4q0 -308 -211 -510q-219 -207 -551 -207h-477zM690 1335h-371v-1237h371q294 0 475 178q176 176 176 437v4q0 260 -176 436q-182 182 -475 182zM1026 1786l-211 -219h-94l-211 219h111l149 -125l150 125h106z" />
    <glyph glyph-name="Dcaron043" unicode="&#x10f;" horiz-adv-x="1351" 
d="M283 119q-160 157 -160 399v4q0 245 160 402q148 145 348 145q266 0 430 -250v676h100v-1495h-100v233q-169 -258 -430 -258q-201 0 -348 144zM936 197q131 131 131 323v4q0 195 -131 326q-126 123 -295 123q-178 0 -291 -119q-119 -122 -119 -328v-4q0 -201 123 -327
q117 -123 287 -123t295 125zM1305 1190l34 305h125v-6l-100 -299h-59z" />
    <glyph glyph-name="Dcroat" unicode="&#x110;" horiz-adv-x="1662" 
d="M274 0v672h-153v98h153v664h478q334 0 551 -205q210 -201 210 -508v-4q0 -309 -210 -510q-219 -207 -551 -207h-478zM856 672h-475v-574h371q294 0 475 178q176 176 176 437v4q0 260 -176 436q-182 182 -475 182h-371v-565h475v-98z" />
    <glyph glyph-name="Dcroat044" unicode="&#x111;" horiz-adv-x="1351" 
d="M682 1266v92h379v137h100v-137h144v-92h-144v-1266h-100v233q-169 -258 -430 -258q-201 0 -348 144q-160 157 -160 399v4q0 245 160 402q148 145 348 145q266 0 430 -250v447h-379zM936 197q131 131 131 323v4q0 195 -131 326q-126 123 -295 123q-178 0 -291 -119
q-119 -122 -119 -328v-4q0 -201 123 -327q117 -123 287 -123t295 125z" />
    <glyph glyph-name="Emacron" unicode="&#x112;" horiz-adv-x="1372" 
d="M213 0v1434h1020v-99h-914v-563h822v-98h-822v-576h924v-98h-1030zM410 1620v100h634v-100h-634z" />
    <glyph glyph-name="Emacron052" unicode="&#x113;" horiz-adv-x="1196" 
d="M272 125q-153 156 -153 395v4q0 231 141 387q146 158 354 158q214 0 351 -158q129 -153 129 -389q0 -31 -2 -41h-867q15 -189 135 -303q114 -108 275 -108q205 0 358 163l70 -61q-182 -197 -432 -197q-212 0 -359 150zM225 571h760q-12 170 -102 283q-102 123 -273 123
q-154 0 -262 -117q-108 -114 -123 -289zM313 1272v96h602v-96h-602z" />
    <glyph glyph-name="Ebreve" unicode="&#x114;" horiz-adv-x="1372" 
d="M213 0v1434h1020v-99h-914v-563h822v-98h-822v-576h924v-98h-1030zM539 1616q-75 54 -84 151h90q37 -106 182 -106t182 106h90q-9 -97 -84 -151q-74 -53 -188 -53t-188 53z" />
    <glyph glyph-name="Ebreve046" unicode="&#x115;" horiz-adv-x="1196" 
d="M272 125q-153 156 -153 395v4q0 231 141 387q146 158 354 158q214 0 351 -158q129 -153 129 -389q0 -31 -2 -41h-867q15 -189 135 -303q114 -108 275 -108q205 0 358 163l70 -61q-182 -197 -432 -197q-212 0 -359 150zM225 571h760q-12 170 -102 283q-102 123 -273 123
q-154 0 -262 -117q-108 -114 -123 -289zM426 1276q-75 60 -84 168h80q43 -131 192 -131q150 0 193 131h80q-9 -108 -84 -168q-74 -62 -189 -62q-114 0 -188 62z" />
    <glyph glyph-name="Edotaccent" unicode="&#x116;" horiz-adv-x="1372" 
d="M213 0v1434h1020v-99h-914v-563h822v-98h-822v-576h924v-98h-1030zM649 1567v155h156v-155h-156z" />
    <glyph glyph-name="Edotaccent050" unicode="&#x117;" horiz-adv-x="1196" 
d="M272 125q-153 156 -153 395v4q0 231 141 387q146 158 354 158q214 0 351 -158q129 -153 129 -389q0 -31 -2 -41h-867q15 -189 135 -303q114 -108 275 -108q205 0 358 163l70 -61q-182 -197 -432 -197q-212 0 -359 150zM225 571h760q-12 170 -102 283q-102 123 -273 123
q-154 0 -262 -117q-108 -114 -123 -289zM541 1219v165h147v-165h-147z" />
    <glyph glyph-name="Eogonek" unicode="&#x118;" horiz-adv-x="1372" 
d="M213 0v1434h1020v-99h-914v-563h822v-98h-822v-576h924v-98h-43q-115 -92 -115 -162q0 -85 156 -100v-74q-258 9 -258 162q0 86 104 174h-874z" />
    <glyph glyph-name="Eogonek053" unicode="&#x119;" horiz-adv-x="1196" 
d="M993 233l70 -61q-47 -46 -105 -96q-159 -135 -159 -226q0 -97 157 -112v-74q-258 9 -258 172q0 78 78 156q-80 -17 -145 -17q-212 0 -359 150q-153 156 -153 395v4q0 231 141 387q146 158 354 158q214 0 351 -158q129 -153 129 -389q0 -31 -2 -41h-867q15 -189 135 -303
q114 -108 275 -108q205 0 358 163zM225 571h760q-12 170 -102 283q-102 123 -273 123q-154 0 -262 -117q-108 -114 -123 -289z" />
    <glyph glyph-name="Ecaron" unicode="&#x11a;" horiz-adv-x="1372" 
d="M213 0v1434h1020v-99h-914v-563h822v-98h-822v-576h924v-98h-1030zM985 1786l-211 -219h-94l-211 219h111l149 -125l150 125h106z" />
    <glyph glyph-name="Ecaron047" unicode="&#x11b;" horiz-adv-x="1196" 
d="M272 125q-153 156 -153 395v4q0 231 141 387q146 158 354 158q214 0 351 -158q129 -153 129 -389q0 -31 -2 -41h-867q15 -189 135 -303q114 -108 275 -108q205 0 358 163l70 -61q-182 -197 -432 -197q-212 0 -359 150zM225 571h760q-12 170 -102 283q-102 123 -273 123
q-154 0 -262 -117q-108 -114 -123 -289zM860 1468l-205 -249h-82l-204 249h96l151 -139l152 139h92z" />
    <glyph glyph-name="Gbreve" unicode="&#x11e;" horiz-adv-x="1605" 
d="M340 193q-190 205 -190 520v4q0 301 194 516q202 225 514 225q295 0 524 -188l-69 -80q-196 172 -461 172q-256 0 -426 -191q-166 -187 -166 -450v-4q0 -284 164 -463q169 -184 450 -184q264 0 457 163v412h-479v98h582v-553q-244 -215 -564 -215q-330 0 -530 218z
M655 1636q-75 54 -84 152h91q37 -107 182 -107t182 107h90q-9 -98 -84 -152q-74 -53 -188 -53q-115 0 -189 53z" />
    <glyph glyph-name="Gbreve055" unicode="&#x11f;" horiz-adv-x="1351" 
d="M170 -172l59 82q192 -148 422 -148q186 0 295 103q115 109 115 303v151q-168 -241 -436 -241q-198 0 -346 133q-156 144 -156 358v4q0 217 156 361q147 135 346 135q273 0 436 -233v208h100v-882q0 -222 -133 -355q-139 -139 -379 -139q-263 0 -479 160zM932 285
q135 114 135 286v4q0 175 -135 289q-127 109 -297 109q-172 0 -285 -107q-119 -110 -119 -288v-5q0 -170 121 -288q117 -111 283 -111q171 0 297 111zM492 1276q-75 60 -84 168h79q43 -131 193 -131q149 0 192 131h80q-9 -108 -84 -168q-74 -62 -188 -62t-188 62z" />
    <glyph glyph-name="Gdotaccent" unicode="&#x120;" horiz-adv-x="1605" 
d="M340 193q-190 205 -190 520v4q0 301 194 516q202 225 514 225q295 0 524 -188l-69 -80q-196 172 -461 172q-256 0 -426 -191q-166 -187 -166 -450v-4q0 -284 164 -463q169 -184 450 -184q264 0 457 163v412h-479v98h582v-553q-244 -215 -564 -215q-330 0 -530 218z
M766 1587v156h156v-156h-156z" />
    <glyph glyph-name="Gdotaccent057" unicode="&#x121;" horiz-adv-x="1351" 
d="M170 -172l59 82q192 -148 422 -148q186 0 295 103q115 109 115 303v151q-168 -241 -436 -241q-198 0 -346 133q-156 144 -156 358v4q0 217 156 361q147 135 346 135q273 0 436 -233v208h100v-882q0 -222 -133 -355q-139 -139 -379 -139q-263 0 -479 160zM932 285
q135 114 135 286v4q0 175 -135 289q-127 109 -297 109q-172 0 -285 -107q-119 -110 -119 -288v-5q0 -170 121 -288q117 -111 283 -111q171 0 297 111zM606 1219v165h148v-165h-148z" />
    <glyph glyph-name="Gcommaaccent" unicode="&#x122;" horiz-adv-x="1605" 
d="M340 193q-190 205 -190 520v4q0 301 194 516q202 225 514 225q295 0 524 -188l-69 -80q-196 172 -461 172q-256 0 -426 -191q-166 -187 -166 -450v-4q0 -284 164 -463q169 -184 450 -184q264 0 457 163v412h-479v98h582v-553q-244 -215 -564 -215q-330 0 -530 218z
M731 -461l-12 49q121 27 112 115h-63v145h147v-127q0 -155 -184 -182z" />
    <glyph glyph-name="Gcommaaccent056" unicode="&#x123;" horiz-adv-x="1351" 
d="M170 -172l59 82q192 -148 422 -148q186 0 295 103q115 109 115 303v151q-168 -241 -436 -241q-198 0 -346 133q-156 144 -156 358v4q0 217 156 361q147 135 346 135q273 0 436 -233v208h100v-882q0 -222 -133 -355q-139 -139 -379 -139q-263 0 -479 160zM932 285
q135 114 135 286v4q0 175 -135 289q-127 109 -297 109q-172 0 -285 -107q-119 -110 -119 -288v-5q0 -170 121 -288q117 -111 283 -111q171 0 297 111zM791 1528l12 -49q-122 -27 -113 -115h64v-145h-148v127q0 155 185 182z" />
    <glyph glyph-name="Hbar" unicode="&#x126;" horiz-adv-x="1679" 
d="M121 1042v93h153v299h107v-299h917v299h107v-299h154v-93h-154v-1042h-107v662h-917v-662h-107v1042h-153zM381 760h917v282h-917v-282z" />
    <glyph glyph-name="Hbar058" unicode="&#x127;" horiz-adv-x="1255" 
d="M670 1266h-379v-416q127 219 377 219q192 0 307 -121q110 -119 110 -309v-639h-100v621q0 163 -86 258q-88 98 -246 98q-156 0 -258 -105q-104 -107 -104 -268v-604h-101v1266h-143v92h143v137h101v-137h379v-92z" />
    <glyph glyph-name="Itilde" unicode="&#x128;" horiz-adv-x="561" 
d="M227 0v1434h107v-1434h-107zM279 1649q-93 43 -129 43q-62 0 -103 -103l-70 19q52 190 173 190q40 0 133 -41q93 -43 129 -43q61 0 102 103l70 -19q-52 -190 -172 -190q-40 0 -133 41z" />
    <glyph glyph-name="Itilde163" unicode="&#x129;" horiz-adv-x="509" 
d="M205 0v1044h100v-1044h-100zM254 1260q-93 43 -129 43q-61 0 -102 -103l-70 19q52 190 172 190q40 0 133 -41q93 -43 129 -43q61 0 102 102l70 -18q-52 -190 -172 -190q-40 0 -133 41z" />
    <glyph glyph-name="Imacron" unicode="&#x12a;" horiz-adv-x="561" 
d="M227 0v1434h107v-1434h-107zM-37 1620v100h635v-100h-635z" />
    <glyph glyph-name="Imacron064" unicode="&#x12b;" horiz-adv-x="509" 
d="M205 0v1044h100v-1044h-100zM-47 1272v96h602v-96h-602z" />
    <glyph glyph-name="Ibreve" unicode="&#x12c;" horiz-adv-x="561" 
d="M227 0v1434h107v-1434h-107zM92 1616q-75 54 -84 151h90q37 -106 183 -106q145 0 182 106h90q-9 -97 -84 -151q-74 -53 -188 -53q-115 0 -189 53z" />
    <glyph glyph-name="Ibreve060" unicode="&#x12d;" horiz-adv-x="509" 
d="M205 0v1044h100v-1044h-100zM66 1276q-75 60 -84 168h79q43 -131 193 -131q149 0 192 131h80q-9 -108 -84 -168q-74 -62 -188 -62t-188 62z" />
    <glyph glyph-name="Iogonek" unicode="&#x12e;" horiz-adv-x="561" 
d="M367 -262v-74q-258 9 -258 162q0 93 118 186v1422h107v-1434h-8q-115 -92 -115 -162q0 -85 156 -100z" />
    <glyph glyph-name="Iogonek065" unicode="&#x12f;" horiz-adv-x="509" 
d="M340 -262v-74q-258 9 -258 162q0 91 123 190v1028h100v-1044h-6q-115 -92 -115 -162q0 -85 156 -100zM193 1317v137h124v-137h-124z" />
    <glyph glyph-name="Idotaccent" unicode="&#x130;" horiz-adv-x="561" 
d="M227 0v1434h107v-1434h-107zM203 1567v155h155v-155h-155z" />
    <glyph glyph-name="dotlessi" unicode="&#x131;" horiz-adv-x="509" 
d="M205 0v1044h100v-1044h-100z" />
    <glyph glyph-name="Kcommaaccent" unicode="&#x136;" horiz-adv-x="1464" 
d="M213 0v1434h106v-942l914 942h145l-626 -633l653 -801h-139l-590 725l-357 -360v-365h-106zM629 -451l-13 50q122 27 113 114h-63v146h147v-127q0 -156 -184 -183z" />
    <glyph glyph-name="Kcommaaccent066" unicode="&#x137;" horiz-adv-x="1146" 
d="M190 0v1495h101v-1120l647 669h133l-457 -462l471 -582h-127l-413 510l-254 -256v-254h-101zM496 -461l-13 49q122 27 113 115h-64v145h148v-127q0 -155 -184 -182z" />
    <glyph glyph-name="Lacute" unicode="&#x139;" horiz-adv-x="1267" 
d="M213 0v1434h106v-1336h842v-98h-948zM240 1567l190 241l121 -57l-219 -184h-92z" />
    <glyph glyph-name="Lacute067" unicode="&#x13a;" horiz-adv-x="509" 
d="M205 0v1495h100v-1495h-100zM211 1614l190 241l121 -57l-219 -184h-92z" />
    <glyph glyph-name="Lcommaaccent" unicode="&#x13b;" horiz-adv-x="1267" 
d="M213 0v1434h106v-1336h842v-98h-948zM565 -461l-12 49q122 27 113 115h-64v145h148v-127q0 -155 -185 -182z" />
    <glyph glyph-name="Lcommaaccent069" unicode="&#x13c;" horiz-adv-x="509" 
d="M205 0v1495h100v-1495h-100zM141 -461l-12 49q122 27 113 115h-64v145h148v-127q0 -155 -185 -182z" />
    <glyph glyph-name="Lcaron" unicode="&#x13d;" horiz-adv-x="1267" 
d="M213 0v1434h106v-1336h842v-98h-948zM526 1128l35 306h125v-7l-100 -299h-60z" />
    <glyph glyph-name="Lcaron068" unicode="&#x13e;" horiz-adv-x="509" 
d="M205 0v1495h100v-1495h-100zM449 1190l34 305h125v-6l-100 -299h-59z" />
    <glyph glyph-name="Ldot" unicode="&#x13f;" horiz-adv-x="1267" 
d="M862 659v166h148v-166h-148zM213 0v1434h106v-1336h842v-98h-948z" />
    <glyph glyph-name="Ldot070" unicode="&#x140;" horiz-adv-x="632" 
d="M500 666v165h147v-165h-147zM205 0v1495h100v-1495h-100z" />
    <glyph glyph-name="Lslash" unicode="&#x141;" horiz-adv-x="1329" 
d="M766 840l-387 -185v-557h844v-98h-949v604l-153 -72v109l153 72v721h105v-670l387 184v-108z" />
    <glyph glyph-name="Lslash071" unicode="&#x142;" horiz-adv-x="632" 
d="M522 813l-155 -88v-725h-101v670l-155 -86v108l155 86v717h101v-661l155 88v-109z" />
    <glyph glyph-name="Nacute" unicode="&#x143;" horiz-adv-x="1617" 
d="M213 0v1434h100l990 -1248v1248h102v-1434h-80l-1010 1274v-1274h-102zM766 1556l190 242l121 -57l-219 -185h-92z" />
    <glyph glyph-name="Nacute072" unicode="&#x144;" horiz-adv-x="1255" 
d="M190 0v1044h101v-194q127 219 377 219q192 0 307 -121q110 -119 110 -309v-639h-100v621q0 163 -86 258q-88 98 -246 98q-156 0 -258 -105q-104 -107 -104 -268v-604h-101zM594 1219l180 272l125 -61l-219 -211h-86z" />
    <glyph glyph-name="Ncommaaccent" unicode="&#x145;" horiz-adv-x="1617" 
d="M213 0v1434h100l990 -1248v1248h102v-1434h-80l-1010 1274v-1274h-102zM696 -451l-12 50q122 27 113 114h-64v146h148v-127q0 -156 -185 -183z" />
    <glyph glyph-name="Ncommaaccent074" unicode="&#x146;" horiz-adv-x="1255" 
d="M190 0v1044h101v-194q127 219 377 219q192 0 307 -121q110 -119 110 -309v-639h-100v621q0 163 -86 258q-88 98 -246 98q-156 0 -258 -105q-104 -107 -104 -268v-604h-101zM524 -461l-12 49q122 27 113 115h-64v145h148v-127q0 -155 -185 -182z" />
    <glyph glyph-name="Ncaron" unicode="&#x147;" horiz-adv-x="1617" 
d="M213 0v1434h100l990 -1248v1248h102v-1434h-80l-1010 1274v-1274h-102zM1067 1776l-211 -220h-94l-211 220h111l149 -125l150 125h106z" />
    <glyph glyph-name="Ncaron073" unicode="&#x148;" horiz-adv-x="1255" 
d="M190 0v1044h101v-194q127 219 377 219q192 0 307 -121q110 -119 110 -309v-639h-100v621q0 163 -86 258q-88 98 -246 98q-156 0 -258 -105q-104 -107 -104 -268v-604h-101zM883 1468l-205 -249h-82l-205 249h96l152 -139l152 139h92z" />
    <glyph glyph-name="Omacron" unicode="&#x14c;" horiz-adv-x="1740" 
d="M346 197q-196 211 -196 516v4q0 305 198 518q204 223 524 223q317 0 523 -221q196 -211 196 -516v-4q0 -305 -198 -518q-205 -224 -525 -224q-315 0 -522 222zM1309 260q172 184 172 453v4q0 268 -174 454q-176 191 -439 191q-260 0 -436 -188q-172 -184 -172 -453v-4
q0 -269 174 -455q175 -190 438 -190q261 0 437 188zM553 1640v101h635v-101h-635z" />
    <glyph glyph-name="Omacron083" unicode="&#x14d;" horiz-adv-x="1310" 
d="M270 137q-151 157 -151 381v4q0 224 153 383q156 164 385 164q231 0 383 -162q152 -158 152 -381v-4q0 -222 -152 -383q-156 -164 -387 -164t-383 162zM963 203q120 129 120 315v4q0 191 -125 322t-305 131q-186 0 -305 -131q-121 -133 -121 -318v-4q0 -190 125 -321
t305 -131q185 0 306 133zM354 1272v96h602v-96h-602z" />
    <glyph glyph-name="Obreve" unicode="&#x14e;" horiz-adv-x="1740" 
d="M346 197q-196 211 -196 516v4q0 305 198 518q204 223 524 223q317 0 523 -221q196 -211 196 -516v-4q0 -305 -198 -518q-205 -224 -525 -224q-315 0 -522 222zM1309 260q172 184 172 453v4q0 268 -174 454q-176 191 -439 191q-260 0 -436 -188q-172 -184 -172 -453v-4
q0 -269 174 -455q175 -190 438 -190q261 0 437 188zM682 1636q-75 54 -84 152h90q37 -107 182 -107q146 0 183 107h90q-9 -98 -84 -152q-74 -53 -189 -53q-114 0 -188 53z" />
    <glyph glyph-name="Obreve077" unicode="&#x14f;" horiz-adv-x="1310" 
d="M270 137q-151 157 -151 381v4q0 224 153 383q156 164 385 164q231 0 383 -162q152 -158 152 -381v-4q0 -222 -152 -383q-156 -164 -387 -164t-383 162zM963 203q120 129 120 315v4q0 191 -125 322t-305 131q-186 0 -305 -131q-121 -133 -121 -318v-4q0 -190 125 -321
t305 -131q185 0 306 133zM467 1276q-75 60 -84 168h80q43 -131 192 -131q150 0 193 131h80q-9 -108 -84 -168q-74 -62 -189 -62q-114 0 -188 62z" />
    <glyph glyph-name="Ohungarumlaut" unicode="&#x150;" horiz-adv-x="1740" 
d="M346 197q-196 211 -196 516v4q0 305 198 518q204 223 524 223q317 0 523 -221q196 -211 196 -516v-4q0 -305 -198 -518q-205 -224 -525 -224q-315 0 -522 222zM1309 260q172 184 172 453v4q0 268 -174 454q-176 191 -439 191q-260 0 -436 -188q-172 -184 -172 -453v-4
q0 -269 174 -455q175 -190 438 -190q261 0 437 188zM664 1587l190 242l121 -57l-219 -185h-92zM950 1587l191 242l121 -57l-220 -185h-92z" />
    <glyph glyph-name="Ohungarumlaut082" unicode="&#x151;" horiz-adv-x="1310" 
d="M270 137q-151 157 -151 381v4q0 224 153 383q156 164 385 164q231 0 383 -162q152 -158 152 -381v-4q0 -222 -152 -383q-156 -164 -387 -164t-383 162zM963 203q120 129 120 315v4q0 191 -125 322t-305 131q-186 0 -305 -131q-121 -133 -121 -318v-4q0 -190 125 -321
t305 -131q185 0 306 133zM735 1219l183 272l112 -59l-207 -213h-88zM457 1219l182 272l113 -59l-207 -213h-88z" />
    <glyph glyph-name="OE" unicode="&#x152;" horiz-adv-x="2359" 
d="M2230 0h-1319q-335 0 -549 205q-212 203 -212 508v4q0 307 212 510q216 207 549 207h1309v-99h-883v-563h791v-98h-791v-576h893v-98zM911 98h320v1237h-320q-294 0 -475 -178q-176 -176 -176 -436v-4q0 -260 176 -436q183 -183 475 -183z" />
    <glyph glyph-name="OE080" unicode="&#x153;" horiz-adv-x="2160" 
d="M270 137q-151 157 -151 381v4q0 224 153 383q156 164 383 164q159 0 293 -90q126 -85 187 -229q60 148 174 231q119 88 272 88q214 0 348 -158q129 -153 129 -389q0 -31 -2 -41h-866q15 -189 135 -303q114 -108 274 -108q206 0 359 163l70 -61q-182 -197 -429 -197
q-151 0 -278 86q-128 90 -186 236q-60 -140 -189 -231q-136 -91 -295 -91q-226 0 -381 162zM1190 571h760q-12 169 -103 283q-102 123 -272 123q-154 0 -262 -117q-108 -114 -123 -289zM963 203q120 129 120 315v4q0 191 -125 322t-305 131q-186 0 -305 -131
q-121 -133 -121 -318v-4q0 -190 125 -321t305 -131q185 0 306 133z" />
    <glyph glyph-name="Racute" unicode="&#x154;" horiz-adv-x="1480" 
d="M213 0v1434h602q262 0 404 -142q108 -108 108 -266v-4q0 -176 -119 -283q-109 -100 -301 -127l473 -612h-135l-457 594h-469v-594h-106zM319 690h484q184 0 299 86q119 88 119 242v4q0 146 -109 229q-110 84 -303 84h-490v-645zM676 1567l190 241l121 -57l-219 -184h-92z
" />
    <glyph glyph-name="Racute087" unicode="&#x155;" 
d="M190 0v1044h101v-296q64 144 184 229q128 90 279 84v-111h-11q-190 0 -317 -133q-135 -144 -135 -389v-428h-101zM389 1219l180 272l125 -61l-219 -211h-86z" />
    <glyph glyph-name="Rcommaaccent" unicode="&#x156;" horiz-adv-x="1480" 
d="M213 0v1434h602q262 0 404 -142q108 -108 108 -266v-4q0 -176 -119 -283q-109 -100 -301 -127l473 -612h-135l-457 594h-469v-594h-106zM319 690h484q184 0 299 86q119 88 119 242v4q0 146 -109 229q-110 84 -303 84h-490v-645zM606 -451l-12 50q122 27 113 114h-64v146
h148v-127q0 -156 -185 -183z" />
    <glyph glyph-name="Rcommaaccent089" unicode="&#x157;" 
d="M190 0v1044h101v-296q64 144 184 229q128 90 279 84v-111h-11q-190 0 -317 -133q-135 -144 -135 -389v-428h-101zM145 -461l-12 49q122 27 113 115h-64v145h148v-127q0 -155 -185 -182z" />
    <glyph glyph-name="Rcaron" unicode="&#x158;" horiz-adv-x="1480" 
d="M213 0v1434h602q262 0 404 -142q108 -108 108 -266v-4q0 -176 -119 -283q-109 -100 -301 -127l473 -612h-135l-457 594h-469v-594h-106zM319 690h484q184 0 299 86q119 88 119 242v4q0 146 -109 229q-110 84 -303 84h-490v-645zM977 1786l-211 -219h-94l-211 219h110
l150 -125l149 125h107z" />
    <glyph glyph-name="Rcaron088" unicode="&#x159;" 
d="M190 0v1044h101v-296q64 144 184 229q128 90 279 84v-111h-11q-190 0 -317 -133q-135 -144 -135 -389v-428h-101zM678 1468l-205 -249h-82l-205 249h97l151 -139l152 139h92z" />
    <glyph glyph-name="Sacute" unicode="&#x15a;" horiz-adv-x="1310" 
d="M121 209l69 80q233 -213 515 -213q161 0 262 82q100 78 100 202v5q0 119 -80 184q-90 75 -325 121q-257 52 -371 147q-113 91 -113 256v4q0 162 131 269q132 108 330 108q275 0 491 -174l-67 -84q-186 162 -428 162q-154 0 -254 -80q-96 -78 -96 -191v-4q0 -122 82 -186
q93 -78 335 -127q250 -53 361 -145q111 -91 111 -250v-4q0 -170 -134 -283q-132 -108 -342 -108q-324 0 -577 229zM629 1587l190 242l121 -57l-219 -185h-92z" />
    <glyph glyph-name="Sacute090" unicode="&#x15b;" horiz-adv-x="1017" 
d="M100 131l60 80q177 -137 375 -137q107 0 178 53q73 58 73 145v4q0 83 -84 136q-53 31 -192 73q-177 53 -244 93q-114 70 -114 194v4q0 126 96 207q94 82 248 82q196 0 370 -115l-53 -84q-156 105 -321 105q-110 0 -173 -51q-65 -53 -65 -132v-4q0 -76 90 -129
q48 -30 201 -73q163 -46 235 -95q109 -77 109 -198v-4q0 -139 -105 -224q-100 -81 -256 -81q-239 0 -428 151zM473 1219l180 272l125 -61l-219 -211h-86z" />
    <glyph glyph-name="Scedilla" unicode="&#x15e;" horiz-adv-x="1310" 
d="M590 -303l-113 53l158 232q-282 21 -514 227l69 80q233 -213 515 -213q161 0 262 82q100 78 100 202v5q0 119 -80 184q-90 75 -325 121q-257 52 -371 147q-113 91 -113 256v4q0 162 131 269q132 108 330 108q275 0 491 -174l-67 -84q-186 162 -428 162q-154 0 -254 -80
q-96 -78 -96 -191v-4q0 -122 82 -186q93 -78 335 -127q250 -53 361 -145q111 -91 111 -250v-4q0 -168 -125 -275q-123 -105 -320 -114z" />
    <glyph glyph-name="Scedilla092" unicode="&#x15f;" horiz-adv-x="1017" 
d="M408 -303l-113 53l160 234q-208 27 -355 147l60 80q177 -137 375 -137q107 0 178 53q73 58 73 145v4q0 83 -84 136q-53 31 -192 73q-177 53 -244 93q-114 70 -114 194v4q0 126 96 207q94 82 248 82q196 0 370 -115l-53 -84q-156 105 -321 105q-110 0 -173 -51
q-65 -53 -65 -132v-4q0 -76 90 -129q48 -30 201 -73q163 -46 235 -95q109 -77 109 -198v-4q0 -135 -98 -217q-94 -82 -244 -88z" />
    <glyph glyph-name="Scaron" unicode="&#x160;" horiz-adv-x="1310" 
d="M121 209l69 80q233 -213 515 -213q161 0 262 82q100 78 100 202v5q0 119 -80 184q-90 75 -325 121q-257 52 -371 147q-113 91 -113 256v4q0 162 131 269q132 108 330 108q275 0 491 -174l-67 -84q-186 162 -428 162q-154 0 -254 -80q-96 -78 -96 -191v-4q0 -122 82 -186
q93 -78 335 -127q250 -53 361 -145q111 -91 111 -250v-4q0 -170 -134 -283q-132 -108 -342 -108q-324 0 -577 229zM930 1806l-211 -219h-94l-211 219h110l150 -125l149 125h107z" />
    <glyph glyph-name="Scaron091" unicode="&#x161;" horiz-adv-x="1017" 
d="M100 131l60 80q177 -137 375 -137q107 0 178 53q73 58 73 145v4q0 83 -84 136q-53 31 -192 73q-177 53 -244 93q-114 70 -114 194v4q0 126 96 207q94 82 248 82q196 0 370 -115l-53 -84q-156 105 -321 105q-110 0 -173 -51q-65 -53 -65 -132v-4q0 -76 90 -129
q48 -30 201 -73q163 -46 235 -95q109 -77 109 -198v-4q0 -139 -105 -224q-100 -81 -256 -81q-239 0 -428 151zM762 1468l-205 -249h-82l-205 249h97l151 -139l152 139h92z" />
    <glyph glyph-name="Tcedilla" unicode="&#x162;" horiz-adv-x="1327" 
d="M610 0v1335h-499v99h1106v-99h-500v-1335h-107zM551 -461l-12 49q121 27 112 115h-63v145h147v-127q0 -155 -184 -182z" />
    <glyph glyph-name="Tcedilla095" unicode="&#x163;" 
d="M332 51q-86 77 -86 217v684h-152v92h152v334h100v-334h367v-92h-367v-673q0 -203 209 -203q73 0 154 37v-95q-76 -36 -170 -36q-132 0 -207 69zM350 -461l-12 49q122 27 113 115h-64v145h148v-127q0 -155 -185 -182z" />
    <glyph glyph-name="Tcaron" unicode="&#x164;" horiz-adv-x="1327" 
d="M610 0v1335h-499v99h1106v-99h-500v-1335h-107zM922 1786l-211 -219h-95l-210 219h110l150 -125l149 125h107z" />
    <glyph glyph-name="Tcaron094" unicode="&#x165;" 
d="M332 51q-86 77 -86 217v684h-152v92h152v334h100v-334h367v-92h-367v-673q0 -203 209 -203q73 0 154 37v-95q-76 -36 -170 -36q-132 0 -207 69zM537 1190l34 305h125v-6l-100 -299h-59z" />
    <glyph glyph-name="Utilde" unicode="&#x168;" horiz-adv-x="1556" 
d="M356 137q-166 163 -166 459v838h107v-828q0 -252 129 -393q130 -139 356 -139q223 0 348 131q130 139 130 391v838h106v-826q0 -299 -164 -469q-155 -162 -424 -162q-265 0 -422 160zM776 1649q-93 43 -129 43q-61 0 -102 -103l-70 19q52 190 172 190q40 0 133 -41
q93 -43 129 -43q62 0 103 103l69 -19q-52 -190 -172 -190q-40 0 -133 41z" />
    <glyph glyph-name="Utilde117" unicode="&#x169;" horiz-adv-x="1255" 
d="M281 96q-111 120 -111 310v638h100v-620q0 -163 86 -258q88 -98 246 -98q157 0 258 104q105 108 105 268v604h100v-1044h-100v195q-127 -220 -377 -220q-192 0 -307 121zM616 1260q-93 43 -129 43q-61 0 -102 -103l-70 19q52 190 172 190q41 0 134 -41q93 -43 129 -43
q62 0 102 102l70 -18q-52 -190 -172 -190q-41 0 -134 41z" />
    <glyph glyph-name="Umacron" unicode="&#x16a;" horiz-adv-x="1556" 
d="M356 137q-166 163 -166 459v838h107v-828q0 -252 129 -393q130 -139 356 -139q223 0 348 131q130 139 130 391v838h106v-826q0 -299 -164 -469q-155 -162 -424 -162q-265 0 -422 160zM461 1610v100h635v-100h-635z" />
    <glyph glyph-name="Umacron103" unicode="&#x16b;" horiz-adv-x="1255" 
d="M281 96q-111 120 -111 310v638h100v-620q0 -163 86 -258q88 -98 246 -98q157 0 258 104q105 108 105 268v604h100v-1044h-100v195q-127 -220 -377 -220q-192 0 -307 121zM315 1272v96h603v-96h-603z" />
    <glyph glyph-name="Ubreve" unicode="&#x16c;" horiz-adv-x="1556" 
d="M356 137q-166 163 -166 459v838h107v-828q0 -252 129 -393q130 -139 356 -139q223 0 348 131q130 139 130 391v838h106v-826q0 -299 -164 -469q-155 -162 -424 -162q-265 0 -422 160zM590 1606q-75 54 -84 151h90q37 -106 182 -106q146 0 183 106h90q-9 -97 -84 -151
q-76 -54 -189 -54q-112 0 -188 54z" />
    <glyph glyph-name="Ubreve098" unicode="&#x16d;" horiz-adv-x="1255" 
d="M281 96q-111 120 -111 310v638h100v-620q0 -163 86 -258q88 -98 246 -98q157 0 258 104q105 108 105 268v604h100v-1044h-100v195q-127 -220 -377 -220q-192 0 -307 121zM428 1276q-75 60 -84 168h80q43 -131 192 -131q150 0 193 131h80q-9 -108 -84 -168
q-74 -62 -189 -62q-114 0 -188 62z" />
    <glyph glyph-name="Uring" unicode="&#x16e;" horiz-adv-x="1556" 
d="M356 137q-166 163 -166 459v838h107v-828q0 -252 129 -393q130 -139 356 -139q223 0 348 131q130 139 130 391v838h106v-826q0 -299 -164 -469q-155 -162 -424 -162q-265 0 -422 160zM625 1587q-64 58 -64 139q0 82 64 140q64 55 153 55q90 0 154 -55q63 -57 63 -140
q0 -82 -63 -139q-64 -55 -154 -55q-89 0 -153 55zM877 1634q41 38 41 92q0 55 -41 93q-39 36 -99 36q-59 0 -98 -36q-41 -38 -41 -93q0 -54 41 -92q40 -37 98 -37q59 0 99 37z" />
    <glyph glyph-name="Uring105" unicode="&#x16f;" horiz-adv-x="1255" 
d="M281 96q-111 120 -111 310v638h100v-620q0 -163 86 -258q88 -98 246 -98q157 0 258 104q105 108 105 268v604h100v-1044h-100v195q-127 -220 -377 -220q-192 0 -307 121zM467 1253q-64 61 -64 146q0 84 64 145q63 60 149 60q87 0 150 -60t63 -145q0 -86 -63 -146
q-62 -59 -150 -59q-87 0 -149 59zM717 1298q43 43 43 101q0 60 -43 100q-40 43 -101 43q-57 0 -100 -43q-43 -40 -43 -100q0 -58 43 -101t100 -43q61 0 101 43z" />
    <glyph glyph-name="Uhungarumlaut" unicode="&#x170;" horiz-adv-x="1556" 
d="M356 137q-166 163 -166 459v838h107v-828q0 -252 129 -393q130 -139 356 -139q223 0 348 131q130 139 130 391v838h106v-826q0 -299 -164 -469q-155 -162 -424 -162q-265 0 -422 160zM571 1556l191 242l121 -57l-219 -185h-93zM858 1556l191 242l120 -57l-219 -185h-92z
" />
    <glyph glyph-name="Uhungarumlaut102" unicode="&#x171;" horiz-adv-x="1255" 
d="M281 96q-111 120 -111 310v638h100v-620q0 -163 86 -258q88 -98 246 -98q157 0 258 104q105 108 105 268v604h100v-1044h-100v195q-127 -220 -377 -220q-192 0 -307 121zM696 1219l183 272l112 -59l-207 -213h-88zM418 1219l182 272l113 -59l-207 -213h-88z" />
    <glyph glyph-name="Uogonek" unicode="&#x172;" horiz-adv-x="1556" 
d="M895 -262v-74q-258 9 -258 162q0 80 82 156q-240 15 -381 174q-148 165 -148 440v838h107v-828q0 -252 129 -393q130 -139 356 -139q223 0 348 131q130 139 130 391v838h106v-826q0 -286 -147 -452q-146 -161 -390 -176q-90 -78 -90 -142q0 -85 156 -100z" />
    <glyph glyph-name="Uogonek104" unicode="&#x173;" horiz-adv-x="1255" 
d="M1098 -262v-74q-258 9 -258 162q0 96 125 190v179q-127 -220 -377 -220q-192 0 -307 121q-111 120 -111 310v638h100v-620q0 -163 86 -258q88 -98 246 -98q157 0 258 104q105 108 105 268v604h100v-1044h-8q-115 -92 -115 -162q0 -85 156 -100z" />
    <glyph glyph-name="Wcircumflex" unicode="&#x174;" horiz-adv-x="2256" 
d="M623 -10l-521 1444h119l451 -1276l420 1280h82l419 -1280l451 1276h110l-520 -1444h-86l-420 1245l-419 -1245h-86zM870 1567l211 219h95l210 -219h-110l-150 125l-149 -125h-107z" />
    <glyph glyph-name="Wcircumflex107" unicode="&#x175;" horiz-adv-x="1763" 
d="M483 -8l-383 1052h113l315 -917l316 922h80l315 -922l315 917h109l-383 -1052h-86l-311 895l-314 -895h-86zM635 1219l205 249h82l204 -249h-96l-151 139l-152 -139h-92z" />
    <glyph glyph-name="Ycircumflex" unicode="&#x176;" horiz-adv-x="1466" 
d="M680 0v567l-614 867h133l536 -770l539 770h127l-615 -865v-569h-106zM475 1556l211 220h94l211 -220h-110l-150 125l-149 -125h-107z" />
    <glyph glyph-name="Ycircumflex111" unicode="&#x177;" horiz-adv-x="1204" 
d="M631 111l377 933h110l-452 -1081q-125 -297 -349 -297q-107 0 -206 45l34 88q77 -39 179 -39q153 0 258 246l-502 1038h117zM365 1219l204 249h82l205 -249h-96l-152 139l-151 -139h-92z" />
    <glyph glyph-name="Ydieresis" unicode="&#x178;" horiz-adv-x="1466" 
d="M680 0v567l-614 867h133l536 -770l539 770h127l-615 -865v-569h-106zM840 1556v156h149v-156h-149zM479 1556v156h152v-156h-152z" />
    <glyph glyph-name="Zacute" unicode="&#x179;" horiz-adv-x="1409" 
d="M139 0v59l981 1278h-946v97h1098v-60l-981 -1278h981v-96h-1133zM680 1567l190 241l121 -57l-219 -184h-92z" />
    <glyph glyph-name="Zacute114" unicode="&#x17a;" horiz-adv-x="1134" 
d="M119 0v57l753 897h-725v90h875v-57l-754 -897h754v-90h-903zM535 1219l180 272l125 -61l-219 -211h-86z" />
    <glyph glyph-name="Zdotaccent" unicode="&#x17b;" horiz-adv-x="1409" 
d="M139 0v59l981 1278h-946v97h1098v-60l-981 -1278h981v-96h-1133zM645 1567v155h156v-155h-156z" />
    <glyph glyph-name="Zdotaccent116" unicode="&#x17c;" horiz-adv-x="1134" 
d="M119 0v57l753 897h-725v90h875v-57l-754 -897h754v-90h-903zM504 1219v165h147v-165h-147z" />
    <glyph glyph-name="Zcaron" unicode="&#x17d;" horiz-adv-x="1409" 
d="M139 0v59l981 1278h-946v97h1098v-60l-981 -1278h981v-96h-1133zM981 1786l-211 -219h-94l-211 219h110l150 -125l149 125h107z" />
    <glyph glyph-name="Zcaron115" unicode="&#x17e;" horiz-adv-x="1134" 
d="M119 0v57l753 897h-725v90h875v-57l-754 -897h754v-90h-903zM823 1468l-205 -249h-81l-205 249h96l152 -139l151 139h92z" />
    <glyph glyph-name="florin" unicode="&#x192;" horiz-adv-x="1036" 
d="M84 -2v90q36 -8 94 -8q138 0 168 168l100 538h-223v93h240l53 278q56 287 293 287q83 0 154 -21v-90q-83 21 -144 21q-156 0 -194 -203l-52 -272h318v-93h-334l-102 -544q-49 -252 -271 -252q-53 0 -100 8z" />
    <glyph glyph-name="Ohorn" unicode="&#x1a0;" horiz-adv-x="1740" 
d="M1309 260q172 184 172 453v4q0 268 -174 454q-176 191 -439 191q-260 0 -436 -188q-172 -184 -172 -453v-4q0 -269 174 -455q175 -190 438 -190q261 0 437 188zM1421 1206q170 -203 170 -485v-4q0 -305 -198 -518q-205 -224 -525 -224q-315 0 -522 222q-196 211 -196 516
v4q0 305 198 518q204 223 524 223q290 0 482 -180q88 37 82 154h96q15 -158 -111 -226z" />
    <glyph glyph-name="Ohorn118" unicode="&#x1a1;" horiz-adv-x="1310" 
d="M963 203q120 129 120 315v4q0 191 -125 322t-305 131q-186 0 -305 -131q-121 -133 -121 -318v-4q0 -190 125 -321t305 -131q185 0 306 133zM1112 815q80 -127 80 -289v-4q0 -222 -152 -383q-156 -164 -387 -164t-383 162q-151 157 -151 381v4q0 224 153 383
q156 164 385 164q231 0 383 -162q13 -13 15 -16q90 38 84 156h96q15 -167 -123 -232z" />
    <glyph glyph-name="Uhorn" unicode="&#x1af;" horiz-adv-x="1556" 
d="M1366 1184v-576q0 -299 -164 -469q-155 -162 -424 -162q-265 0 -422 160q-166 163 -166 459v838h107v-828q0 -252 129 -393q130 -139 356 -139q223 0 348 131q130 139 130 391v838h106v-150q76 40 70 148h96q18 -190 -166 -248z" />
    <glyph glyph-name="Uhorn119" unicode="&#x1b0;" horiz-adv-x="1255" 
d="M1065 797v-797h-100v195q-127 -220 -377 -220q-192 0 -307 121q-111 120 -111 310v638h100v-620q0 -163 86 -258q88 -98 246 -98q157 0 258 104q105 108 105 268v604h100v-147q80 38 74 150h96q18 -191 -170 -250z" />
    <glyph glyph-name="Aringacute" unicode="&#x1fa;" horiz-adv-x="1617" 
d="M90 0l629 1364q-127 47 -127 178q0 82 63 139q65 56 154 56t154 -56q63 -57 63 -139q0 -128 -129 -178l631 -1364h-117l-182 401h-846l-182 -401h-111zM428 498h756l-377 829zM907 1450q41 38 41 92t-41 92q-40 37 -98 37t-98 -37q-41 -38 -41 -92t41 -92q40 -37 98 -37
t98 37zM760 1798l190 221l117 -57l-215 -164h-92z" />
    <glyph glyph-name="Aringacute037" unicode="&#x1fb;" horiz-adv-x="1175" 
d="M543 1679l182 242l121 -61l-213 -181h-90zM233 57q-129 91 -129 246v4q0 160 127 252q122 88 330 88q182 0 346 -45v45q0 320 -344 320q-161 0 -327 -84l-37 88q197 90 370 90q215 0 330 -115q107 -107 107 -295v-651h-99v174q-141 -199 -399 -199q-162 0 -275 82z
M793 160q116 91 116 231v119q-186 47 -354 47q-165 0 -254 -68q-90 -66 -90 -176v-4q0 -108 92 -176q84 -63 211 -63q163 0 279 90zM438 1274q-63 60 -63 145q0 86 63 146q62 59 150 59q87 0 149 -59q64 -61 64 -146q0 -84 -64 -145q-63 -60 -149 -60q-87 0 -150 60z
M688 1319q43 43 43 100q0 61 -43 101q-40 43 -100 43q-58 0 -101 -43q-43 -40 -43 -101q0 -57 43 -100t101 -43q60 0 100 43z" />
    <glyph glyph-name="AEacute" unicode="&#x1fc;" horiz-adv-x="2140" 
d="M41 0l868 1434h1092v-99h-883v-563h791v-98h-791v-576h893v-98h-999v401h-615l-241 -401h-115zM455 498h557v839h-54zM1255 1567l191 241l121 -57l-219 -184h-93z" />
    <glyph glyph-name="AEacute032" unicode="&#x1fd;" horiz-adv-x="1953" 
d="M229 57q-125 91 -125 246v4q0 161 125 252q119 88 322 88q164 0 328 -45v45q0 320 -330 320q-147 0 -313 -84l-37 88q194 90 356 90q324 0 395 -262q138 270 422 270q213 0 350 -158q129 -153 129 -389q0 -31 -2 -41h-866q15 -189 135 -303q114 -108 275 -108
q205 0 358 163l70 -61q-182 -197 -432 -197q-276 0 -422 230q-199 -230 -469 -230q-159 0 -269 82zM983 571h760q-12 169 -103 283q-102 123 -272 123q-154 0 -262 -117q-108 -114 -123 -289zM922 289q-42 104 -45 223q-187 45 -332 45q-159 0 -248 -68q-86 -65 -86 -176v-4
q0 -111 86 -176q81 -63 207 -63q241 0 418 219zM934 1219l180 272l125 -61l-219 -211h-86z" />
    <glyph glyph-name="Oslashacute" unicode="&#x1fe;" horiz-adv-x="1740" 
d="M1485 1444h123l-205 -219q188 -206 188 -504v-4q0 -305 -198 -518q-205 -224 -525 -224q-275 0 -467 168l-145 -153h-123l203 217q-186 210 -186 506v4q0 305 198 518q204 223 524 223q270 0 467 -170zM1311 258q172 184 172 455q0 247 -154 436l-860 -926
q167 -153 403 -153q263 0 439 188zM410 285l862 925q-171 154 -404 154q-262 0 -438 -188q-172 -184 -172 -455q0 -252 152 -436zM827 1587l191 242l121 -57l-219 -185h-93z" />
    <glyph glyph-name="Oslashacute085" unicode="&#x1ff;" horiz-adv-x="1310" 
d="M1106 1059h117l-164 -172q133 -154 133 -361v-4q0 -222 -152 -383q-156 -164 -387 -164q-198 0 -342 123l-106 -108h-117l162 168q-131 155 -131 360v4q0 224 153 383q156 164 385 164q199 0 342 -125zM965 201q120 129 120 317q0 174 -100 295l-608 -639
q115 -106 280 -106q184 0 308 133zM322 231l612 637q-121 109 -281 109q-183 0 -307 -133q-121 -130 -121 -318q0 -166 97 -295zM612 1219l181 272l125 -61l-220 -211h-86z" />
    <glyph glyph-name="Scommaaccent" unicode="&#x218;" horiz-adv-x="1310" 
d="M121 209l69 80q233 -213 515 -213q161 0 262 82q100 78 100 202v5q0 119 -80 184q-90 75 -325 121q-257 52 -371 147q-113 91 -113 256v4q0 162 131 269q132 108 330 108q275 0 491 -174l-67 -84q-186 162 -428 162q-154 0 -254 -80q-96 -78 -96 -191v-4q0 -122 82 -186
q93 -78 335 -127q250 -53 361 -145q111 -91 111 -250v-4q0 -170 -134 -283q-132 -108 -342 -108q-324 0 -577 229zM559 -461l-12 49q121 27 112 115h-63v145h147v-127q0 -155 -184 -182z" />
    <glyph glyph-name="Scommaaccent093" unicode="&#x219;" horiz-adv-x="1017" 
d="M100 131l60 80q177 -137 375 -137q107 0 178 53q73 58 73 145v4q0 83 -84 136q-53 31 -192 73q-177 53 -244 93q-114 70 -114 194v4q0 126 96 207q94 82 248 82q196 0 370 -115l-53 -84q-156 105 -321 105q-110 0 -173 -51q-65 -53 -65 -132v-4q0 -76 90 -129
q48 -30 201 -73q163 -46 235 -95q109 -77 109 -198v-4q0 -139 -105 -224q-100 -81 -256 -81q-239 0 -428 151zM403 -461l-12 49q122 27 113 115h-64v145h148v-127q0 -155 -185 -182z" />
    <glyph glyph-name="uni0259" unicode="&#x259;" horiz-adv-x="1196" 
d="M924 920q153 -156 153 -396v-4q0 -229 -141 -385q-145 -160 -354 -160q-214 0 -351 158q-129 153 -129 389q0 31 2 41h867q-15 189 -135 303q-115 109 -275 109q-205 0 -358 -164l-70 61q182 197 432 197q213 0 359 -149zM971 473h-760q12 -170 102 -283
q101 -122 273 -122q154 0 264 116q106 112 121 289z" />
    <glyph glyph-name="circumflex" unicode="&#x2c6;" horiz-adv-x="1024" 
d="M266 1219l205 249h82l205 -249h-96l-152 139l-152 -139h-92z" />
    <glyph glyph-name="caron" unicode="&#x2c7;" horiz-adv-x="1024" 
d="M758 1468l-205 -249h-82l-205 249h96l152 -139l152 139h92z" />
    <glyph glyph-name="breve" unicode="&#x2d8;" horiz-adv-x="1024" 
d="M324 1276q-75 60 -84 168h79q43 -131 193 -131t193 131h79q-9 -108 -84 -168q-74 -62 -188 -62t-188 62z" />
    <glyph glyph-name="dotaccent" unicode="&#x2d9;" horiz-adv-x="1024" 
d="M438 1219v165h148v-165h-148z" />
    <glyph glyph-name="ring" unicode="&#x2da;" horiz-adv-x="1024" 
d="M362 1274q-63 60 -63 145q0 86 63 146q62 59 150 59t150 -59q63 -60 63 -146q0 -85 -63 -145t-150 -60t-150 60zM612 1319q43 43 43 100q0 61 -43 101q-40 43 -100 43q-57 0 -100 -43q-43 -40 -43 -101q0 -57 43 -100t100 -43q60 0 100 43z" />
    <glyph glyph-name="ogonek" unicode="&#x2db;" horiz-adv-x="1024" 
d="M657 -262v-74q-258 9 -258 162q0 97 150 211l72 -35q-119 -94 -119 -164q0 -85 155 -100z" />
    <glyph glyph-name="tilde" unicode="&#x2dc;" horiz-adv-x="1024" 
d="M510 1260q-93 43 -129 43q-61 0 -102 -103l-70 19q52 190 172 190q40 0 133 -41q93 -43 129 -43q61 0 102 102l70 -18q-52 -190 -172 -190q-40 0 -133 41z" />
    <glyph glyph-name="hungarumlaut" unicode="&#x2dd;" horiz-adv-x="1024" 
d="M504 1219l182 272l113 -59l-207 -213h-88zM225 1219l183 272l112 -59l-207 -213h-88z" />
    <glyph glyph-name="gravecomb" unicode="&#x300;" horiz-adv-x="0" 
d="M-481 1219l-219 211l125 61l180 -272h-86z" />
    <glyph glyph-name="acutecomb" unicode="&#x301;" horiz-adv-x="0" 
d="M-670 1219l181 272l124 -61l-219 -211h-86z" />
    <glyph glyph-name="tildecomb" unicode="&#x303;" horiz-adv-x="0" 
d="M-459 1260q-93 43 -129 43q-61 0 -102 -103l-70 19q52 190 172 190q40 0 133 -41q93 -43 129 -43q62 0 103 102l69 -18q-52 -190 -172 -190q-40 0 -133 41z" />
    <glyph glyph-name="hookabovecomb" unicode="&#x309;" horiz-adv-x="1024" 
d="M399 1430v63q258 -9 258 -141q0 -83 -112 -152h-109q119 82 119 141q0 77 -156 89z" />
    <glyph glyph-name="uni031B" unicode="&#x31b;" horiz-adv-x="1024" 
d="M334 752l-8 94q123 27 114 164h97q21 -206 -203 -258z" />
    <glyph glyph-name="dotbelowcomb" unicode="&#x323;" horiz-adv-x="0" 
d="M-545 -360v139h107v-139h-107z" />
    <glyph glyph-name="uni0326" unicode="&#x326;" horiz-adv-x="1024" 
d="M401 -461l-12 49q122 27 113 115h-64v145h148v-127q0 -155 -185 -182z" />
    <glyph glyph-name="uni0E3F" unicode="&#xe3f;" horiz-adv-x="1290" 
d="M727 1595h94l-30 -172q146 -26 235 -118q88 -91 88 -226q0 -257 -262 -346q324 -77 324 -344q0 -179 -136 -285q-131 -104 -356 -104h-143l-43 -242h-95l43 242h-241v1434h493zM668 680h-13l-104 -588h135q178 0 285 78q104 76 104 215q0 295 -407 295zM305 766h281
l100 575h-381v-575zM768 1333l-98 -567q159 3 250 82q94 79 94 219q0 219 -246 266zM305 92h162l104 588h-266v-588z" />
    <glyph glyph-name="Wgrave" unicode="&#x1e80;" horiz-adv-x="2256" 
d="M623 -10l-521 1444h119l451 -1276l420 1280h82l419 -1280l451 1276h110l-520 -1444h-86l-420 1245l-419 -1245h-86zM1171 1567h-92l-219 184l121 57z" />
    <glyph glyph-name="Wgrave109" unicode="&#x1e81;" horiz-adv-x="1763" 
d="M483 -8l-383 1052h113l315 -917l316 922h80l315 -922l315 917h109l-383 -1052h-86l-311 895l-314 -895h-86zM838 1219l-220 211l125 61l181 -272h-86z" />
    <glyph glyph-name="Wacute" unicode="&#x1e82;" horiz-adv-x="2256" 
d="M623 -10l-521 1444h119l451 -1276l420 1280h82l419 -1280l451 1276h110l-520 -1444h-86l-420 1245l-419 -1245h-86zM1085 1567l191 241l121 -57l-219 -184h-93z" />
    <glyph glyph-name="Wacute106" unicode="&#x1e83;" horiz-adv-x="1763" 
d="M483 -8l-383 1052h113l315 -917l316 922h80l315 -922l315 917h109l-383 -1052h-86l-311 895l-314 -895h-86zM838 1219l180 272l125 -61l-219 -211h-86z" />
    <glyph glyph-name="Wdieresis" unicode="&#x1e84;" horiz-adv-x="2256" 
d="M623 -10l-521 1444h119l451 -1276l420 1280h82l419 -1280l451 1276h110l-520 -1444h-86l-420 1245l-419 -1245h-86zM1235 1567v155h149v-155h-149zM874 1567v155h152v-155h-152z" />
    <glyph glyph-name="Wdieresis108" unicode="&#x1e85;" horiz-adv-x="1763" 
d="M483 -8l-383 1052h113l315 -917l316 922h80l315 -922l315 917h109l-383 -1052h-86l-311 895l-314 -895h-86zM977 1219v163h141v-163h-141zM643 1219v163h141v-163h-141z" />
    <glyph glyph-name="A.dotbl" unicode="&#x1ea0;" horiz-adv-x="1617" 
d="M90 0l668 1444h102l668 -1444h-117l-182 401h-846l-182 -401h-111zM428 498h756l-377 829zM756 -360v139h106v-139h-106z" />
    <glyph glyph-name="A.dotbl120" unicode="&#x1ea1;" horiz-adv-x="1175" 
d="M233 57q-129 91 -129 246v4q0 160 127 252q122 88 330 88q182 0 346 -45v45q0 320 -344 320q-161 0 -327 -84l-37 88q197 90 370 90q215 0 330 -115q107 -107 107 -295v-651h-99v174q-141 -199 -399 -199q-162 0 -275 82zM793 160q116 91 116 231v119q-186 47 -354 47
q-165 0 -254 -68q-90 -66 -90 -176v-4q0 -108 92 -176q84 -63 211 -63q163 0 279 90zM502 -360v139h106v-139h-106z" />
    <glyph glyph-name="A.hook" unicode="&#x1ea2;" horiz-adv-x="1617" 
d="M90 0l668 1444h102l668 -1444h-117l-182 401h-846l-182 -401h-111zM428 498h756l-377 829zM680 1819v63q258 -9 258 -141q0 -82 -113 -152h-108q119 82 119 142q0 76 -156 88z" />
    <glyph glyph-name="A.hook121" unicode="&#x1ea3;" horiz-adv-x="1175" 
d="M233 57q-129 91 -129 246v4q0 160 127 252q122 88 330 88q182 0 346 -45v45q0 320 -344 320q-161 0 -327 -84l-37 88q197 90 370 90q215 0 330 -115q107 -107 107 -295v-651h-99v174q-141 -199 -399 -199q-162 0 -275 82zM793 160q116 91 116 231v119q-186 47 -354 47
q-165 0 -254 -68q-90 -66 -90 -176v-4q0 -108 92 -176q84 -63 211 -63q163 0 279 90zM426 1430v63q258 -9 258 -141q0 -82 -113 -152h-108q119 82 119 141q0 77 -156 89z" />
    <glyph glyph-name="Acir.acute" unicode="&#x1ea4;" horiz-adv-x="1617" 
d="M90 0l668 1444h102l668 -1444h-117l-182 401h-846l-182 -401h-111zM428 498h756l-377 829zM565 1583l205 250h82l205 -250h-96l-152 139l-152 -139h-92zM950 1796l180 272l125 -61l-219 -211h-86z" />
    <glyph glyph-name="Acir.acute122" unicode="&#x1ea5;" horiz-adv-x="1175" 
d="M233 57q-129 91 -129 246v4q0 160 127 252q122 88 330 88q182 0 346 -45v45q0 320 -344 320q-161 0 -327 -84l-37 88q197 90 370 90q215 0 330 -115q107 -107 107 -295v-651h-99v174q-141 -199 -399 -199q-162 0 -275 82zM793 160q116 91 116 231v119q-186 47 -354 47
q-165 0 -254 -68q-90 -66 -90 -176v-4q0 -108 92 -176q84 -63 211 -63q163 0 279 90zM309 1219l205 249h82l205 -249h-96l-152 139l-152 -139h-92zM711 1434l180 272l125 -61l-219 -211h-86z" />
    <glyph glyph-name="Acir.grave" unicode="&#x1ea6;" horiz-adv-x="1617" 
d="M90 0l668 1444h102l668 -1444h-117l-182 401h-846l-182 -401h-111zM428 498h756l-377 829zM563 1583l205 250h82l205 -250h-97l-151 139l-152 -139h-92zM1004 1802l-220 211l125 62l181 -273h-86z" />
    <glyph glyph-name="Acir.grave123" unicode="&#x1ea7;" horiz-adv-x="1175" 
d="M233 57q-129 91 -129 246v4q0 160 127 252q122 88 330 88q182 0 346 -45v45q0 320 -344 320q-161 0 -327 -84l-37 88q197 90 370 90q215 0 330 -115q107 -107 107 -295v-651h-99v174q-141 -199 -399 -199q-162 0 -275 82zM793 160q116 91 116 231v119q-186 47 -354 47
q-165 0 -254 -68q-90 -66 -90 -176v-4q0 -108 92 -176q84 -63 211 -63q163 0 279 90zM309 1219l205 249h82l205 -249h-96l-152 139l-152 -139h-92zM770 1432l-219 210l125 62l180 -272h-86z" />
    <glyph glyph-name="Acir.hook" unicode="&#x1ea8;" horiz-adv-x="1617" 
d="M90 0l668 1444h102l668 -1444h-117l-182 401h-846l-182 -401h-111zM428 498h756l-377 829zM563 1589l205 250h82l205 -250h-97l-151 140l-152 -140h-92zM918 2032v63q258 -9 258 -141q0 -82 -113 -152h-109q119 82 119 142q0 76 -155 88z" />
    <glyph glyph-name="Acir.hook124" unicode="&#x1ea9;" horiz-adv-x="1175" 
d="M233 57q-129 91 -129 246v4q0 160 127 252q122 88 330 88q182 0 346 -45v45q0 320 -344 320q-161 0 -327 -84l-37 88q197 90 370 90q215 0 330 -115q107 -107 107 -295v-651h-99v174q-141 -199 -399 -199q-162 0 -275 82zM793 160q116 91 116 231v119q-186 47 -354 47
q-165 0 -254 -68q-90 -66 -90 -176v-4q0 -108 92 -176q84 -63 211 -63q163 0 279 90zM309 1219l205 249h82l205 -249h-96l-152 139l-152 -139h-92zM688 1663v63q258 -9 258 -141q0 -82 -112 -151h-109q119 82 119 141q0 76 -156 88z" />
    <glyph glyph-name="Acir.tilde" unicode="&#x1eaa;" horiz-adv-x="1617" 
d="M90 0l668 1444h102l668 -1444h-117l-182 401h-846l-182 -401h-111zM428 498h756l-377 829zM563 1585l205 250h82l205 -250h-97l-151 139l-152 -139h-92zM860 1911q-93 43 -129 43q-61 0 -102 -103l-70 19q52 190 172 190q40 0 133 -41q93 -43 129 -43q62 0 103 103
l69 -19q-52 -190 -172 -190q-40 0 -133 41z" />
    <glyph glyph-name="Acir.tilde125" unicode="&#x1eab;" horiz-adv-x="1175" 
d="M233 57q-129 91 -129 246v4q0 160 127 252q122 88 330 88q182 0 346 -45v45q0 320 -344 320q-161 0 -327 -84l-37 88q197 90 370 90q215 0 330 -115q107 -107 107 -295v-651h-99v174q-141 -199 -399 -199q-162 0 -275 82zM793 160q116 91 116 231v119q-186 47 -354 47
q-165 0 -254 -68q-90 -66 -90 -176v-4q0 -108 92 -176q84 -63 211 -63q163 0 279 90zM309 1219l205 249h82l205 -249h-96l-152 139l-152 -139h-92zM553 1585q-93 43 -129 43q-62 0 -102 -102l-70 18q53 191 172 191q40 0 133 -41q93 -43 129 -43q62 0 102 102l70 -18
q-53 -191 -172 -191q-40 0 -133 41z" />
    <glyph glyph-name="Acir.dotbl" unicode="&#x1eac;" horiz-adv-x="1617" 
d="M90 0l668 1444h102l668 -1444h-117l-182 401h-846l-182 -401h-111zM428 498h756l-377 829zM563 1608l205 250h82l205 -250h-97l-151 139l-152 -139h-92zM756 -360v139h106v-139h-106z" />
    <glyph glyph-name="Acir.dotbl126" unicode="&#x1ead;" horiz-adv-x="1175" 
d="M233 57q-129 91 -129 246v4q0 160 127 252q122 88 330 88q182 0 346 -45v45q0 320 -344 320q-161 0 -327 -84l-37 88q197 90 370 90q215 0 330 -115q107 -107 107 -295v-651h-99v174q-141 -199 -399 -199q-162 0 -275 82zM793 160q116 91 116 231v119q-186 47 -354 47
q-165 0 -254 -68q-90 -66 -90 -176v-4q0 -108 92 -176q84 -63 211 -63q163 0 279 90zM309 1219l205 249h82l205 -249h-96l-152 139l-152 -139h-92zM502 -360v139h106v-139h-106z" />
    <glyph glyph-name="Abrv.acute" unicode="&#x1eae;" horiz-adv-x="1617" 
d="M90 0l668 1444h102l668 -1444h-117l-182 401h-846l-182 -401h-111zM428 498h756l-377 829zM621 1645q-75 60 -84 167h79q43 -131 193 -131q149 0 192 131h80q-9 -107 -84 -167q-74 -62 -188 -62t-188 62zM735 1843l180 273l125 -62l-219 -211h-86z" />
    <glyph glyph-name="Abrv.acute127" unicode="&#x1eaf;" horiz-adv-x="1175" 
d="M233 57q-129 91 -129 246v4q0 160 127 252q122 88 330 88q182 0 346 -45v45q0 320 -344 320q-161 0 -327 -84l-37 88q197 90 370 90q215 0 330 -115q107 -107 107 -295v-651h-99v174q-141 -199 -399 -199q-162 0 -275 82zM793 160q116 91 116 231v119q-186 47 -354 47
q-165 0 -254 -68q-90 -66 -90 -176v-4q0 -108 92 -176q84 -63 211 -63q163 0 279 90zM367 1276q-75 60 -84 168h79q43 -131 193 -131t193 131h79q-9 -108 -84 -168q-74 -62 -188 -62t-188 62zM455 1511l180 273l125 -62l-219 -211h-86z" />
    <glyph glyph-name="Abrv.grave" unicode="&#x1eb0;" horiz-adv-x="1617" 
d="M90 0l668 1444h102l668 -1444h-117l-182 401h-846l-182 -401h-111zM428 498h756l-377 829zM621 1647q-75 60 -84 168h79q44 -132 193 -132t192 132h80q-9 -108 -84 -168q-74 -62 -188 -62t-188 62zM795 1847l-220 211l125 62l181 -273h-86z" />
    <glyph glyph-name="Abrv.grave128" unicode="&#x1eb1;" horiz-adv-x="1175" 
d="M233 57q-129 91 -129 246v4q0 160 127 252q122 88 330 88q182 0 346 -45v45q0 320 -344 320q-161 0 -327 -84l-37 88q197 90 370 90q215 0 330 -115q107 -107 107 -295v-651h-99v174q-141 -199 -399 -199q-162 0 -275 82zM793 160q116 91 116 231v119q-186 47 -354 47
q-165 0 -254 -68q-90 -66 -90 -176v-4q0 -108 92 -176q84 -63 211 -63q163 0 279 90zM367 1276q-75 60 -84 168h79q43 -131 193 -131t193 131h79q-9 -108 -84 -168q-74 -62 -188 -62t-188 62zM569 1511l-219 211l125 62l180 -273h-86z" />
    <glyph glyph-name="Abrv.hook" unicode="&#x1eb2;" horiz-adv-x="1617" 
d="M90 0l668 1444h102l668 -1444h-117l-182 401h-846l-182 -401h-111zM428 498h756l-377 829zM621 1649q-75 60 -84 168h79q43 -131 193 -131q149 0 192 131h80q-9 -108 -84 -168q-74 -62 -188 -62t-188 62zM715 1976v47q258 -6 258 -106q0 -61 -113 -113h-108
q118 60 118 105q0 58 -155 67z" />
    <glyph glyph-name="Abrv.hook129" unicode="&#x1eb3;" horiz-adv-x="1175" 
d="M233 57q-129 91 -129 246v4q0 160 127 252q122 88 330 88q182 0 346 -45v45q0 320 -344 320q-161 0 -327 -84l-37 88q197 90 370 90q215 0 330 -115q107 -107 107 -295v-651h-99v174q-141 -199 -399 -199q-162 0 -275 82zM793 160q116 91 116 231v119q-186 47 -354 47
q-165 0 -254 -68q-90 -66 -90 -176v-4q0 -108 92 -176q84 -63 211 -63q163 0 279 90zM367 1276q-75 60 -84 168h79q43 -131 193 -131t193 131h79q-9 -108 -84 -168q-74 -62 -188 -62t-188 62zM426 1747v63q258 -9 258 -141q0 -81 -113 -151h-108q119 82 119 141
q0 76 -156 88z" />
    <glyph glyph-name="Abrv.tilde" unicode="&#x1eb4;" horiz-adv-x="1617" 
d="M90 0l668 1444h102l668 -1444h-117l-182 401h-846l-182 -401h-111zM428 498h756l-377 829zM621 1649q-75 60 -84 168h79q43 -131 193 -131q149 0 192 131h80q-9 -108 -84 -168q-74 -62 -188 -62t-188 62zM821 1923q-93 43 -129 43q-62 0 -102 -102l-70 18q53 191 172 191
q40 0 133 -41q93 -43 129 -43q63 0 103 102l69 -18q-53 -191 -172 -191q-40 0 -133 41z" />
    <glyph glyph-name="Abrv.tilde130" unicode="&#x1eb5;" horiz-adv-x="1175" 
d="M233 57q-129 91 -129 246v4q0 160 127 252q122 88 330 88q182 0 346 -45v45q0 320 -344 320q-161 0 -327 -84l-37 88q197 90 370 90q215 0 330 -115q107 -107 107 -295v-651h-99v174q-141 -199 -399 -199q-162 0 -275 82zM793 160q116 91 116 231v119q-186 47 -354 47
q-165 0 -254 -68q-90 -66 -90 -176v-4q0 -108 92 -176q84 -63 211 -63q163 0 279 90zM367 1276q-75 60 -84 168h79q43 -131 193 -131t193 131h79q-9 -108 -84 -168q-74 -62 -188 -62t-188 62zM553 1561q-93 43 -129 43q-61 0 -102 -103l-70 19q52 190 172 190q40 0 133 -41
q93 -43 129 -43q61 0 102 103l70 -19q-52 -190 -172 -190q-40 0 -133 41z" />
    <glyph glyph-name="Abrv.dotbl" unicode="&#x1eb6;" horiz-adv-x="1617" 
d="M90 0l668 1444h102l668 -1444h-117l-182 401h-846l-182 -401h-111zM428 498h756l-377 829zM621 1665q-75 60 -84 168h79q43 -131 193 -131q149 0 192 131h80q-9 -108 -84 -168q-73 -61 -188 -61t-188 61zM756 -360v139h106v-139h-106z" />
    <glyph glyph-name="Abrv.dotbl131" unicode="&#x1eb7;" horiz-adv-x="1175" 
d="M233 57q-129 91 -129 246v4q0 160 127 252q122 88 330 88q182 0 346 -45v45q0 320 -344 320q-161 0 -327 -84l-37 88q197 90 370 90q215 0 330 -115q107 -107 107 -295v-651h-99v174q-141 -199 -399 -199q-162 0 -275 82zM793 160q116 91 116 231v119q-186 47 -354 47
q-165 0 -254 -68q-90 -66 -90 -176v-4q0 -108 92 -176q84 -63 211 -63q163 0 279 90zM367 1276q-75 60 -84 168h79q43 -131 193 -131t193 131h79q-9 -108 -84 -168q-74 -62 -188 -62t-188 62zM502 -360v139h106v-139h-106z" />
    <glyph glyph-name="E.dotbl" unicode="&#x1eb8;" horiz-adv-x="1372" 
d="M213 0v1434h1020v-99h-914v-563h822v-98h-822v-576h924v-98h-1030zM676 -360v139h106v-139h-106z" />
    <glyph glyph-name="E.dotbl132" unicode="&#x1eb9;" horiz-adv-x="1196" 
d="M272 125q-153 156 -153 395v4q0 231 141 387q146 158 354 158q214 0 351 -158q129 -153 129 -389q0 -31 -2 -41h-867q15 -189 135 -303q114 -108 275 -108q205 0 358 163l70 -61q-182 -197 -432 -197q-212 0 -359 150zM225 571h760q-12 170 -102 283q-102 123 -273 123
q-154 0 -262 -117q-108 -114 -123 -289zM553 -360v139h106v-139h-106z" />
    <glyph glyph-name="E.hook" unicode="&#x1eba;" horiz-adv-x="1372" 
d="M213 0v1434h1020v-99h-914v-563h822v-98h-822v-576h924v-98h-1030zM600 1819v63q258 -9 258 -141q0 -82 -113 -152h-108q119 82 119 142q0 76 -156 88z" />
    <glyph glyph-name="E.hook133" unicode="&#x1ebb;" horiz-adv-x="1196" 
d="M272 125q-153 156 -153 395v4q0 231 141 387q146 158 354 158q214 0 351 -158q129 -153 129 -389q0 -31 -2 -41h-867q15 -189 135 -303q114 -108 275 -108q205 0 358 163l70 -61q-182 -197 -432 -197q-212 0 -359 150zM225 571h760q-12 170 -102 283q-102 123 -273 123
q-154 0 -262 -117q-108 -114 -123 -289zM477 1430v63q258 -9 258 -141q0 -83 -112 -152h-109q119 82 119 141q0 77 -156 89z" />
    <glyph glyph-name="E.tilde" unicode="&#x1ebc;" horiz-adv-x="1372" 
d="M213 0v1434h1020v-99h-914v-563h822v-98h-822v-576h924v-98h-1030zM727 1649q-93 43 -129 43q-61 0 -102 -103l-70 19q52 190 172 190q40 0 133 -41q93 -43 129 -43q62 0 103 103l69 -19q-52 -190 -172 -190q-40 0 -133 41z" />
    <glyph glyph-name="E.tilde134" unicode="&#x1ebd;" horiz-adv-x="1196" 
d="M272 125q-153 156 -153 395v4q0 231 141 387q146 158 354 158q214 0 351 -158q129 -153 129 -389q0 -31 -2 -41h-867q15 -189 135 -303q114 -108 275 -108q205 0 358 163l70 -61q-182 -197 -432 -197q-212 0 -359 150zM225 571h760q-12 170 -102 283q-102 123 -273 123
q-154 0 -262 -117q-108 -114 -123 -289zM604 1260q-93 43 -129 43q-61 0 -102 -103l-70 19q52 190 172 190q40 0 133 -41q93 -43 129 -43q63 0 103 102l69 -18q-52 -190 -172 -190q-40 0 -133 41z" />
    <glyph glyph-name="Ecir.acute" unicode="&#x1ebe;" horiz-adv-x="1372" 
d="M213 0v1434h1020v-99h-914v-563h822v-98h-822v-576h924v-98h-1030zM485 1583l205 250h82l205 -250h-96l-152 139l-151 -139h-93zM870 1796l181 272l125 -61l-220 -211h-86z" />
    <glyph glyph-name="Ecir.acute135" unicode="&#x1ebf;" horiz-adv-x="1196" 
d="M272 125q-153 156 -153 395v4q0 231 141 387q146 158 354 158q214 0 351 -158q129 -153 129 -389q0 -31 -2 -41h-867q15 -189 135 -303q114 -108 275 -108q205 0 358 163l70 -61q-182 -197 -432 -197q-212 0 -359 150zM225 571h760q-12 170 -102 283q-102 123 -273 123
q-154 0 -262 -117q-108 -114 -123 -289zM360 1219l205 249h82l205 -249h-96l-152 139l-151 -139h-93zM762 1432l180 272l125 -62l-219 -210h-86z" />
    <glyph glyph-name="Ecir.grave" unicode="&#x1ec0;" horiz-adv-x="1372" 
d="M213 0v1434h1020v-99h-914v-563h822v-98h-822v-576h924v-98h-1030zM483 1583l205 250h82l205 -250h-96l-152 139l-152 -139h-92zM924 1802l-219 211l124 62l181 -273h-86z" />
    <glyph glyph-name="Ecir.grave136" unicode="&#x1ec1;" horiz-adv-x="1196" 
d="M272 125q-153 156 -153 395v4q0 231 141 387q146 158 354 158q214 0 351 -158q129 -153 129 -389q0 -31 -2 -41h-867q15 -189 135 -303q114 -108 275 -108q205 0 358 163l70 -61q-182 -197 -432 -197q-212 0 -359 150zM225 571h760q-12 170 -102 283q-102 123 -273 123
q-154 0 -262 -117q-108 -114 -123 -289zM360 1219l205 249h82l205 -249h-96l-152 139l-151 -139h-93zM807 1432l-219 210l125 62l180 -272h-86z" />
    <glyph glyph-name="Ecir.hook" unicode="&#x1ec2;" horiz-adv-x="1372" 
d="M213 0v1434h1020v-99h-914v-563h822v-98h-822v-576h924v-98h-1030zM483 1589l205 250h82l205 -250h-96l-152 140l-152 -140h-92zM838 2032v63q258 -9 258 -141q0 -82 -113 -152h-109q119 82 119 142q0 76 -155 88z" />
    <glyph glyph-name="Ecir.hook137" unicode="&#x1ec3;" horiz-adv-x="1196" 
d="M272 125q-153 156 -153 395v4q0 231 141 387q146 158 354 158q214 0 351 -158q129 -153 129 -389q0 -31 -2 -41h-867q15 -189 135 -303q114 -108 275 -108q205 0 358 163l70 -61q-182 -197 -432 -197q-212 0 -359 150zM225 571h760q-12 170 -102 283q-102 123 -273 123
q-154 0 -262 -117q-108 -114 -123 -289zM360 1219l205 249h82l205 -249h-96l-152 139l-151 -139h-93zM735 1663v63q258 -9 258 -141q0 -82 -112 -151h-109q119 82 119 141q0 76 -156 88z" />
    <glyph glyph-name="Ecir.tilde" unicode="&#x1ec4;" horiz-adv-x="1372" 
d="M213 0v1434h1020v-99h-914v-563h822v-98h-822v-576h924v-98h-1030zM483 1585l205 250h82l205 -250h-96l-152 139l-152 -139h-92zM780 1911q-93 43 -129 43q-61 0 -102 -103l-70 19q52 190 172 190q40 0 133 -41q93 -43 129 -43q62 0 103 103l69 -19q-52 -190 -172 -190
q-40 0 -133 41z" />
    <glyph glyph-name="Ecir.tilde138" unicode="&#x1ec5;" horiz-adv-x="1196" 
d="M272 125q-153 156 -153 395v4q0 231 141 387q146 158 354 158q214 0 351 -158q129 -153 129 -389q0 -31 -2 -41h-867q15 -189 135 -303q114 -108 275 -108q205 0 358 163l70 -61q-182 -197 -432 -197q-212 0 -359 150zM225 571h760q-12 170 -102 283q-102 123 -273 123
q-154 0 -262 -117q-108 -114 -123 -289zM360 1219l205 249h82l205 -249h-96l-152 139l-151 -139h-93zM604 1585q-93 43 -129 43q-61 0 -102 -102l-70 18q53 191 172 191q40 0 133 -41q93 -43 129 -43q63 0 103 102l69 -18q-53 -191 -172 -191q-40 0 -133 41z" />
    <glyph glyph-name="Ecir.dotbl" unicode="&#x1ec6;" horiz-adv-x="1372" 
d="M213 0v1434h1020v-99h-914v-563h822v-98h-822v-576h924v-98h-1030zM483 1608l205 250h82l205 -250h-96l-152 139l-152 -139h-92zM676 -360v139h106v-139h-106z" />
    <glyph glyph-name="Ecir.dotbl139" unicode="&#x1ec7;" horiz-adv-x="1196" 
d="M272 125q-153 156 -153 395v4q0 231 141 387q146 158 354 158q214 0 351 -158q129 -153 129 -389q0 -31 -2 -41h-867q15 -189 135 -303q114 -108 275 -108q205 0 358 163l70 -61q-182 -197 -432 -197q-212 0 -359 150zM225 571h760q-12 170 -102 283q-102 123 -273 123
q-154 0 -262 -117q-108 -114 -123 -289zM360 1219l205 249h82l205 -249h-96l-152 139l-151 -139h-93zM553 -360v139h106v-139h-106z" />
    <glyph glyph-name="I.hook" unicode="&#x1ec8;" horiz-adv-x="561" 
d="M227 0v1434h107v-1434h-107zM152 1819v63q258 -9 258 -141q0 -82 -113 -152h-109q119 82 119 142q0 76 -155 88z" />
    <glyph glyph-name="I.hook140" unicode="&#x1ec9;" horiz-adv-x="509" 
d="M205 0v1044h100v-1044h-100zM127 1430v63q258 -9 258 -141q0 -82 -113 -152h-108q119 82 119 141q0 77 -156 89z" />
    <glyph glyph-name="I.dotbl" unicode="&#x1eca;" horiz-adv-x="561" 
d="M227 0v1434h107v-1434h-107zM227 -360v139h107v-139h-107z" />
    <glyph glyph-name="I.dotbl141" unicode="&#x1ecb;" horiz-adv-x="509" 
d="M193 1317v137h124v-137h-124zM205 0v1044h100v-1044h-100zM203 -360v139h106v-139h-106z" />
    <glyph glyph-name="O.dotbl" unicode="&#x1ecc;" horiz-adv-x="1740" 
d="M346 197q-196 211 -196 516v4q0 305 198 518q204 223 524 223q317 0 523 -221q196 -211 196 -516v-4q0 -305 -198 -518q-205 -224 -525 -224q-315 0 -522 222zM1309 260q172 184 172 453v4q0 268 -174 454q-176 191 -439 191q-260 0 -436 -188q-172 -184 -172 -453v-4
q0 -269 174 -455q175 -190 438 -190q261 0 437 188zM817 -360v139h107v-139h-107z" />
    <glyph glyph-name="O.dotbl142" unicode="&#x1ecd;" horiz-adv-x="1310" 
d="M270 137q-151 157 -151 381v4q0 224 153 383q156 164 385 164q231 0 383 -162q152 -158 152 -381v-4q0 -222 -152 -383q-156 -164 -387 -164t-383 162zM963 203q120 129 120 315v4q0 191 -125 322t-305 131q-186 0 -305 -131q-121 -133 -121 -318v-4q0 -190 125 -321
t305 -131q185 0 306 133zM602 -360v139h107v-139h-107z" />
    <glyph glyph-name="O.hook" unicode="&#x1ece;" horiz-adv-x="1740" 
d="M346 197q-196 211 -196 516v4q0 305 198 518q204 223 524 223q317 0 523 -221q196 -211 196 -516v-4q0 -305 -198 -518q-205 -224 -525 -224q-315 0 -522 222zM1309 260q172 184 172 453v4q0 268 -174 454q-176 191 -439 191q-260 0 -436 -188q-172 -184 -172 -453v-4
q0 -269 174 -455q175 -190 438 -190q261 0 437 188zM741 1819v63q258 -9 258 -141q0 -83 -112 -152h-109q119 82 119 142q0 76 -156 88z" />
    <glyph glyph-name="O.hook143" unicode="&#x1ecf;" horiz-adv-x="1310" 
d="M270 137q-151 157 -151 381v4q0 224 153 383q156 164 385 164q231 0 383 -162q152 -158 152 -381v-4q0 -222 -152 -383q-156 -164 -387 -164t-383 162zM963 203q120 129 120 315v4q0 191 -125 322t-305 131q-186 0 -305 -131q-121 -133 -121 -318v-4q0 -190 125 -321
t305 -131q185 0 306 133zM526 1430v63q258 -9 258 -141q0 -83 -112 -152h-109q119 82 119 141q0 77 -156 89z" />
    <glyph glyph-name="Ocir.acute" unicode="&#x1ed0;" horiz-adv-x="1740" 
d="M346 197q-196 211 -196 516v4q0 305 198 518q204 223 524 223q317 0 523 -221q196 -211 196 -516v-4q0 -305 -198 -518q-205 -224 -525 -224q-315 0 -522 222zM1309 260q172 184 172 453v4q0 268 -174 454q-176 191 -439 191q-260 0 -436 -188q-172 -184 -172 -453v-4
q0 -269 174 -455q175 -190 438 -190q261 0 437 188zM627 1583l204 250h82l205 -250h-96l-152 139l-151 -139h-92zM1012 1796l180 272l125 -61l-219 -211h-86z" />
    <glyph glyph-name="Ocir.acute144" unicode="&#x1ed1;" horiz-adv-x="1310" 
d="M270 137q-151 157 -151 381v4q0 224 153 383q156 164 385 164q231 0 383 -162q152 -158 152 -381v-4q0 -222 -152 -383q-156 -164 -387 -164t-383 162zM963 203q120 129 120 315v4q0 191 -125 322t-305 131q-186 0 -305 -131q-121 -133 -121 -318v-4q0 -190 125 -321
t305 -131q185 0 306 133zM410 1219l204 249h82l205 -249h-96l-152 139l-151 -139h-92zM807 1434l180 272l125 -61l-219 -211h-86z" />
    <glyph glyph-name="Ocir.grave" unicode="&#x1ed2;" horiz-adv-x="1740" 
d="M346 197q-196 211 -196 516v4q0 305 198 518q204 223 524 223q317 0 523 -221q196 -211 196 -516v-4q0 -305 -198 -518q-205 -224 -525 -224q-315 0 -522 222zM1309 260q172 184 172 453v4q0 268 -174 454q-176 191 -439 191q-260 0 -436 -188q-172 -184 -172 -453v-4
q0 -269 174 -455q175 -190 438 -190q261 0 437 188zM625 1583l204 250h82l205 -250h-96l-152 139l-151 -139h-92zM1065 1802l-219 211l125 62l180 -273h-86z" />
    <glyph glyph-name="Ocir.grave145" unicode="&#x1ed3;" horiz-adv-x="1310" 
d="M270 137q-151 157 -151 381v4q0 224 153 383q156 164 385 164q231 0 383 -162q152 -158 152 -381v-4q0 -222 -152 -383q-156 -164 -387 -164t-383 162zM963 203q120 129 120 315v4q0 191 -125 322t-305 131q-186 0 -305 -131q-121 -133 -121 -318v-4q0 -190 125 -321
t305 -131q185 0 306 133zM410 1219l204 249h82l205 -249h-96l-152 139l-151 -139h-92zM848 1436l-219 211l125 61l180 -272h-86z" />
    <glyph glyph-name="Ocir.hook" unicode="&#x1ed4;" horiz-adv-x="1740" 
d="M346 197q-196 211 -196 516v4q0 305 198 518q204 223 524 223q317 0 523 -221q196 -211 196 -516v-4q0 -305 -198 -518q-205 -224 -525 -224q-315 0 -522 222zM1309 260q172 184 172 453v4q0 268 -174 454q-176 191 -439 191q-260 0 -436 -188q-172 -184 -172 -453v-4
q0 -269 174 -455q175 -190 438 -190q261 0 437 188zM625 1589l204 250h82l205 -250h-96l-152 140l-151 -140h-92zM979 2032v63q258 -9 258 -141q0 -82 -113 -152h-108q119 82 119 142q0 76 -156 88z" />
    <glyph glyph-name="Ocir.hook146" unicode="&#x1ed5;" horiz-adv-x="1310" 
d="M270 137q-151 157 -151 381v4q0 224 153 383q156 164 385 164q231 0 383 -162q152 -158 152 -381v-4q0 -222 -152 -383q-156 -164 -387 -164t-383 162zM963 203q120 129 120 315v4q0 191 -125 322t-305 131q-186 0 -305 -131q-121 -133 -121 -318v-4q0 -190 125 -321
t305 -131q185 0 306 133zM410 1219l204 249h82l205 -249h-96l-152 139l-151 -139h-92zM770 1665v64q258 -9 258 -142q0 -81 -113 -151h-108q119 82 119 141q0 76 -156 88z" />
    <glyph glyph-name="Ocir.tilde" unicode="&#x1ed6;" horiz-adv-x="1740" 
d="M346 197q-196 211 -196 516v4q0 305 198 518q204 223 524 223q317 0 523 -221q196 -211 196 -516v-4q0 -305 -198 -518q-205 -224 -525 -224q-315 0 -522 222zM1309 260q172 184 172 453v4q0 268 -174 454q-176 191 -439 191q-260 0 -436 -188q-172 -184 -172 -453v-4
q0 -269 174 -455q175 -190 438 -190q261 0 437 188zM625 1585l204 250h82l205 -250h-96l-152 139l-151 -139h-92zM922 1911q-93 43 -129 43q-62 0 -103 -103l-69 19q52 190 172 190q40 0 133 -41q93 -43 129 -43q61 0 102 103l70 -19q-52 -190 -172 -190q-40 0 -133 41z" />
    <glyph glyph-name="Ocir.tilde147" unicode="&#x1ed7;" horiz-adv-x="1310" 
d="M270 137q-151 157 -151 381v4q0 224 153 383q156 164 385 164q231 0 383 -162q152 -158 152 -381v-4q0 -222 -152 -383q-156 -164 -387 -164t-383 162zM963 203q120 129 120 315v4q0 191 -125 322t-305 131q-186 0 -305 -131q-121 -133 -121 -318v-4q0 -190 125 -321
t305 -131q185 0 306 133zM410 1219l204 249h82l205 -249h-96l-152 139l-151 -139h-92zM653 1585q-93 43 -129 43q-62 0 -102 -102l-70 18q53 191 172 191q40 0 133 -41q93 -43 129 -43q62 0 103 102l69 -18q-53 -191 -172 -191q-40 0 -133 41z" />
    <glyph glyph-name="Ocir.dotbl" unicode="&#x1ed8;" horiz-adv-x="1740" 
d="M346 197q-196 211 -196 516v4q0 305 198 518q204 223 524 223q317 0 523 -221q196 -211 196 -516v-4q0 -305 -198 -518q-205 -224 -525 -224q-315 0 -522 222zM1309 260q172 184 172 453v4q0 268 -174 454q-176 191 -439 191q-260 0 -436 -188q-172 -184 -172 -453v-4
q0 -269 174 -455q175 -190 438 -190q261 0 437 188zM625 1608l204 250h82l205 -250h-96l-152 139l-151 -139h-92zM817 -360v139h107v-139h-107z" />
    <glyph glyph-name="Ocir.dotbl148" unicode="&#x1ed9;" horiz-adv-x="1310" 
d="M270 137q-151 157 -151 381v4q0 224 153 383q156 164 385 164q231 0 383 -162q152 -158 152 -381v-4q0 -222 -152 -383q-156 -164 -387 -164t-383 162zM963 203q120 129 120 315v4q0 191 -125 322t-305 131q-186 0 -305 -131q-121 -133 -121 -318v-4q0 -190 125 -321
t305 -131q185 0 306 133zM410 1219l204 249h82l205 -249h-96l-152 139l-151 -139h-92zM602 -360v139h107v-139h-107z" />
    <glyph glyph-name="ohorn.acute149" unicode="&#x1eda;" horiz-adv-x="1740" 
d="M1309 260q172 184 172 453v4q0 268 -174 454q-176 191 -439 191q-260 0 -436 -188q-172 -184 -172 -453v-4q0 -269 174 -455q175 -190 438 -190q261 0 437 188zM1421 1206q170 -203 170 -485v-4q0 -305 -198 -518q-205 -224 -525 -224q-315 0 -522 222q-196 211 -196 516
v4q0 305 198 518q204 223 524 223q290 0 482 -180q88 37 82 154h96q15 -158 -111 -226zM905 1585l180 273l125 -62l-219 -211h-86z" />
    <glyph glyph-name="ohorn.acute" unicode="&#x1edb;" horiz-adv-x="1310" 
d="M963 203q120 129 120 315v4q0 191 -125 322t-305 131q-186 0 -305 -131q-121 -133 -121 -318v-4q0 -190 125 -321t305 -131q185 0 306 133zM1112 815q80 -127 80 -289v-4q0 -222 -152 -383q-156 -164 -387 -164t-383 162q-151 157 -151 381v4q0 224 153 383
q156 164 385 164q231 0 383 -162q13 -13 15 -16q90 38 84 156h96q15 -167 -123 -232zM649 1165l180 273l125 -62l-219 -211h-86z" />
    <glyph glyph-name="Ohorn.grave" unicode="&#x1edc;" horiz-adv-x="1740" 
d="M1309 260q172 184 172 453v4q0 268 -174 454q-176 191 -439 191q-260 0 -436 -188q-172 -184 -172 -453v-4q0 -269 174 -455q175 -190 438 -190q261 0 437 188zM1421 1206q170 -203 170 -485v-4q0 -305 -198 -518q-205 -224 -525 -224q-315 0 -522 222q-196 211 -196 516
v4q0 305 198 518q204 223 524 223q290 0 482 -180q88 37 82 154h96q15 -158 -111 -226zM997 1585l-219 211l125 62l180 -273h-86z" />
    <glyph glyph-name="Ohorn.grave164" unicode="&#x1edd;" horiz-adv-x="1310" 
d="M963 203q120 129 120 315v4q0 191 -125 322t-305 131q-186 0 -305 -131q-121 -133 -121 -318v-4q0 -190 125 -321t305 -131q185 0 306 133zM1112 815q80 -127 80 -289v-4q0 -222 -152 -383q-156 -164 -387 -164t-383 162q-151 157 -151 381v4q0 224 153 383
q156 164 385 164q231 0 383 -162q13 -13 15 -16q90 38 84 156h96q15 -167 -123 -232zM594 1219l-219 211l125 61l180 -272h-86z" />
    <glyph glyph-name="Ohorn.hook" unicode="&#x1ede;" horiz-adv-x="1740" 
d="M1309 260q172 184 172 453v4q0 268 -174 454q-176 191 -439 191q-260 0 -436 -188q-172 -184 -172 -453v-4q0 -269 174 -455q175 -190 438 -190q261 0 437 188zM1421 1206q170 -203 170 -485v-4q0 -305 -198 -518q-205 -224 -525 -224q-315 0 -522 222q-196 211 -196 516
v4q0 305 198 518q204 223 524 223q290 0 482 -180q88 37 82 154h96q15 -158 -111 -226zM741 1819v63q258 -9 258 -141q0 -83 -112 -152h-109q119 82 119 142q0 76 -156 88z" />
    <glyph glyph-name="Ohorn.hook150" unicode="&#x1edf;" horiz-adv-x="1310" 
d="M963 203q120 129 120 315v4q0 191 -125 322t-305 131q-186 0 -305 -131q-121 -133 -121 -318v-4q0 -190 125 -321t305 -131q185 0 306 133zM1112 815q80 -127 80 -289v-4q0 -222 -152 -383q-156 -164 -387 -164t-383 162q-151 157 -151 381v4q0 224 153 383
q156 164 385 164q231 0 383 -162q13 -13 15 -16q90 38 84 156h96q15 -167 -123 -232zM514 1430v63q258 -9 258 -141q0 -82 -113 -152h-108q119 82 119 141q0 77 -156 89z" />
    <glyph glyph-name="Ohorn.tilde" unicode="&#x1ee0;" horiz-adv-x="1740" 
d="M1309 260q172 184 172 453v4q0 268 -174 454q-176 191 -439 191q-260 0 -436 -188q-172 -184 -172 -453v-4q0 -269 174 -455q175 -190 438 -190q261 0 437 188zM1421 1206q170 -203 170 -485v-4q0 -305 -198 -518q-205 -224 -525 -224q-315 0 -522 222q-196 211 -196 516
v4q0 305 198 518q204 223 524 223q290 0 482 -180q88 37 82 154h96q15 -158 -111 -226zM868 1649q-93 43 -129 43q-61 0 -102 -103l-70 19q52 190 172 190q40 0 133 -41q93 -43 129 -43q62 0 103 103l70 -19q-52 -190 -173 -190q-40 0 -133 41z" />
    <glyph glyph-name="Ohorn.tilde151" unicode="&#x1ee1;" horiz-adv-x="1310" 
d="M963 203q120 129 120 315v4q0 191 -125 322t-305 131q-186 0 -305 -131q-121 -133 -121 -318v-4q0 -190 125 -321t305 -131q185 0 306 133zM1112 815q80 -127 80 -289v-4q0 -222 -152 -383q-156 -164 -387 -164t-383 162q-151 157 -151 381v4q0 224 153 383
q156 164 385 164q231 0 383 -162q13 -13 15 -16q90 38 84 156h96q15 -167 -123 -232zM600 1260q-93 43 -129 43q-61 0 -102 -103l-70 19q52 190 172 190q40 0 133 -41q93 -43 129 -43q63 0 103 102l69 -18q-52 -190 -172 -190q-40 0 -133 41z" />
    <glyph glyph-name="Ohorn.dotbl" unicode="&#x1ee2;" horiz-adv-x="1740" 
d="M1309 260q172 184 172 453v4q0 268 -174 454q-176 191 -439 191q-260 0 -436 -188q-172 -184 -172 -453v-4q0 -269 174 -455q175 -190 438 -190q261 0 437 188zM1421 1206q170 -203 170 -485v-4q0 -305 -198 -518q-205 -224 -525 -224q-315 0 -522 222q-196 211 -196 516
v4q0 305 198 518q204 223 524 223q290 0 482 -180q88 37 82 154h96q15 -158 -111 -226zM817 -360v139h107v-139h-107z" />
    <glyph glyph-name="Ohorn.dotbl152" unicode="&#x1ee3;" horiz-adv-x="1310" 
d="M963 203q120 129 120 315v4q0 191 -125 322t-305 131q-186 0 -305 -131q-121 -133 -121 -318v-4q0 -190 125 -321t305 -131q185 0 306 133zM1112 815q80 -127 80 -289v-4q0 -222 -152 -383q-156 -164 -387 -164t-383 162q-151 157 -151 381v4q0 224 153 383
q156 164 385 164q231 0 383 -162q13 -13 15 -16q90 38 84 156h96q15 -167 -123 -232zM549 -360v139h106v-139h-106z" />
    <glyph glyph-name="U.dotbl" unicode="&#x1ee4;" horiz-adv-x="1556" 
d="M356 137q-166 163 -166 459v838h107v-828q0 -252 129 -393q130 -139 356 -139q223 0 348 131q130 139 130 391v838h106v-826q0 -299 -164 -469q-155 -162 -424 -162q-265 0 -422 160zM725 -360v139h106v-139h-106z" />
    <glyph glyph-name="U.dotbl153" unicode="&#x1ee5;" horiz-adv-x="1255" 
d="M281 96q-111 120 -111 310v638h100v-620q0 -163 86 -258q88 -98 246 -98q157 0 258 104q105 108 105 268v604h100v-1044h-100v195q-127 -220 -377 -220q-192 0 -307 121zM565 -360v139h107v-139h-107z" />
    <glyph glyph-name="U.hook" unicode="&#x1ee6;" horiz-adv-x="1556" 
d="M356 137q-166 163 -166 459v838h107v-828q0 -252 129 -393q130 -139 356 -139q223 0 348 131q130 139 130 391v838h106v-826q0 -299 -164 -469q-155 -162 -424 -162q-265 0 -422 160zM649 1819v63q258 -9 258 -141q0 -83 -112 -152h-109q119 82 119 142q0 76 -156 88z
" />
    <glyph glyph-name="U.hook154" unicode="&#x1ee7;" horiz-adv-x="1255" 
d="M281 96q-111 120 -111 310v638h100v-620q0 -163 86 -258q88 -98 246 -98q157 0 258 104q105 108 105 268v604h100v-1044h-100v195q-127 -220 -377 -220q-192 0 -307 121zM489 1430v63q259 -9 259 -141q0 -82 -113 -152h-109q119 82 119 141q0 77 -156 89z" />
    <glyph glyph-name="Uhorn.acute" unicode="&#x1ee8;" horiz-adv-x="1556" 
d="M1366 1184v-576q0 -299 -164 -469q-155 -162 -424 -162q-265 0 -422 160q-166 163 -166 459v838h107v-828q0 -252 129 -393q130 -139 356 -139q223 0 348 131q130 139 130 391v838h106v-150q76 40 70 148h96q18 -190 -166 -248zM760 1608l180 272l125 -61l-219 -211h-86z
" />
    <glyph glyph-name="Uhorn.acute155" unicode="&#x1ee9;" horiz-adv-x="1255" 
d="M1065 797v-797h-100v195q-127 -220 -377 -220q-192 0 -307 121q-111 120 -111 310v638h100v-620q0 -163 86 -258q88 -98 246 -98q157 0 258 104q105 108 105 268v604h100v-147q80 38 74 150h96q18 -191 -170 -250zM592 1219l180 272l125 -61l-219 -211h-86z" />
    <glyph glyph-name="Uhorn.grave" unicode="&#x1eea;" horiz-adv-x="1556" 
d="M1366 1184v-576q0 -299 -164 -469q-155 -162 -424 -162q-265 0 -422 160q-166 163 -166 459v838h107v-828q0 -252 129 -393q130 -139 356 -139q223 0 348 131q130 139 130 391v838h106v-150q76 40 70 148h96q18 -190 -166 -248zM770 1585l-219 211l125 62l180 -273h-86z
" />
    <glyph glyph-name="Uhorn.grave156" unicode="&#x1eeb;" horiz-adv-x="1255" 
d="M1065 797v-797h-100v195q-127 -220 -377 -220q-192 0 -307 121q-111 120 -111 310v638h100v-620q0 -163 86 -258q88 -98 246 -98q157 0 258 104q105 108 105 268v604h100v-147q80 38 74 150h96q18 -191 -170 -250zM655 1219l-219 211l125 61l180 -272h-86z" />
    <glyph glyph-name="Uhorn.hook" unicode="&#x1eec;" horiz-adv-x="1556" 
d="M1366 1184v-576q0 -299 -164 -469q-155 -162 -424 -162q-265 0 -422 160q-166 163 -166 459v838h107v-828q0 -252 129 -393q130 -139 356 -139q223 0 348 131q130 139 130 391v838h106v-150q76 40 70 148h96q18 -190 -166 -248zM733 1819v63q258 -9 258 -141
q0 -83 -112 -152h-109q119 82 119 142q0 76 -156 88z" />
    <glyph glyph-name="Uhorn.hook157" unicode="&#x1eed;" horiz-adv-x="1255" 
d="M1065 797v-797h-100v195q-127 -220 -377 -220q-192 0 -307 121q-111 120 -111 310v638h100v-620q0 -163 86 -258q88 -98 246 -98q157 0 258 104q105 108 105 268v604h100v-147q80 38 74 150h96q18 -191 -170 -250zM563 1430v63q258 -9 258 -141q0 -83 -112 -152h-109
q119 82 119 141q0 77 -156 89z" />
    <glyph glyph-name="Uhorn.tilde" unicode="&#x1eee;" horiz-adv-x="1556" 
d="M1366 1184v-576q0 -299 -164 -469q-155 -162 -424 -162q-265 0 -422 160q-166 163 -166 459v838h107v-828q0 -252 129 -393q130 -139 356 -139q223 0 348 131q130 139 130 391v838h106v-150q76 40 70 148h96q18 -190 -166 -248zM774 1634q-93 43 -129 43q-61 0 -102 -102
l-70 18q53 191 172 191q40 0 133 -41q93 -43 129 -43q63 0 103 102l69 -18q-53 -191 -172 -191q-40 0 -133 41z" />
    <glyph glyph-name="Uhorn.tilde158" unicode="&#x1eef;" horiz-adv-x="1255" 
d="M1065 797v-797h-100v195q-127 -220 -377 -220q-192 0 -307 121q-111 120 -111 310v638h100v-620q0 -163 86 -258q88 -98 246 -98q157 0 258 104q105 108 105 268v604h100v-147q80 38 74 150h96q18 -191 -170 -250zM666 1202q-93 43 -129 43q-62 0 -103 -102l-69 18
q53 191 172 191q40 0 133 -41q93 -43 129 -43q61 0 102 102l70 -18q-53 -191 -172 -191q-40 0 -133 41z" />
    <glyph glyph-name="Uhorn.dotbl" unicode="&#x1ef0;" horiz-adv-x="1556" 
d="M1366 1184v-576q0 -299 -164 -469q-155 -162 -424 -162q-265 0 -422 160q-166 163 -166 459v838h107v-828q0 -252 129 -393q130 -139 356 -139q223 0 348 131q130 139 130 391v838h106v-150q76 40 70 148h96q18 -190 -166 -248zM743 -360v139h107v-139h-107z" />
    <glyph glyph-name="Uhorn.dotbl159" unicode="&#x1ef1;" horiz-adv-x="1255" 
d="M1065 797v-797h-100v195q-127 -220 -377 -220q-192 0 -307 121q-111 120 -111 310v638h100v-620q0 -163 86 -258q88 -98 246 -98q157 0 258 104q105 108 105 268v604h100v-147q80 38 74 150h96q18 -191 -170 -250zM551 -360v139h106v-139h-106z" />
    <glyph glyph-name="Ygrave" unicode="&#x1ef2;" horiz-adv-x="1466" 
d="M680 0v567l-614 867h133l536 -770l539 770h127l-615 -865v-569h-106zM776 1556h-92l-219 185l121 57z" />
    <glyph glyph-name="Ygrave113" unicode="&#x1ef3;" horiz-adv-x="1204" 
d="M631 111l377 933h110l-452 -1081q-125 -297 -349 -297q-107 0 -206 45l34 88q77 -39 179 -39q153 0 258 246l-502 1038h117zM567 1219l-219 211l125 61l180 -272h-86z" />
    <glyph glyph-name="Y.dotbl" unicode="&#x1ef4;" horiz-adv-x="1466" 
d="M680 0v567l-614 867h133l536 -770l539 770h127l-615 -865v-569h-106zM680 -360v139h106v-139h-106z" />
    <glyph glyph-name="Y.dotbl160" unicode="&#x1ef5;" horiz-adv-x="1204" 
d="M631 111l377 933h110l-452 -1081q-125 -297 -349 -297q-107 0 -206 45l34 88q77 -39 179 -39q153 0 258 246l-502 1038h117zM748 -360v139h106v-139h-106z" />
    <glyph glyph-name="Y.hook" unicode="&#x1ef6;" horiz-adv-x="1466" 
d="M680 0v567l-614 867h133l536 -770l539 770h127l-615 -865v-569h-106zM604 1819v63q258 -9 258 -141q0 -83 -112 -152h-109q119 82 119 142q0 76 -156 88z" />
    <glyph glyph-name="Y.hook161" unicode="&#x1ef7;" horiz-adv-x="1204" 
d="M631 111l377 933h110l-452 -1081q-125 -297 -349 -297q-107 0 -206 45l34 88q77 -39 179 -39q153 0 258 246l-502 1038h117zM471 1430v63q258 -9 258 -141q0 -82 -113 -152h-108q119 82 119 141q0 77 -156 89z" />
    <glyph glyph-name="Ytilde" unicode="&#x1ef8;" horiz-adv-x="1466" 
d="M680 0v567l-614 867h133l536 -770l539 770h127l-615 -865v-569h-106zM731 1649q-93 43 -129 43q-61 0 -102 -103l-70 19q52 190 172 190q40 0 133 -41q93 -43 129 -43q62 0 103 103l69 -19q-52 -190 -172 -190q-40 0 -133 41z" />
    <glyph glyph-name="Ytilde162" unicode="&#x1ef9;" horiz-adv-x="1204" 
d="M631 111l377 933h110l-452 -1081q-125 -297 -349 -297q-107 0 -206 45l34 88q77 -39 179 -39q153 0 258 246l-502 1038h117zM598 1260q-93 43 -129 43q-61 0 -102 -103l-70 19q52 190 172 190q40 0 133 -41q93 -43 129 -43q62 0 103 102l69 -18q-52 -190 -172 -190
q-40 0 -133 41z" />
    <glyph glyph-name="uni2002" unicode="&#x2002;" horiz-adv-x="1024" 
 />
    <glyph glyph-name="uni2003" unicode="&#x2003;" horiz-adv-x="2048" 
 />
    <glyph glyph-name="uni2004" unicode="&#x2004;" horiz-adv-x="681" 
 />
    <glyph glyph-name="uni2005" unicode="&#x2005;" horiz-adv-x="512" 
 />
    <glyph glyph-name="uni2007" unicode="&#x2007;" horiz-adv-x="1228" 
 />
    <glyph glyph-name="uni2009" unicode="&#x2009;" horiz-adv-x="272" 
 />
    <glyph glyph-name="uni200A" unicode="&#x200a;" horiz-adv-x="153" 
 />
    <glyph glyph-name="endash" unicode="&#x2013;" horiz-adv-x="1081" 
d="M143 555v107h795v-107h-795z" />
    <glyph glyph-name="emdash" unicode="&#x2014;" horiz-adv-x="1839" 
d="M143 555v107h1553v-107h-1553z" />
    <glyph glyph-name="quoteleft" unicode="&#x2018;" horiz-adv-x="471" 
d="M158 1051v151q0 177 170 242l24 -51q-123 -64 -114 -168h55v-174h-135z" />
    <glyph glyph-name="quoteright" unicode="&#x2019;" horiz-adv-x="471" 
d="M143 1040l-24 52q123 64 114 168h-55v174h135v-152q0 -177 -170 -242z" />
    <glyph glyph-name="quotesinglbase" unicode="&#x201a;" horiz-adv-x="471" 
d="M133 -219l-24 51q123 64 114 168h-55v174h135v-151q0 -177 -170 -242z" />
    <glyph glyph-name="quotedblleft" unicode="&#x201c;" horiz-adv-x="839" 
d="M526 1051v151q0 177 170 242l25 -51q-124 -65 -115 -168h56v-174h-136zM158 1051v151q0 177 170 242l24 -51q-123 -64 -114 -168h55v-174h-135z" />
    <glyph glyph-name="quotedblright" unicode="&#x201d;" horiz-adv-x="839" 
d="M512 1040l-25 52q124 65 115 168h-55v174h135v-152q0 -177 -170 -242zM143 1040l-24 52q123 64 114 168h-55v174h135v-152q0 -177 -170 -242z" />
    <glyph glyph-name="quotedblbase" unicode="&#x201e;" horiz-adv-x="839" 
d="M502 -219l-25 51q124 65 115 168h-55v174h135v-151q0 -177 -170 -242zM133 -219l-24 51q123 64 114 168h-55v174h135v-151q0 -177 -170 -242z" />
    <glyph glyph-name="dagger" unicode="&#x2020;" horiz-adv-x="839" 
d="M375 487l10 586l-256 -14v92l254 -14l-14 297h102l-14 -297l254 14v-92l-256 14l10 -586h-90z" />
    <glyph glyph-name="daggerdbl" unicode="&#x2021;" horiz-adv-x="880" 
d="M389 0l14 297l-253 -14v92l256 -15l-11 357l11 356l-256 -14v92l253 -14l-14 297h103l-15 -297l254 14v-92l-256 14l10 -356l-10 -357l256 15v-92l-254 14l15 -297h-103z" />
    <glyph glyph-name="bullet" unicode="&#x2022;" horiz-adv-x="962" 
d="M303 541q-76 73 -76 178v4q0 100 78 178q77 74 176 74t176 -74q78 -78 78 -178v-4q0 -105 -73 -178q-77 -74 -181 -74t-178 74z" />
    <glyph glyph-name="ellipsis" unicode="&#x2026;" horiz-adv-x="1392" 
d="M1094 0v170h131v-170h-131zM631 0v170h131v-170h-131zM168 0v170h131v-170h-131z" />
    <glyph glyph-name="perthousand" unicode="&#x2030;" horiz-adv-x="2457" 
d="M580 885q57 75 57 194v4q0 119 -62 199t-149 80q-92 0 -150 -82q-57 -75 -57 -193v-4q0 -118 64 -200q60 -78 147 -78q91 0 150 80zM199 827q-86 106 -86 252v4q0 149 88 256q89 111 229 111q138 0 227 -111q86 -106 86 -252v-4q0 -149 -88 -256q-88 -110 -229 -110
q-139 0 -227 110zM1425 1434l-1052 -1434h-111l1053 1434h110zM1411 152q57 75 57 194v4q0 120 -61 199q-62 80 -150 80q-91 0 -149 -82q-57 -75 -57 -193v-4q0 -119 63 -200q60 -78 148 -78q90 0 149 80zM1030 94q-86 106 -86 252v4q0 149 88 256q88 111 230 111
q138 0 227 -111q86 -106 86 -252v-4q0 -149 -88 -256q-88 -110 -230 -110q-139 0 -227 110zM2181 152q57 75 57 194v4q0 120 -61 199q-62 80 -149 80q-92 0 -150 -82q-57 -75 -57 -193v-4q0 -119 63 -200q60 -78 148 -78q90 0 149 80zM1800 94q-86 106 -86 252v4
q0 149 88 256q89 111 230 111q138 0 227 -111q86 -106 86 -252v-4q0 -149 -88 -256q-88 -110 -229 -110q-140 0 -228 110z" />
    <glyph glyph-name="guilsinglleft" unicode="&#x2039;" horiz-adv-x="636" 
d="M432 86l-328 428v16l328 428l76 -49l-281 -385l281 -389z" />
    <glyph glyph-name="guilsinglright" unicode="&#x203a;" horiz-adv-x="636" 
d="M205 86l-76 49l281 385l-281 389l76 49l327 -428v-16z" />
    <glyph glyph-name="fraction" unicode="&#x2044;" horiz-adv-x="204" 
d="M-430 0l504 729l473 705h88l-504 -729l-473 -705h-88z" />
    <glyph glyph-name="uni2070" unicode="&#x2070;" 
d="M199 969q-76 113 -76 295v4q0 178 78 297q78 118 209 118q129 0 208 -116q78 -116 78 -295v-4q0 -178 -78 -297q-82 -119 -210 -119q-130 0 -209 117zM256 1511q-53 -95 -53 -241v-4q0 -148 55 -242q54 -100 152 -100q96 0 153 100q53 95 53 242v4q0 147 -55 241
q-58 101 -153 101q-97 0 -152 -101z" />
    <glyph glyph-name="uni2074" unicode="&#x2074;" 
d="M604 1055v-187h-76v187h-389l-24 65l397 555h92v-551h113v-69h-113zM528 1124v449l-323 -449h323z" />
    <glyph glyph-name="uni2075" unicode="&#x2075;" 
d="M119 991l57 53q105 -120 230 -120q90 0 149 53q55 52 55 129q0 80 -57 125q-54 45 -145 45q-94 0 -185 -45l-55 33l27 399h460v-80h-393l-18 -266q81 35 170 35q120 0 196 -64q82 -67 82 -176q0 -110 -84 -188q-84 -72 -205 -72q-160 0 -284 139z" />
    <glyph glyph-name="uni2076" unicode="&#x2076;" 
d="M213 930q-94 94 -94 307v4q0 195 88 320q88 122 227 122q129 0 223 -98l-51 -55q-82 82 -176 82q-96 0 -164 -99q-69 -100 -69 -251q84 112 223 112q110 0 180 -67q76 -70 76 -187q0 -110 -78 -188t-192 -78q-117 0 -193 76zM543 979q55 52 55 137q0 84 -51 135
q-52 52 -135 52q-82 0 -142 -54q-57 -51 -57 -133q0 -83 57 -137q56 -53 133 -53q84 0 140 53z" />
    <glyph glyph-name="uni2077" unicode="&#x2077;" 
d="M326 868h-93l361 715h-451v80h543v-59z" />
    <glyph glyph-name="uni2078" unicode="&#x2078;" 
d="M205 915q-82 64 -82 166q0 135 153 199q-129 62 -129 184q0 96 82 160q77 59 185 59q106 0 182 -61q80 -65 80 -158q0 -122 -129 -184q153 -58 153 -195q0 -103 -82 -167q-84 -66 -208 -66q-127 0 -205 63zM279 1571q-54 -42 -54 -107q0 -62 54 -110q52 -43 133 -43
t133 43q53 47 53 110q0 66 -53 107t-133 41t-133 -41zM258 1198q-57 -45 -57 -117q0 -70 57 -112q57 -45 154 -45q96 0 153 45q58 43 58 112q0 71 -58 117q-59 47 -153 47q-95 0 -154 -47z" />
    <glyph glyph-name="uni2079" unicode="&#x2079;" 
d="M606 1606q94 -94 94 -308v-4q0 -199 -88 -321q-89 -121 -227 -121q-134 0 -233 102l51 56q86 -86 186 -86q97 0 164 94q70 98 70 248q-85 -113 -224 -113q-110 0 -180 70q-76 70 -76 188q0 115 78 193q77 77 193 77q117 0 192 -75zM549 1278q57 54 57 137q0 84 -57 141
q-57 54 -133 54q-86 0 -140 -54q-55 -55 -55 -141q0 -88 51 -139t136 -51q82 0 141 53z" />
    <glyph glyph-name="zero.sinf" unicode="&#x2080;" 
d="M199 -174q-76 113 -76 295v4q0 178 78 297q79 119 209 119q128 0 208 -117q78 -116 78 -295v-4q0 -178 -78 -297q-82 -119 -210 -119q-130 0 -209 117zM256 369q-53 -95 -53 -242v-4q0 -148 55 -242q54 -100 152 -100q96 0 153 100q53 95 53 242v4q0 148 -55 242
q-57 100 -153 100q-98 0 -152 -100z" />
    <glyph glyph-name="one.sinf" unicode="&#x2081;" horiz-adv-x="665" 
d="M418 -270h-80v721l-184 -70l-19 72l215 82h68v-805z" />
    <glyph glyph-name="two.sinf" unicode="&#x2082;" 
d="M125 -270v67l305 271q164 144 164 247q0 64 -47 111q-49 43 -121 43q-130 0 -225 -147l-62 36q115 183 293 183q104 0 174 -64t70 -158q0 -129 -191 -296l-249 -218h448v-75h-559z" />
    <glyph glyph-name="three.sinf" unicode="&#x2083;" 
d="M113 -139l59 49q94 -129 236 -129q76 0 129 47t53 119q0 73 -66 121q-64 43 -164 43h-57l-16 49l272 284h-405v76h508v-65l-263 -275q273 -21 273 -233q0 -101 -80 -172q-78 -66 -186 -66q-181 0 -293 152z" />
    <glyph glyph-name="four.sinf" unicode="&#x2084;" 
d="M604 -88v-186h-76v186h-389l-24 65l397 555h92v-550h113v-70h-113zM528 -18v448l-323 -448h323z" />
    <glyph glyph-name="five.sinf" unicode="&#x2085;" 
d="M119 -152l57 54q106 -121 230 -121q90 0 149 53q55 52 55 129q0 80 -57 125q-54 45 -145 45q-94 0 -185 -45l-55 33l27 399h460v-80h-393l-18 -266q81 35 170 35q120 0 196 -64q82 -67 82 -176q0 -110 -84 -188q-84 -72 -205 -72q-160 0 -284 139z" />
    <glyph glyph-name="six.sinf" unicode="&#x2086;" 
d="M213 -213q-94 94 -94 307v4q0 195 88 320q89 123 227 123q128 0 223 -99l-51 -55q-82 82 -176 82q-97 0 -164 -98q-69 -100 -69 -252q84 112 223 112q110 0 180 -67q76 -70 76 -187q0 -110 -78 -188t-192 -78q-117 0 -193 76zM543 -164q55 52 55 137t-51 136t-135 51
q-82 0 -142 -54q-57 -51 -57 -133q0 -83 57 -137q56 -53 133 -53q84 0 140 53z" />
    <glyph glyph-name="seven.sinf" unicode="&#x2087;" 
d="M326 -274h-93l361 714h-451v80h543v-59z" />
    <glyph glyph-name="eight.sinf" unicode="&#x2088;" 
d="M205 -227q-82 64 -82 166q0 133 153 198q-129 61 -129 185q0 95 82 159q78 60 185 60q105 0 182 -62q80 -65 80 -157q0 -124 -129 -185q153 -58 153 -194q0 -104 -82 -168q-84 -66 -208 -66q-126 0 -205 64zM279 428q-54 -42 -54 -106q0 -63 54 -111q52 -43 133 -43
t133 43q53 47 53 111q0 65 -53 106t-133 41t-133 -41zM258 55q-57 -45 -57 -116t57 -113q57 -45 154 -45q96 0 153 45q58 43 58 113t-58 116q-59 47 -153 47q-95 0 -154 -47z" />
    <glyph glyph-name="nine.sinf" unicode="&#x2089;" 
d="M606 463q94 -94 94 -307v-4q0 -200 -88 -322q-89 -121 -227 -121q-133 0 -233 103l51 55q86 -86 186 -86q97 0 164 94q70 98 70 248q-85 -113 -224 -113q-110 0 -180 70q-76 70 -76 188q0 115 78 193t193 78q116 0 192 -76zM549 135q57 54 57 137q0 85 -57 142
q-56 53 -133 53q-87 0 -140 -53q-55 -55 -55 -142q0 -88 51 -139t136 -51q82 0 141 53z" />
    <glyph glyph-name="colonmonetary" unicode="&#x20a1;" horiz-adv-x="1228" 
d="M973 1595h90l-43 -241q31 -16 108 -80l-59 -74q-71 56 -72 57l-204 -1169q144 21 288 156l58 -68q-171 -157 -357 -178l-43 -240h-90l41 238q-105 3 -198 39l-50 -277h-90l56 320q-295 187 -295 631v14q0 296 151 494q149 192 383 219l29 159h90l-29 -155q117 -6 201 -43
zM213 725v-14q0 -356 219 -533l203 1168q-186 -30 -301 -195q-121 -171 -121 -426zM717 1352l-213 -1219q92 -51 209 -51l213 1221q-87 46 -209 49z" />
    <glyph glyph-name="uni20A6" unicode="&#x20a6;" horiz-adv-x="1679" 
d="M1575 487h-201v-487h-141l-303 487h-527v-487h-98v487h-201v86h201v295h-201v86h201v480h154l297 -480h520v480h98v-480h201v-86h-201v-295h201v-86zM403 868v-295h480l-185 295h-295zM803 868l184 -295h289v295h-473zM403 1339v-389h244zM1038 492l238 -379v379h-238z
" />
    <glyph glyph-name="uni20A8" unicode="&#x20a8;" horiz-adv-x="2191" 
d="M174 0v1434h475q222 0 357 -117q131 -113 131 -299v-4q0 -163 -105 -277q-94 -104 -258 -139l416 -598h-127l-401 582h-388v-582h-100zM274 672h365q175 0 285 90q110 91 110 248v4q0 154 -104 239q-106 86 -287 86h-369v-667zM1315 127l59 78q174 -133 350 -133
q106 0 177 53q73 55 73 141v4q0 69 -55 115q-60 47 -207 96q-187 58 -266 125q-82 70 -82 178v4q0 120 96 201q96 78 238 78q184 0 354 -117l-51 -84q-157 109 -307 109q-101 0 -166 -53q-64 -52 -64 -129v-5q0 -69 62 -116q64 -48 217 -97q180 -55 256 -122t76 -179v-4
q0 -130 -105 -213q-103 -77 -252 -77q-222 0 -403 147z" />
    <glyph glyph-name="uni20A9" unicode="&#x20a9;" horiz-adv-x="2252" 
d="M2068 1434l-139 -480h236v-84h-260l-86 -299h346v-84h-371l-143 -493h-123l-150 493h-504l-149 -493h-123l-143 493h-371v84h346l-86 299h-260v84h236l-140 480h115l133 -480h488l143 484h135l139 -484h490l135 480h106zM987 870l-86 -299h451l-88 299h-277zM455 870
l80 -299h274l86 299h-440zM1364 870l86 -299h272l80 299h-438zM666 90h8l112 397h-229zM1587 90h8l105 397h-227zM1122 1327l-110 -373h227l-109 373h-8z" />
    <glyph glyph-name="sheqel" unicode="&#x20aa;" horiz-adv-x="1269" 
d="M487 285l-69 430h94l68 -408q35 -215 233 -215h201v952h96v-1044h-299q-277 0 -324 285zM727 350v383q0 219 -233 219h-238v-952h-96v1044h336q323 0 323 -307v-387h-92z" />
    <glyph glyph-name="Euro" unicode="&#x20ac;" horiz-adv-x="1474" 
d="M1354 1171l-82 -55q-172 248 -414 248q-152 0 -272 -117q-114 -114 -166 -297h579v-98h-602q-8 -52 -8 -133q0 -63 6 -119h604v-98h-587q50 -198 172 -314q124 -118 299 -118q227 0 397 262l78 -51q-200 -306 -481 -306q-207 0 -365 146q-155 146 -207 381h-184v98h168
q-4 50 -4 115q0 85 8 137h-172v98h192q58 224 203 363q151 145 346 145q300 0 492 -287z" />
    <glyph glyph-name="uni20B1" unicode="&#x20b1;" horiz-adv-x="1454" 
d="M279 0v936h-199v88h199v410h383q227 0 372 -109q149 -113 158 -301h203v-88h-203q-12 -201 -178 -315q-149 -107 -379 -107h-250v-514h-106zM383 610h258q194 0 313 88q124 89 133 240h-704v-328zM383 1337v-315h704q-12 153 -131 235q-115 80 -303 80h-270z" />
    <glyph glyph-name="uni2117" unicode="&#x2117;" horiz-adv-x="1699" 
d="M322 193q-213 216 -213 520v4q0 304 215 522q219 219 528 219t526 -217q213 -216 213 -520v-4q0 -304 -215 -522q-220 -220 -528 -220t-526 218zM1335 233q195 201 195 484v4q0 280 -195 481q-193 199 -483 199q-286 0 -487 -201q-195 -201 -195 -483v-4q0 -281 195 -482
q192 -198 483 -198q287 0 487 200zM606 358v750h289q137 0 213 -61q80 -62 80 -175v-4q0 -118 -92 -186q-82 -61 -215 -61h-185v-263h-90zM696 705h187q213 0 213 159v4q0 156 -207 156h-193v-319z" />
    <glyph glyph-name="servicemark" unicode="&#x2120;" horiz-adv-x="1449" 
d="M719 803v631h76l245 -375l246 375h74v-631h-72v504l-244 -365h-10l-243 365v-504h-72zM70 895l45 53q104 -90 223 -90q67 0 106 33q41 30 41 80q0 81 -170 119q-217 46 -217 180q0 76 64 125q61 49 155 49q125 0 226 -78l-43 -53q-83 65 -185 65q-63 0 -104 -30
q-39 -26 -39 -74q0 -84 174 -121q213 -47 213 -178q0 -80 -65 -133q-64 -49 -158 -49q-152 0 -266 102z" />
    <glyph glyph-name="trademark" unicode="&#x2122;" horiz-adv-x="1413" 
d="M682 803v631h76l246 -375l245 375h74v-631h-72v504l-243 -365h-11l-243 365v-504h-72zM260 803v561h-207v70h486v-70h-207v-561h-72z" />
    <glyph glyph-name="onethird" unicode="&#x2153;" horiz-adv-x="1689" 
d="M1004 131l59 49q95 -129 235 -129q76 0 129 47q54 48 54 119q0 73 -66 121q-64 43 -164 43h-57l-16 49l272 285h-406v76h508v-66l-262 -274q273 -21 273 -234q0 -101 -80 -172q-77 -65 -187 -65q-180 0 -292 151zM240 0l503 729l474 705h88l-504 -729l-473 -705h-88z
M408 643h-80v721l-185 -70l-18 72l215 82h68v-805z" />
    <glyph glyph-name="twothirds" unicode="&#x2154;" horiz-adv-x="1843" 
d="M1157 131l60 49q95 -129 235 -129q76 0 129 47t53 119q0 74 -65 121q-64 43 -164 43h-57l-17 49l273 285h-406v76h508v-66l-262 -274q272 -21 272 -234q0 -101 -80 -172q-77 -65 -186 -65q-181 0 -293 151zM389 0l504 729l473 705h88l-504 -729l-473 -705h-88zM104 643
v68l306 270q163 144 163 248q0 63 -47 110q-49 43 -120 43q-132 0 -226 -147l-61 37q114 182 293 182q105 0 174 -63t69 -158q0 -131 -190 -297l-250 -217h449v-76h-560z" />
    <glyph glyph-name="onefifth" unicode="&#x2155;" horiz-adv-x="1689" 
d="M1010 119l57 53q106 -121 229 -121q91 0 150 53q55 52 55 129q0 80 -57 125q-54 45 -146 45q-93 0 -184 -45l-55 33l26 400h461v-80h-393l-18 -267q81 35 170 35q121 0 196 -63q82 -67 82 -176q0 -111 -84 -189q-83 -71 -205 -71q-160 0 -284 139zM250 0l504 729l473 705
h88l-504 -729l-473 -705h-88zM408 643h-80v721l-185 -70l-18 72l215 82h68v-805z" />
    <glyph glyph-name="twofifths" unicode="&#x2156;" horiz-adv-x="1843" 
d="M1163 119l58 53q106 -121 229 -121q90 0 149 53q56 53 56 129q0 79 -58 125q-54 45 -145 45q-93 0 -184 -45l-56 33l27 400h461v-80h-393l-19 -267q81 35 170 35q122 0 197 -63q82 -67 82 -176q0 -111 -84 -189q-83 -71 -205 -71q-161 0 -285 139zM410 0l503 729l473 705
h89l-504 -729l-473 -705h-88zM104 643v68l306 270q163 144 163 248q0 63 -47 110q-49 43 -120 43q-132 0 -226 -147l-61 37q114 182 293 182q105 0 174 -63t69 -158q0 -131 -190 -297l-250 -217h449v-76h-560z" />
    <glyph glyph-name="threefifths" unicode="&#x2157;" horiz-adv-x="1843" 
d="M1163 119l58 53q106 -121 229 -121q90 0 149 53q56 53 56 129q0 79 -58 125q-54 45 -145 45q-93 0 -184 -45l-56 33l27 400h461v-80h-393l-19 -267q81 35 170 35q122 0 197 -63q82 -67 82 -176q0 -111 -84 -189q-83 -71 -205 -71q-161 0 -285 139zM379 0l504 729l473 705
h88l-504 -729l-473 -705h-88zM92 774l60 49q95 -129 235 -129q76 0 129 47t53 119q0 74 -65 121q-64 43 -164 43h-57l-17 49l273 285h-406v76h508v-66l-262 -274q272 -21 272 -234q0 -101 -80 -172q-77 -65 -186 -65q-181 0 -293 151z" />
    <glyph glyph-name="fourfifths" unicode="&#x2158;" horiz-adv-x="1843" 
d="M584 825v-186h-76v186h-389l-25 66l398 555h92v-551h112v-70h-112zM1163 119l58 53q106 -121 229 -121q90 0 149 53q56 53 56 129q0 79 -58 125q-54 45 -145 45q-93 0 -184 -45l-56 33l27 400h461v-80h-393l-19 -267q81 35 170 35q122 0 197 -63q82 -67 82 -176
q0 -111 -84 -189q-83 -71 -205 -71q-161 0 -285 139zM410 0l503 729l473 705h89l-504 -729l-473 -705h-88zM508 895v448l-324 -448h324z" />
    <glyph glyph-name="onesixth" unicode="&#x2159;" horiz-adv-x="1689" 
d="M1104 57q-94 94 -94 308v4q0 194 88 319q88 123 227 123q129 0 223 -98l-51 -56q-82 82 -176 82q-97 0 -164 -98q-70 -101 -70 -252q85 113 224 113q109 0 180 -68q76 -70 76 -186q0 -111 -78 -189q-77 -77 -193 -77q-117 0 -192 75zM266 0l504 729l473 705h88l-504 -729
l-473 -705h-88zM1434 106q55 52 55 138q0 84 -51 135t-135 51q-83 0 -142 -53q-57 -51 -57 -133q0 -84 57 -138q56 -53 133 -53q84 0 140 53zM408 643h-80v721l-185 -70l-18 72l215 82h68v-805z" />
    <glyph glyph-name="fivesixths" unicode="&#x215a;" horiz-adv-x="1843" 
d="M1257 57q-94 94 -94 308v4q0 194 88 319q89 123 228 123q129 0 223 -98l-51 -56q-82 82 -176 82q-97 0 -164 -98q-70 -101 -70 -252q85 113 223 113q110 0 181 -68q75 -69 75 -186q0 -111 -78 -189q-77 -77 -192 -77q-118 0 -193 75zM98 762l58 53q106 -121 229 -121
q90 0 150 54q55 52 55 129q0 78 -58 124q-55 46 -145 46q-91 0 -184 -46l-56 33l27 400h461v-80h-393l-19 -267q81 35 170 35q122 0 197 -63q82 -67 82 -176q0 -111 -84 -189q-83 -71 -205 -71q-161 0 -285 139zM389 0l504 729l473 705h88l-504 -729l-473 -705h-88z
M1587 106q55 52 55 138q0 84 -51 135t-135 51q-82 0 -141 -53q-58 -52 -58 -133q0 -83 58 -138q56 -53 133 -53q83 0 139 53z" />
    <glyph glyph-name="oneeighth" unicode="&#x215b;" horiz-adv-x="1689" 
d="M1096 43q-82 64 -82 166q0 135 153 199q-129 62 -129 184q0 96 82 160q77 59 185 59q106 0 182 -61q80 -65 80 -158q0 -122 -129 -184q153 -59 153 -195q0 -104 -82 -168q-83 -65 -209 -65t-204 63zM1169 698q-53 -41 -53 -106q0 -64 53 -111q52 -43 134 -43q81 0 133 43
q53 47 53 111q0 65 -53 106t-133 41q-81 0 -134 -41zM1149 326q-57 -45 -57 -117q0 -71 57 -113q57 -45 154 -45q96 0 153 45q57 42 57 113q0 72 -57 117q-59 47 -153 47q-95 0 -154 -47zM266 0l504 729l473 705h88l-504 -729l-473 -705h-88zM408 643h-80v721l-185 -70
l-18 72l215 82h68v-805z" />
    <glyph glyph-name="threeeighths" unicode="&#x215c;" horiz-adv-x="1843" 
d="M1249 43q-82 64 -82 166q0 134 154 199q-129 62 -129 184q0 96 82 160q77 59 184 59q106 0 182 -61q80 -65 80 -158q0 -122 -129 -184q154 -59 154 -195q0 -104 -82 -168q-83 -65 -209 -65q-127 0 -205 63zM1323 698q-53 -41 -53 -106q0 -64 53 -111q52 -43 133 -43
t133 43q53 47 53 111q0 65 -53 106t-133 41t-133 -41zM1303 326q-58 -46 -58 -117q0 -70 58 -113q57 -45 153 -45q97 0 154 45q57 42 57 113q0 72 -57 117q-59 47 -154 47q-94 0 -153 -47zM389 0l504 729l473 705h88l-504 -729l-473 -705h-88zM92 774l60 49
q95 -129 235 -129q76 0 129 47t53 119q0 74 -65 121q-64 43 -164 43h-57l-17 49l273 285h-406v76h508v-66l-262 -274q272 -21 272 -234q0 -101 -80 -172q-77 -65 -186 -65q-181 0 -293 151z" />
    <glyph glyph-name="fiveeighths" unicode="&#x215d;" horiz-adv-x="1843" 
d="M1249 43q-82 64 -82 166q0 134 154 199q-129 62 -129 184q0 96 82 160q77 59 184 59q106 0 182 -61q80 -65 80 -158q0 -122 -129 -184q154 -59 154 -195q0 -104 -82 -168q-83 -65 -209 -65q-127 0 -205 63zM1323 698q-53 -41 -53 -106q0 -64 53 -111q52 -43 133 -43
t133 43q53 47 53 111q0 65 -53 106t-133 41t-133 -41zM1303 326q-58 -46 -58 -117q0 -70 58 -113q57 -45 153 -45q97 0 154 45q57 42 57 113q0 72 -57 117q-59 47 -154 47q-94 0 -153 -47zM389 0l504 729l473 705h88l-504 -729l-473 -705h-88zM98 762l58 53
q106 -121 229 -121q90 0 150 54q55 52 55 129q0 78 -58 124q-55 46 -145 46q-91 0 -184 -46l-56 33l27 400h461v-80h-393l-19 -267q81 35 170 35q122 0 197 -63q82 -67 82 -176q0 -111 -84 -189q-83 -71 -205 -71q-161 0 -285 139z" />
    <glyph glyph-name="seveneighths" unicode="&#x215e;" horiz-adv-x="1843" 
d="M1249 43q-82 64 -82 166q0 134 154 199q-129 62 -129 184q0 96 82 160q77 59 184 59q106 0 182 -61q80 -65 80 -158q0 -122 -129 -184q154 -59 154 -195q0 -104 -82 -168q-83 -65 -209 -65q-127 0 -205 63zM1323 698q-53 -41 -53 -106q0 -64 53 -111q52 -43 133 -43
t133 43q53 47 53 111q0 65 -53 106t-133 41t-133 -41zM1303 326q-58 -46 -58 -117q0 -70 58 -113q57 -45 153 -45q97 0 154 45q57 42 57 113q0 72 -57 117q-59 47 -154 47q-94 0 -153 -47zM328 0l503 729l474 705h88l-504 -729l-473 -705h-88zM326 639h-93l361 715h-451v80
h543v-60z" />
    <glyph glyph-name="minus" unicode="&#x2212;" horiz-adv-x="1269" 
d="M1130 670h-991v102h991v-102z" />
    <glyph glyph-name="cir.acute" unicode="&#xe00d;" horiz-adv-x="0" 
d="M268 1583l205 250h82l205 -250h-96l-152 139l-152 -139h-92zM653 1796l181 272l124 -61l-219 -211h-86z" />
    <glyph glyph-name="cir.grave" unicode="&#xe00e;" horiz-adv-x="0" 
d="M266 1583l205 250h82l205 -250h-96l-152 139l-152 -139h-92zM707 1802l-220 211l125 62l181 -273h-86z" />
    <glyph glyph-name="cir.tilde" unicode="&#xe00f;" horiz-adv-x="0" 
d="M266 1585l205 250h82l205 -250h-96l-152 139l-152 -139h-92zM563 1911q-93 43 -129 43q-61 0 -102 -103l-70 19q52 190 172 190q40 0 133 -41q93 -43 129 -43q62 0 103 103l69 -19q-52 -190 -172 -190q-40 0 -133 41z" />
    <glyph glyph-name="breve.tilde" unicode="&#xe010;" horiz-adv-x="0" 
d="M324 1649q-75 60 -84 168h79q43 -131 193 -131t193 131h79q-9 -108 -84 -168q-74 -62 -188 -62t-188 62zM524 1923q-93 43 -129 43q-61 0 -102 -102l-70 18q53 191 172 191q40 0 133 -41q93 -43 129 -43q63 0 103 102l69 -18q-53 -191 -172 -191q-40 0 -133 41z" />
    <glyph glyph-name="breve.acute" unicode="&#xe011;" horiz-adv-x="0" 
d="M324 1645q-75 60 -84 167h79q43 -131 193 -131t193 131h79q-9 -107 -84 -167q-74 -62 -188 -62t-188 62zM438 1843l180 273l125 -62l-219 -211h-86z" />
    <glyph glyph-name="breve.grave" unicode="&#xe012;" horiz-adv-x="0" 
d="M324 1647q-75 60 -84 168h79q43 -132 193 -132t193 132h79q-9 -108 -84 -168q-74 -62 -188 -62t-188 62zM498 1847l-219 211l124 62l181 -273h-86z" />
    <glyph glyph-name="breve.hook" unicode="&#xe013;" horiz-adv-x="0" 
d="M324 1649q-75 60 -84 168h79q43 -131 193 -131t193 131h79q-9 -108 -84 -168q-74 -62 -188 -62t-188 62zM418 1976v47q258 -6 258 -106q0 -61 -113 -113h-108q118 60 118 105q0 58 -155 67z" />
    <glyph glyph-name="cir.hook" unicode="&#xe014;" horiz-adv-x="0" 
d="M266 1589l205 250h82l205 -250h-96l-152 140l-152 -140h-92zM621 2032v63q258 -9 258 -141q0 -82 -113 -152h-109q119 82 119 142q0 76 -155 88z" />
    <glyph glyph-name="uniE015" unicode="&#xe015;" horiz-adv-x="1024" 
d="M541 1219l-219 211l124 61l181 -272h-86z" />
    <glyph glyph-name="uniE016" unicode="&#xe016;" horiz-adv-x="1024" 
d="M397 1219l181 272l124 -61l-219 -211h-86z" />
    <glyph glyph-name="uniE017" unicode="&#xe017;" horiz-adv-x="1024" 
d="M266 1219l205 249h82l205 -249h-96l-152 139l-152 -139h-92z" />
    <glyph glyph-name="uniE018" unicode="&#xe018;" horiz-adv-x="1024" 
d="M758 1468l-205 -249h-82l-205 249h96l152 -139l152 139h92z" />
    <glyph glyph-name="uniE019" unicode="&#xe019;" horiz-adv-x="1024" 
d="M510 1260q-93 43 -129 43q-61 0 -102 -103l-70 19q52 190 172 190q40 0 133 -41q93 -43 129 -43q61 0 102 102l70 -18q-52 -190 -172 -190q-40 0 -133 41z" />
    <glyph glyph-name="uniE01A" unicode="&#xe01a;" horiz-adv-x="1024" 
d="M541 1219l-219 211l124 61l181 -272h-86z" />
    <glyph glyph-name="uniE01B" unicode="&#xe01b;" horiz-adv-x="1024" 
d="M504 1219l182 272l113 -59l-207 -213h-88zM225 1219l183 272l112 -59l-207 -213h-88z" />
    <glyph glyph-name="uniE01C" unicode="&#xe01c;" horiz-adv-x="1024" 
d="M324 1276q-75 60 -84 168h79q43 -131 193 -131t193 131h79q-9 -108 -84 -168q-74 -62 -188 -62t-188 62z" />
    <glyph glyph-name="uniE01D" unicode="&#xe01d;" horiz-adv-x="1024" 
d="M324 1276q-75 60 -84 168h79q43 -131 193 -131t193 131h79q-9 -108 -84 -168q-74 -62 -188 -62t-188 62z" />
    <glyph glyph-name="uniE01E" unicode="&#xe01e;" horiz-adv-x="1024" 
d="M362 1274q-63 60 -63 145q0 86 63 146q62 59 150 59t150 -59q63 -60 63 -146q0 -85 -63 -145t-150 -60t-150 60zM612 1319q43 43 43 100q0 61 -43 101q-40 43 -100 43q-57 0 -100 -43q-43 -40 -43 -101q0 -57 43 -100t100 -43q60 0 100 43z" />
    <glyph glyph-name="uniE01F" unicode="&#xe01f;" horiz-adv-x="1024" 
d="M399 1430v63q258 -9 258 -141q0 -83 -112 -152h-109q119 82 119 141q0 77 -156 89z" />
    <glyph glyph-name="uniE020" unicode="&#xe020;" horiz-adv-x="991" 
d="M274 1219v165h148v-165h-148zM569 1219v165h148v-165h-148z" />
    <glyph glyph-name="Euro.aalt" horiz-adv-x="1228" 
d="M86 852v88h168q47 230 174 369q137 149 328 149q224 0 374 -203l-75 -63q-129 176 -301 176q-150 0 -258 -123q-101 -113 -142 -305h510v-88h-524q-6 -62 -6 -127v-12q0 -61 6 -117h524v-88h-512q41 -199 137 -315q109 -127 261 -127q179 0 317 182l68 -55
q-156 -218 -390 -218q-188 0 -321 148q-134 146 -174 385h-164v88h152q-5 58 -5 111v20q0 53 7 125h-154z" />
    <glyph glyph-name="_18" horiz-adv-x="1740" 
d="M1509 -207l-292 268q-157 -86 -349 -86q-315 0 -522 222q-196 211 -196 516v4q0 305 198 518q204 223 524 223q317 0 523 -221q196 -211 196 -516v-4q0 -373 -276 -590l350 -328v-6h-156zM1309 260q172 184 172 453v4q0 268 -174 454q-176 191 -439 191q-260 0 -436 -188
q-172 -184 -172 -453v-4q0 -269 174 -455q175 -190 438 -190q261 0 437 188z" />
    <glyph glyph-name="_260" horiz-adv-x="1228" 
d="M92 240l86 63q176 -231 447 -231q156 0 260 84q104 82 104 219v4q0 141 -110 217q-115 80 -314 80h-143v94h145q167 0 273 80q110 82 110 219v4q0 125 -94 207t-250 82q-239 0 -399 -219l-82 49q181 266 485 266q195 0 324 -108q127 -109 127 -273v-4q0 -249 -273 -340
q312 -89 312 -352v-4q0 -169 -135 -283q-137 -119 -344 -119q-332 0 -529 265z" />
    <glyph glyph-name="_29" horiz-adv-x="1351" 
d="M283 119q-160 157 -160 399v4q0 245 160 402q148 145 348 145q266 0 430 -250v225h100v-1044h-100v233q-169 -258 -430 -258q-201 0 -348 144zM936 197q131 131 131 323v4q0 195 -131 326q-126 123 -295 123q-178 0 -291 -119q-119 -122 -119 -328v-4q0 -201 123 -327
q117 -123 287 -123t295 125z" />
    <glyph glyph-name="_305" horiz-adv-x="1699" 
d="M322 193q-213 216 -213 520v4q0 304 215 522q219 219 528 219t526 -217q213 -216 213 -520v-4q0 -304 -215 -522q-220 -220 -528 -220t-526 218zM1335 233q195 201 195 484v4q0 280 -195 481q-193 199 -483 199q-286 0 -487 -201q-195 -201 -195 -483v-4q0 -281 195 -482
q192 -198 483 -198q287 0 487 200zM565 362v750h336q143 0 219 -76q58 -58 58 -139v-4q0 -175 -205 -215l250 -316h-115l-238 302h-217v-302h-88zM653 745h234q198 0 198 144v4q0 135 -188 135h-244v-283z" />
    <glyph glyph-name="_322" horiz-adv-x="2416" 
d="M1399 -328v1381h98v-226q140 248 375 248q175 0 307 -141q139 -157 139 -399v-15q0 -242 -139 -399q-132 -144 -307 -144q-235 0 -375 242v-547h-98zM174 0v1434h475q222 0 357 -117q131 -113 131 -299v-4q0 -163 -105 -277q-94 -104 -258 -139l416 -598h-127l-401 582
h-388v-582h-100zM2111 186q105 126 105 332v14q0 204 -107 332q-103 121 -247 121q-146 0 -254 -123q-117 -129 -117 -325v-19q0 -196 117 -328q107 -122 254 -122q149 0 249 118zM274 672h365q175 0 285 90q110 91 110 248v4q0 154 -104 239q-106 86 -287 86h-369v-667z
" />
    <glyph glyph-name="_391" horiz-adv-x="1228" 
d="M96 240l84 55q163 -227 430 -227q165 0 275 84q106 84 106 225q0 142 -110 221q-116 78 -316 78h-141v94h154q166 0 276 78q111 82 111 225q0 131 -95 211q-94 82 -256 82q-248 0 -407 -221l-80 47q181 266 491 266q200 0 326 -108q127 -109 127 -273q0 -255 -276 -350
q303 -88 303 -348q0 -172 -137 -285q-140 -119 -355 -119q-328 0 -510 265z" />
    <glyph glyph-name="_437" horiz-adv-x="0" 
 />
    <glyph glyph-name="_440" horiz-adv-x="1421" 
d="M1319 -410h-426l-16 29h-334l-17 -29h-424v621q66 0 66 65q0 66 -66 66v1135h205l62 161h684l59 -161h207v-1887zM819 1153v-352h31v160h78v28h-78v135h88v29h-119zM377 1153v-352h31v162h96v-162h31v352h-31v-162h-96v162h-31zM942 838v-31q19 -8 43 -8q64 0 64 73v281
h-33v-281q0 -45 -33 -45q-8 0 -41 11zM760 952l-27 6q-12 -51 -16 -61h-2l-33 64q47 44 47 86q0 63 -55 63q-58 0 -58 -63q0 -24 29 -80q-47 -38 -47 -97q0 -75 59 -75q39 0 60 49h2l24 -49l25 12l-35 65q12 26 27 80zM1071 662v-95h16v25l17 16l31 -41h20l-41 54l37 41h-21
l-43 -50v50h-16zM999 598l21 -31h18l-24 35q20 9 20 29q0 31 -35 31h-41v-95h17v31h24zM922 614q0 50 -50 50q-49 0 -49 -50q0 -49 49 -49q50 0 50 49zM758 616l-27 46h-18l37 -60v-35h16v35l37 60h-19zM395 662v-95h70v15h-53v26h47v15h-47v24h53v15h-70zM270 662v-95h17
v66l51 -66h14v95h-16v-66l-51 66h-15zM494 662l28 -97h17l22 70h2l23 -70h16l29 97h-17l-20 -72h-2l-23 72h-14l-23 -72h-2l-20 72h-16zM645 1047q0 38 29 38q26 0 26 -38q0 -31 -30 -66q-25 48 -25 66zM659 946l41 -80q-15 -43 -41 -43q-32 0 -32 51q0 40 32 72zM997 612
h-22v35h22q21 0 21 -16q0 -19 -21 -19zM840 614q0 35 32 35q33 0 33 -35q0 -34 -33 -34q-32 0 -32 34z" />
    <glyph glyph-name="_441" horiz-adv-x="509" 
d="M193 1317v137h124v-137h-124zM205 0v1044h100v-1044h-100z" />
    <glyph glyph-name="_443" 
d="M199 739q-76 113 -76 295v4q0 178 78 297q79 119 209 119q128 0 208 -117q78 -116 78 -295v-4q0 -178 -78 -297q-81 -118 -210 -118q-130 0 -209 116zM256 1282q-53 -95 -53 -242v-4q0 -147 55 -241q55 -101 152 -101q95 0 153 101q53 95 53 241v4q0 148 -55 242
q-57 100 -153 100q-98 0 -152 -100z" />
    <glyph glyph-name="_444" horiz-adv-x="665" 
d="M418 643h-80v721l-184 -70l-19 72l215 82h68v-805z" />
    <glyph glyph-name="_445" 
d="M711 643h-551v70h243v651l-215 -76l-18 72l246 88h67v-735h228v-70z" />
    <glyph glyph-name="_446" 
d="M125 643v68l305 270q164 144 164 248q0 63 -47 110q-49 43 -121 43q-130 0 -225 -147l-62 37q114 182 293 182q105 0 174 -63q70 -64 70 -158q0 -130 -191 -297l-249 -217h448v-76h-559z" />
    <glyph glyph-name="_447" 
d="M113 774l59 49q94 -129 236 -129q76 0 129 47t53 119q0 73 -66 121q-64 43 -164 43h-57l-16 49l272 285h-405v76h508v-66l-263 -274q273 -21 273 -234q0 -101 -80 -172q-77 -65 -186 -65q-181 0 -293 151z" />
    <glyph glyph-name="_448" 
d="M604 825v-186h-76v186h-389l-24 66l397 555h92v-551h113v-70h-113zM528 895v448l-323 -448h323z" />
    <glyph glyph-name="_449" 
d="M119 762l57 53q106 -121 230 -121q89 0 149 54q55 52 55 129q0 79 -57 124q-55 46 -145 46q-92 0 -185 -46l-55 33l27 400h460v-80h-393l-18 -267q81 35 170 35q121 0 196 -63q82 -67 82 -176q0 -111 -84 -189q-83 -71 -205 -71q-160 0 -284 139z" />
    <glyph glyph-name="_450" 
d="M213 700q-94 94 -94 308v4q0 194 88 319q88 123 227 123q129 0 223 -98l-51 -56q-82 82 -176 82q-97 0 -164 -98q-69 -100 -69 -252q85 113 223 113q109 0 180 -68q76 -70 76 -186q0 -111 -78 -189q-77 -77 -192 -77q-118 0 -193 75zM543 750q55 52 55 137q0 84 -51 135
t-135 51q-83 0 -142 -53q-57 -51 -57 -133q0 -83 57 -137t133 -54q83 0 140 54z" />
    <glyph glyph-name="_451" 
d="M326 639h-93l361 715h-451v80h543v-60z" />
    <glyph glyph-name="_452" 
d="M205 686q-82 64 -82 166q0 134 153 199q-129 61 -129 184q0 96 82 160q77 59 185 59q106 0 182 -61q80 -65 80 -158q0 -123 -129 -184q153 -59 153 -195q0 -104 -82 -168q-83 -65 -208 -65q-127 0 -205 63zM279 1341q-54 -42 -54 -106q0 -63 54 -111q52 -43 133 -43
t133 43q53 47 53 111q0 65 -53 106t-133 41t-133 -41zM258 969q-57 -45 -57 -117q0 -71 57 -113q57 -45 154 -45q96 0 153 45q58 43 58 113q0 71 -58 117q-59 47 -153 47q-95 0 -154 -47z" />
    <glyph glyph-name="_453" 
d="M606 1376q94 -94 94 -307v-4q0 -200 -88 -322q-88 -120 -227 -120q-134 0 -233 102l51 55q86 -86 186 -86q97 0 164 94q70 98 70 248q-84 -112 -224 -112q-111 0 -180 69q-76 70 -76 189q0 114 78 192t193 78q116 0 192 -76zM549 1049q57 54 57 137q0 84 -57 141
q-56 53 -133 53q-87 0 -140 -53q-55 -55 -55 -141q0 -88 51 -139q52 -52 136 -52q81 0 141 54z" />
    <glyph glyph-name="_454" 
d="M199 96q-76 113 -76 295v4q0 178 78 297q79 119 209 119q128 0 208 -117q78 -116 78 -295v-4q0 -178 -78 -297q-81 -118 -210 -118q-130 0 -209 116zM256 639q-53 -95 -53 -242v-4q0 -147 55 -241q55 -101 152 -101q95 0 153 101q53 95 53 241v4q0 148 -55 242
q-57 100 -153 100q-98 0 -152 -100z" />
    <glyph glyph-name="_455" horiz-adv-x="665" 
d="M418 0h-80v721l-184 -70l-19 72l215 82h68v-805z" />
    <glyph glyph-name="_456" 
d="M711 0h-551v70h243v651l-215 -76l-18 72l246 88h67v-735h228v-70z" />
    <glyph glyph-name="_457" 
d="M125 0v68l305 270q164 144 164 248q0 63 -47 110q-49 43 -121 43q-130 0 -225 -147l-62 37q114 182 293 182q105 0 174 -63q70 -64 70 -158q0 -130 -191 -297l-249 -217h448v-76h-559z" />
    <glyph glyph-name="_458" 
d="M113 131l59 49q94 -129 236 -129q76 0 129 47t53 119q0 73 -66 121q-64 43 -164 43h-57l-16 49l272 285h-405v76h508v-66l-263 -274q273 -21 273 -234q0 -101 -80 -172q-77 -65 -186 -65q-181 0 -293 151z" />
    <glyph glyph-name="_459" 
d="M604 182v-186h-76v186h-389l-24 66l397 555h92v-551h113v-70h-113zM528 252v448l-323 -448h323z" />
    <glyph glyph-name="_460" 
d="M119 119l57 53q106 -121 230 -121q90 0 149 53q55 52 55 129q0 80 -57 125q-54 45 -145 45q-94 0 -185 -45l-55 33l27 400h460v-80h-393l-18 -267q81 35 170 35q121 0 196 -63q82 -67 82 -176q0 -111 -84 -189q-83 -71 -205 -71q-160 0 -284 139z" />
    <glyph glyph-name="_461" 
d="M213 57q-94 94 -94 308v4q0 194 88 319q89 123 227 123q129 0 223 -98l-51 -56q-82 82 -176 82q-97 0 -164 -98q-69 -100 -69 -252q85 113 223 113q109 0 180 -68q76 -70 76 -186q0 -111 -78 -189q-77 -77 -192 -77q-118 0 -193 75zM543 106q55 52 55 138q0 84 -51 135
t-135 51q-83 0 -142 -53q-57 -51 -57 -133q0 -84 57 -138q56 -53 133 -53q84 0 140 53z" />
    <glyph glyph-name="_462" 
d="M326 -4h-93l361 715h-451v80h543v-60z" />
    <glyph glyph-name="_463" 
d="M205 43q-82 64 -82 166q0 135 153 199q-129 62 -129 184q0 96 82 160q77 59 185 59q106 0 182 -61q80 -65 80 -158q0 -122 -129 -184q153 -58 153 -195q0 -104 -82 -168q-83 -65 -208 -65q-127 0 -205 63zM279 698q-54 -42 -54 -106q0 -63 54 -111q52 -43 133 -43t133 43
q53 47 53 111q0 65 -53 106t-133 41t-133 -41zM258 326q-57 -45 -57 -117q0 -71 57 -113q57 -45 154 -45q96 0 153 45q58 43 58 113q0 71 -58 117q-59 47 -153 47q-95 0 -154 -47z" />
    <glyph glyph-name="_464" 
d="M606 733q94 -94 94 -307v-4q0 -200 -88 -322q-88 -120 -227 -120q-134 0 -233 102l51 55q86 -86 186 -86q97 0 164 94q70 98 70 248q-84 -112 -224 -112q-111 0 -180 69q-76 70 -76 189q0 114 78 192t193 78q116 0 192 -76zM549 406q57 54 57 137q0 84 -57 141
q-56 53 -133 53q-87 0 -140 -53q-55 -55 -55 -141q0 -89 51 -140t136 -51q81 0 141 54z" />
    <glyph glyph-name="_467" horiz-adv-x="1024" 
d="M432 1190l35 305h125v-6l-100 -299h-60z" />
    <glyph glyph-name="_477" horiz-adv-x="1024" 
d="M391 1567l191 241l120 -57l-219 -184h-92z" />
    <glyph glyph-name="_478" horiz-adv-x="1024" 
d="M217 1567l191 241l120 -57l-219 -184h-92zM504 1567l190 241l121 -57l-219 -184h-92z" />
    <glyph glyph-name="_479" horiz-adv-x="1024" 
d="M633 1567h-92l-219 184l120 57z" />
    <glyph glyph-name="_480" horiz-adv-x="1024" 
d="M254 1567l211 219h94l211 -219h-111l-149 125l-150 -125h-106z" />
    <glyph glyph-name="_481" horiz-adv-x="1024" 
d="M770 1786l-211 -219h-94l-211 219h111l149 -125l150 125h106z" />
    <glyph glyph-name="_482" horiz-adv-x="1024" 
d="M324 1616q-75 54 -84 151h90q37 -106 182 -106t182 106h90q-9 -97 -84 -151q-74 -53 -188 -53t-188 53z" />
    <glyph glyph-name="_483" horiz-adv-x="1024" 
d="M502 1610q-84 35 -115 35q-60 0 -102 -97l-76 21q52 180 168 180q42 0 143 -43q84 -35 115 -35q62 0 102 94l76 -20q-52 -178 -168 -178q-42 0 -143 43z" />
    <glyph glyph-name="_484" horiz-adv-x="1024" 
d="M195 1620v100h634v-100h-634z" />
    <glyph glyph-name="_485" horiz-adv-x="1024" 
d="M616 1567v155h150v-155h-150zM256 1567v155h152v-155h-152z" />
    <glyph glyph-name="_486" horiz-adv-x="1024" 
d="M434 1567v155h156v-155h-156z" />
    <glyph glyph-name="_487" horiz-adv-x="1024" 
d="M358 1618q-63 57 -63 139t63 139q65 56 154 56t154 -56q63 -57 63 -139t-63 -139q-64 -55 -154 -55t-154 55zM610 1665q41 38 41 92t-41 92q-40 37 -98 37t-98 -37q-41 -38 -41 -92t41 -92q40 -37 98 -37t98 37z" />
    <glyph glyph-name="_57" horiz-adv-x="1351" 
d="M283 119q-160 157 -160 399v4q0 245 160 402q148 145 348 145q266 0 430 -250v225h100v-1044h-100v233q-169 -258 -430 -258q-201 0 -348 144zM936 197q131 131 131 323v4q0 195 -131 326q-126 123 -295 123q-178 0 -291 -119q-119 -122 -119 -328v-4q0 -201 123 -327
q117 -123 287 -123t295 125zM637 1219l180 272l125 -61l-219 -211h-86z" />
    <glyph glyph-name="_60" horiz-adv-x="1351" 
d="M283 119q-160 157 -160 399v4q0 245 160 402q148 145 348 145q266 0 430 -250v225h100v-1044h-100v233q-169 -258 -430 -258q-201 0 -348 144zM936 197q131 131 131 323v4q0 195 -131 326q-126 123 -295 123q-178 0 -291 -119q-119 -122 -119 -328v-4q0 -201 123 -327
q117 -123 287 -123t295 125zM492 1276q-75 60 -84 168h79q43 -131 193 -131q149 0 192 131h80q-9 -108 -84 -168q-74 -62 -188 -62t-188 62z" />
    <glyph glyph-name="_63" horiz-adv-x="1351" 
d="M283 119q-160 157 -160 399v4q0 245 160 402q148 145 348 145q266 0 430 -250v225h100v-1044h-100v233q-169 -258 -430 -258q-201 0 -348 144zM936 197q131 131 131 323v4q0 195 -131 326q-126 123 -295 123q-178 0 -291 -119q-119 -122 -119 -328v-4q0 -201 123 -327
q117 -123 287 -123t295 125zM434 1219l205 249h82l205 -249h-97l-151 139l-152 -139h-92z" />
    <glyph glyph-name="_66" horiz-adv-x="1351" 
d="M283 119q-160 157 -160 399v4q0 245 160 402q148 145 348 145q266 0 430 -250v225h100v-1044h-100v233q-169 -258 -430 -258q-201 0 -348 144zM936 197q131 131 131 323v4q0 195 -131 326q-126 123 -295 123q-178 0 -291 -119q-119 -122 -119 -328v-4q0 -201 123 -327
q117 -123 287 -123t295 125zM776 1219v163h142v-163h-142zM442 1219v163h142v-163h-142z" />
    <glyph glyph-name="_73" horiz-adv-x="1351" 
d="M283 119q-160 157 -160 399v4q0 245 160 402q148 145 348 145q266 0 430 -250v225h100v-1044h-100v233q-169 -258 -430 -258q-201 0 -348 144zM936 197q131 131 131 323v4q0 195 -131 326q-126 123 -295 123q-178 0 -291 -119q-119 -122 -119 -328v-4q0 -201 123 -327
q117 -123 287 -123t295 125zM637 1219l-219 211l125 61l180 -272h-86z" />
    <glyph glyph-name="_76" horiz-adv-x="1351" 
d="M283 119q-160 157 -160 399v4q0 245 160 402q148 145 348 145q266 0 430 -250v225h100v-1044h-100v233q-169 -258 -430 -258q-201 0 -348 144zM936 197q131 131 131 323v4q0 195 -131 326q-126 123 -295 123q-178 0 -291 -119q-119 -122 -119 -328v-4q0 -201 123 -327
q117 -123 287 -123t295 125zM379 1272v96h602v-96h-602z" />
    <glyph glyph-name="_79" horiz-adv-x="1351" 
d="M1194 -262v-74q-258 9 -258 162q0 96 125 190v217q-169 -258 -430 -258q-201 0 -348 144q-160 157 -160 399v4q0 245 160 402q148 145 348 145q266 0 430 -250v225h100v-1044h-8q-115 -92 -115 -162q0 -85 156 -100zM936 197q131 131 131 323v4q0 195 -131 326
q-126 123 -295 123q-178 0 -291 -119q-119 -122 -119 -328v-4q0 -201 123 -327q117 -123 287 -123t295 125z" />
    <glyph glyph-name="_82" horiz-adv-x="1351" 
d="M283 119q-160 157 -160 399v4q0 245 160 402q148 145 348 145q266 0 430 -250v225h100v-1044h-100v233q-169 -258 -430 -258q-201 0 -348 144zM936 197q131 131 131 323v4q0 195 -131 326q-126 123 -295 123q-178 0 -291 -119q-119 -122 -119 -328v-4q0 -201 123 -327
q117 -123 287 -123t295 125zM530 1274q-63 60 -63 145q0 86 63 146q62 59 150 59q87 0 149 -59q64 -61 64 -146q0 -84 -64 -145q-63 -60 -149 -60q-87 0 -150 60zM780 1319q43 43 43 100q0 61 -43 101q-40 43 -100 43q-57 0 -100 -43q-43 -40 -43 -101q0 -57 43 -100
t100 -43q60 0 100 43z" />
    <glyph glyph-name="_83" horiz-adv-x="1175" 
d="M233 57q-129 91 -129 246v4q0 160 127 252q122 88 330 88q182 0 346 -45v45q0 320 -344 320q-161 0 -327 -84l-37 88q152 68 254 82q-78 60 -78 151q0 86 63 146q62 59 150 59q87 0 149 -59q64 -61 64 -146q0 -102 -88 -160q109 -21 186 -98q107 -107 107 -295v-651h-99
v174q-141 -199 -399 -199q-162 0 -275 82zM793 160q116 91 116 231v119q-186 47 -354 47q-165 0 -254 -68q-90 -66 -90 -176v-4q0 -108 92 -176q84 -63 211 -63q163 0 279 90zM487 1104q43 -43 101 -43q60 0 100 43q43 43 43 100q0 61 -43 101q-40 43 -100 43
q-58 0 -101 -43q-43 -40 -43 -101q0 -57 43 -100z" />
    <glyph glyph-name="_86" horiz-adv-x="1351" 
d="M635 1679l182 242l121 -61l-213 -181h-90zM283 119q-160 157 -160 399v4q0 245 160 402q148 145 348 145q266 0 430 -250v225h100v-1044h-100v233q-169 -258 -430 -258q-201 0 -348 144zM936 197q131 131 131 323v4q0 195 -131 326q-126 123 -295 123q-178 0 -291 -119
q-119 -122 -119 -328v-4q0 -201 123 -327q117 -123 287 -123t295 125zM530 1274q-63 60 -63 145q0 86 63 146q62 59 150 59q87 0 149 -59q64 -61 64 -146q0 -84 -64 -145q-63 -60 -149 -60q-87 0 -150 60zM780 1319q43 43 43 100q0 61 -43 101q-40 43 -100 43
q-57 0 -100 -43q-43 -40 -43 -101q0 -57 43 -100t100 -43q60 0 100 43z" />
    <glyph glyph-name="_87" horiz-adv-x="1175" 
d="M543 1483l182 241l121 -61l-213 -180h-90zM233 57q-129 91 -129 246v4q0 160 127 252q122 88 330 88q182 0 346 -45v45q0 320 -344 320q-161 0 -327 -84l-37 88q152 68 254 82q-78 60 -78 151q0 86 63 146q62 59 150 59q87 0 149 -59q64 -61 64 -146q0 -102 -88 -160
q109 -21 186 -98q107 -107 107 -295v-651h-99v174q-141 -199 -399 -199q-162 0 -275 82zM793 160q116 91 116 231v119q-186 47 -354 47q-165 0 -254 -68q-90 -66 -90 -176v-4q0 -108 92 -176q84 -63 211 -63q163 0 279 90zM487 1104q43 -43 101 -43q60 0 100 43
q43 43 43 100q0 61 -43 101q-40 43 -100 43q-58 0 -101 -43q-43 -40 -43 -101q0 -57 43 -100z" />
    <glyph glyph-name="_90" horiz-adv-x="1351" 
d="M283 119q-160 157 -160 399v4q0 245 160 402q148 145 348 145q266 0 430 -250v225h100v-1044h-100v233q-169 -258 -430 -258q-201 0 -348 144zM936 197q131 131 131 323v4q0 195 -131 326q-126 123 -295 123q-178 0 -291 -119q-119 -122 -119 -328v-4q0 -201 123 -327
q117 -123 287 -123t295 125zM684 1260q-93 43 -129 43q-61 0 -102 -103l-70 19q52 190 172 190q40 0 133 -41q93 -43 129 -43q62 0 103 102l69 -18q-52 -190 -172 -190q-40 0 -133 41z" />
    <glyph glyph-name="bar.aalt" horiz-adv-x="614" 
d="M262 -262v1896h90v-1896h-90z" />
    <glyph glyph-name="cent.aalt" horiz-adv-x="1228" 
d="M840 1446l-39 -189q161 -37 299 -184l-72 -69q-123 132 -254 167l-180 -899q12 -2 59 -2q219 0 387 189l68 -60q-195 -219 -461 -219q-39 0 -67 4l-41 -196h-101l45 217q-161 52 -262 192q-100 135 -100 320v4q0 223 155 385q158 168 390 168q28 0 36 -2l37 174h101z
M225 723v-4q0 -149 78 -268q74 -111 205 -158l178 891h-22q-190 0 -316 -135q-123 -132 -123 -326z" />
    <glyph glyph-name="colon.aalt" horiz-adv-x="614" 
d="M223 850v194h168v-194h-168zM223 0v195h168v-195h-168z" />
    <glyph glyph-name="comma.aalt" horiz-adv-x="614" 
d="M205 -219l-25 51q124 65 115 168h-72v195h168v-172q0 -172 -186 -242z" />
    <glyph glyph-name="degree.aalt" horiz-adv-x="1228" 
d="M324 760q-121 121 -121 284q0 165 123 285q122 119 290 119q170 0 289 -119q121 -121 121 -285t-123 -284q-122 -119 -291 -119t-288 119zM838 819q88 88 88 225q0 133 -90 226q-90 90 -224 90q-131 0 -221 -90q-88 -88 -88 -226q0 -132 90 -225q90 -90 223 -90
q132 0 222 90z" />
    <glyph glyph-name="divide.aalt" horiz-adv-x="1228" 
d="M532 1024v182h164v-182h-164zM1090 672h-951v98h951v-98zM532 236v182h164v-182h-164z" />
    <glyph glyph-name="dollar.aalt" horiz-adv-x="1228" 
d="M786 1595l-20 -176q162 -35 303 -147l-61 -82q-125 102 -260 137l-70 -567q222 -49 326 -139q102 -91 102 -246q0 -162 -131 -269q-132 -108 -336 -108q-37 0 -47 2l-31 -242h-94l31 252q-225 41 -387 195l63 78q159 -153 340 -183l72 580q-420 94 -420 389
q0 160 125 264q124 103 313 103q6 0 68 -4l20 163h94zM932 551q-79 73 -266 113l-70 -574h49q161 0 262 82q97 79 97 197q0 116 -72 182zM596 776l70 563q-54 4 -66 4q-153 0 -240 -75q-92 -74 -92 -195q0 -221 328 -297z" />
    <glyph glyph-name="eight.pnum" horiz-adv-x="1228" 
d="M252 90q-146 116 -146 289v6q0 250 306 356q-258 108 -258 336v6q0 163 141 271q135 102 319 102q185 0 320 -102q141 -108 141 -271v-6q0 -228 -258 -336q305 -105 305 -356v-6q0 -174 -145 -289q-143 -113 -363 -113q-219 0 -362 113zM862 864q105 82 105 213v4
q0 123 -103 203t-250 80q-146 0 -249 -80t-103 -203v-4q0 -131 105 -213q104 -84 247 -84q144 0 248 84zM907 162q107 85 107 215v4q0 133 -117 221q-113 88 -283 88q-169 0 -282 -88q-117 -88 -117 -221v-4q0 -130 107 -215q115 -92 292 -92q178 0 293 92z" />
    <glyph glyph-name="ellipsis.aalt" horiz-adv-x="1228" 
d="M842 0v182h159v-182h-159zM227 0v182h160v-182h-160z" />
    <glyph glyph-name="equal.aalt" horiz-adv-x="1228" 
d="M1055 897h-881v100h881v-100zM1055 444h-881v101h881v-101z" />
    <glyph glyph-name="five.pnum" horiz-adv-x="1228" 
d="M115 205l78 71q191 -206 421 -206q169 0 277 102q106 100 106 256v4q0 153 -106 246q-104 94 -273 94q-166 0 -335 -88l-80 51l49 699h792v-103h-702l-39 -538q160 77 324 77q206 0 344 -120q137 -122 137 -314v-4q0 -202 -143 -330q-145 -127 -355 -127q-284 0 -495 230
z" />
    <glyph glyph-name="four.pnum" horiz-adv-x="1228" 
d="M844 0v346h-733l-31 88l737 1008h125v-1006h213v-90h-213v-346h-98zM844 436v887l-649 -887h649z" />
    <glyph glyph-name="fraction.frac" horiz-adv-x="1228" 
d="M1174 1634l-1047 -1896h-102l1046 1896h103z" />
    <glyph glyph-name="greater.aalt" horiz-adv-x="1228" 
d="M1092 682l-897 -483v104l784 416l-784 420v104l897 -483v-78z" />
    <glyph glyph-name="less.aalt" horiz-adv-x="1228" 
d="M1034 199l-897 483v78l897 483v-104l-784 -416l784 -420v-104z" />
    <glyph glyph-name="minus.aalt" horiz-adv-x="1228" 
d="M1090 670h-951v102h951v-102z" />
    <glyph glyph-name="multiply.aalt" horiz-adv-x="1228" 
d="M983 279l-371 374l-370 -374l-70 69l375 371l-375 371l74 73l370 -375l371 375l70 -69l-375 -371l375 -371z" />
    <glyph glyph-name="nine.pnum" horiz-adv-x="1228" 
d="M252 641q-137 125 -137 332v2q0 207 139 346q137 137 336 137q207 0 340 -133q174 -174 174 -559v-8q0 -342 -152 -559q-155 -224 -417 -224q-196 0 -385 160l65 80q168 -145 328 -145q209 0 338 206q118 190 118 472v22q-139 -250 -426 -250q-191 0 -321 121zM322 1251
q-101 -107 -101 -274q0 -163 103 -266q99 -99 254 -99q179 0 286 113q103 106 103 258q0 169 -111 277q-106 106 -264 106q-167 0 -270 -115z" />
    <glyph glyph-name="numbersign.aalt" horiz-adv-x="1228" 
d="M72 477h223l67 488h-223v92h236l53 377h90l-53 -377h393l53 377h90l-53 -377h209v-92h-221l-68 -488h222v-92h-236l-53 -385h-90l53 385h-393l-54 -385h-90l54 385h-209v92zM453 965l-70 -488h393l70 488h-393z" />
    <glyph glyph-name="one.pnum" horiz-adv-x="1228" 
d="M1149 0h-963v98h449v1231l-399 -137l-29 90l450 162h82v-1346h410v-98z" />
    <glyph glyph-name="one.sinf.aalt" 
d="M711 -270h-551v69h243v652l-215 -76l-18 71l246 89h67v-736h228v-69z" />
    <glyph glyph-name="oneeighth.aalt" horiz-adv-x="1843" 
d="M1249 43q-82 64 -82 166q0 134 154 199q-129 62 -129 184q0 96 82 160q77 59 184 59q106 0 182 -61q80 -65 80 -158q0 -122 -129 -184q154 -59 154 -195q0 -104 -82 -168q-83 -65 -209 -65q-127 0 -205 63zM1323 698q-53 -41 -53 -106q0 -64 53 -111q52 -43 133 -43
t133 43q53 47 53 111q0 65 -53 106t-133 41t-133 -41zM1303 326q-58 -46 -58 -117q0 -70 58 -113q57 -45 153 -45q97 0 154 45q57 42 57 113q0 72 -57 117q-59 47 -154 47q-94 0 -153 -47zM420 0l504 729l473 705h88l-504 -729l-473 -705h-88zM700 643h-550v70h243v651
l-215 -76l-18 72l246 88h67v-735h227v-70z" />
    <glyph glyph-name="onefifth.aalt" horiz-adv-x="1843" 
d="M1163 119l58 53q106 -121 229 -121q90 0 149 53q56 53 56 129q0 79 -58 125q-54 45 -145 45q-93 0 -184 -45l-56 33l27 400h461v-80h-393l-19 -267q81 35 170 35q122 0 197 -63q82 -67 82 -176q0 -111 -84 -189q-83 -71 -205 -71q-161 0 -285 139zM420 0l504 729l473 705
h88l-504 -729l-473 -705h-88zM700 643h-550v70h243v651l-215 -76l-18 72l246 88h67v-735h227v-70z" />
    <glyph glyph-name="onehalf.aalt" horiz-adv-x="1843" 
d="M1169 0v68l306 270q163 144 163 248q0 63 -47 110q-49 43 -121 43q-130 0 -225 -147l-61 37q114 182 293 182q105 0 174 -63t69 -158q0 -131 -190 -297l-250 -217h449v-76h-560zM430 0l504 729l473 705h88l-504 -729l-473 -705h-88zM700 643h-550v70h243v651l-215 -76
l-18 72l246 88h67v-735h227v-70z" />
    <glyph glyph-name="onequarter.aalt" horiz-adv-x="1843" 
d="M1628 182v-186h-76v186h-389l-24 66l397 555h92v-551h113v-70h-113zM440 0l504 729l473 705h88l-504 -729l-473 -705h-88zM700 643h-550v70h243v651l-215 -76l-18 72l246 88h67v-735h227v-70zM1552 252v448l-323 -448h323z" />
    <glyph glyph-name="onesixth.aalt" horiz-adv-x="1843" 
d="M1257 57q-94 94 -94 308v4q0 194 88 319q89 123 228 123q129 0 223 -98l-51 -56q-82 82 -176 82q-97 0 -164 -98q-70 -101 -70 -252q85 113 223 113q110 0 181 -68q75 -69 75 -186q0 -111 -78 -189q-77 -77 -192 -77q-118 0 -193 75zM420 0l504 729l473 705h88l-504 -729
l-473 -705h-88zM1587 106q55 52 55 138q0 84 -51 135t-135 51q-82 0 -141 -53q-58 -52 -58 -133q0 -83 58 -138q56 -53 133 -53q83 0 139 53zM700 643h-550v70h243v651l-215 -76l-18 72l246 88h67v-735h227v-70z" />
    <glyph glyph-name="onesuperior.aalt" 
d="M711 872h-551v70h243v651l-215 -75l-18 71l246 88h67v-735h228v-70z" />
    <glyph glyph-name="onethird.aalt" horiz-adv-x="1843" 
d="M1157 131l60 49q95 -129 235 -129q76 0 129 47t53 119q0 74 -65 121q-64 43 -164 43h-57l-17 49l273 285h-406v76h508v-66l-262 -274q272 -21 272 -234q0 -101 -80 -172q-77 -65 -186 -65q-181 0 -293 151zM410 0l503 729l473 705h89l-504 -729l-473 -705h-88zM700 643
h-550v70h243v651l-215 -76l-18 72l246 88h67v-735h227v-70z" />
    <glyph glyph-name="paragraph.aalt" horiz-adv-x="1228" 
d="M872 0v567h-167q-243 0 -392 113q-153 120 -153 315q0 205 155 324q151 115 408 115h258v-1434h-109z" />
    <glyph glyph-name="percent.aalt" horiz-adv-x="1228" 
d="M492 1352q65 -95 65 -242v-8q0 -144 -65 -244q-66 -100 -175 -100q-107 0 -174 98q-65 95 -65 242v8q0 144 65 244q66 100 174 100t175 -98zM1085 578q66 -97 66 -242v-8q0 -143 -66 -244q-66 -100 -174 -100q-107 0 -174 98q-65 95 -65 242v8q0 143 65 243
q67 101 174 101t174 -98zM797 520q-39 -68 -39 -182v-16q0 -115 39 -183q41 -80 114 -80q74 0 115 80q39 68 39 183v16q0 114 -39 182q-41 80 -115 80q-73 0 -114 -80zM203 1294q-39 -68 -39 -182v-16q0 -115 39 -183q40 -79 114 -79q75 0 115 79q39 68 39 183v16
q0 114 -39 182q-41 80 -115 80q-73 0 -114 -80zM956 1434h86l-397 -734l-373 -700h-86l398 733z" />
    <glyph glyph-name="period.aalt" horiz-adv-x="614" 
d="M223 0v195h168v-195h-168z" />
    <glyph glyph-name="periodcentered.aalt" horiz-adv-x="614" 
d="M223 512v195h168v-195h-168z" />
    <glyph glyph-name="plus.aalt" horiz-adv-x="1228" 
d="M1090 672h-424v-436h-103v436h-424v98h424v436h103v-436h424v-98z" />
    <glyph glyph-name="plusminus.aalt" horiz-adv-x="1228" 
d="M1090 733h-424v-416h-103v416h-424v98h424v416h103v-416h424v-98zM1090 0h-951v98h951v-98z" />
    <glyph glyph-name="quotedbl.aalt" horiz-adv-x="1228" 
d="M713 913l133 521h135v-11l-207 -510h-61zM283 913l133 521h135v-11l-207 -510h-61z" />
    <glyph glyph-name="quotesingle.aalt" horiz-adv-x="614" 
d="M190 913l134 521h135v-11l-207 -510h-62z" />
    <glyph glyph-name="section.aalt" horiz-adv-x="1228" 
d="M205 156l69 77q164 -159 379 -159q105 0 162 45q57 39 57 108q0 140 -307 222q-248 67 -346 137q-96 69 -96 170q0 91 80 153q82 63 215 72q-168 85 -168 217q0 114 96 186q94 70 240 70q262 0 438 -176l-70 -78q-165 160 -379 160q-104 0 -161 -45q-58 -40 -58 -109
q0 -138 308 -221q246 -67 348 -137q94 -67 94 -170q0 -93 -80 -152q-79 -64 -215 -73q168 -85 168 -217q0 -115 -96 -187q-92 -69 -240 -69q-262 0 -438 176zM293 872q-66 -48 -66 -110q0 -128 287 -205q158 -41 238 -41q111 -3 184 45q65 47 65 111q0 128 -286 205
q-146 38 -238 41q-110 3 -184 -46z" />
    <glyph glyph-name="semicolon.aalt" horiz-adv-x="614" 
d="M223 850v194h168v-194h-168zM205 -219l-25 51q124 65 115 168h-72v195h168v-172q0 -172 -186 -242z" />
    <glyph glyph-name="seven.pnum" horiz-adv-x="1228" 
d="M983 1331h-831v103h950v-78l-653 -1356h-117z" />
    <glyph glyph-name="six.pnum" horiz-adv-x="1228" 
d="M977 782q137 -125 137 -327v-2q0 -203 -139 -342q-139 -136 -336 -136q-206 0 -340 134q-174 174 -174 559v8q0 342 151 561q156 221 418 221q191 0 365 -149l-66 -80q-144 135 -307 135q-211 0 -338 -201q-119 -186 -119 -473v-39q136 250 424 250q193 0 324 -119z
M909 180q99 108 99 271q0 159 -103 262q-104 96 -256 96q-176 0 -284 -111q-103 -103 -103 -254q0 -164 111 -272q107 -104 264 -104q169 0 272 112z" />
    <glyph glyph-name="space.aalt" horiz-adv-x="614" 
 />
    <glyph glyph-name="sterling.aalt" horiz-adv-x="1228" 
d="M299 727v252q0 229 127 356q119 119 301 119q229 0 385 -188l-76 -70q-135 164 -309 164q-139 0 -227 -88q-99 -99 -99 -289v-256h568v-92h-568v-541h717v-94h-985v49l166 41v545h-168v92h168z" />
    <glyph glyph-name="three.pnum" horiz-adv-x="1228" 
d="M111 225l79 68q173 -221 420 -221q150 0 254 88q113 94 113 241v5q0 140 -111 217q-106 75 -288 75h-115l-39 70l510 565h-764v101h895v-97l-494 -544q220 3 363 -95q153 -105 153 -288v-4q0 -191 -147 -314q-141 -117 -334 -117q-307 0 -495 250z" />
    <glyph glyph-name="two.pnum" horiz-adv-x="1228" 
d="M1087 0h-978v80l534 483q320 293 320 490q0 135 -99 223q-93 84 -227 84q-242 0 -418 -279l-82 52q205 321 506 321q185 0 307 -113q123 -114 123 -280v-4q0 -138 -84 -266q-77 -112 -274 -291l-441 -398h813v-102z" />
    <glyph glyph-name="underscore.aalt" horiz-adv-x="1228" 
d="M-4 -328v90h1237v-90h-1237z" />
    <glyph glyph-name="yen.aalt" horiz-adv-x="1228" 
d="M188 328h377v225h-377v86h349l-486 795h121l444 -754l445 754h117l-488 -795h350v-86h-376v-225h376v-86h-376v-242h-99v242h-377v86z" />
    <glyph glyph-name="zero.pnum" horiz-adv-x="1228" 
d="M258 170q-143 198 -143 539v12q0 337 145 541q138 196 356 196q217 0 355 -194q143 -198 143 -539v-12q0 -337 -145 -541q-138 -197 -357 -197q-215 0 -354 195zM336 1196q-113 -174 -113 -471v-12q0 -299 113 -473q108 -170 278 -170q172 0 279 168q113 174 113 471v12
q0 299 -113 473q-108 170 -279 170t-278 -168z" />
    </font>
</defs>
</svg>
